<svg width="132" height="95" viewBox="0 0 132 95" fill="none" xmlns="http://www.w3.org/2000/svg">
<g filter="url(#filter0_d_57_262)">
<rect x="4" width="124" height="87" rx="25" fill="white"/>
</g>
<path d="M54.0156 68H52.2461V61.0039H49.8027V59.5449H56.4648V61.0039H54.0156V68ZM58.2812 66.8633C58.6602 66.8633 58.9805 66.7539 59.2422 66.5352C59.5078 66.3125 59.6406 66.0332 59.6406 65.6973V65.2402L58.3164 65.3223C57.9961 65.3457 57.748 65.4258 57.5723 65.5625C57.4004 65.6992 57.3145 65.8789 57.3145 66.1016C57.3145 66.3359 57.4023 66.5215 57.5781 66.6582C57.7539 66.7949 57.9883 66.8633 58.2812 66.8633ZM57.7188 68.0996C57.1133 68.0996 56.6113 67.9219 56.2129 67.5664C55.8145 67.2109 55.6152 66.7539 55.6152 66.1953C55.6152 65.625 55.8262 65.1777 56.248 64.8535C56.6699 64.5293 57.2734 64.3438 58.0586 64.2969L59.6406 64.2031V63.7871C59.6406 63.498 59.5449 63.2715 59.3535 63.1074C59.166 62.9434 58.9102 62.8613 58.5859 62.8613C58.2734 62.8613 58.0176 62.9316 57.8184 63.0723C57.623 63.2129 57.5039 63.4023 57.4609 63.6406H55.8965C55.9277 63.0234 56.1914 62.5273 56.6875 62.1523C57.1836 61.7734 57.8418 61.584 58.6621 61.584C59.4668 61.584 60.1113 61.7754 60.5957 62.1582C61.0801 62.541 61.3223 63.0488 61.3223 63.6816V68H59.6699V67.0391H59.6348C59.4629 67.3672 59.2012 67.627 58.8496 67.8184C58.498 68.0059 58.1211 68.0996 57.7188 68.0996ZM68.1367 64.0566H66.5488C66.498 63.7168 66.3633 63.4434 66.1445 63.2363C65.9297 63.0293 65.6504 62.9258 65.3066 62.9258C64.8809 62.9258 64.5449 63.0977 64.2988 63.4414C64.0566 63.7812 63.9355 64.252 63.9355 64.8535C63.9355 65.4668 64.0566 65.9434 64.2988 66.2832C64.5449 66.623 64.8828 66.793 65.3125 66.793C65.6523 66.793 65.9297 66.6973 66.1445 66.5059C66.3594 66.3105 66.4941 66.041 66.5488 65.6973H68.1426C68.0996 66.4395 67.8203 67.0312 67.3047 67.4727C66.7891 67.9141 66.1191 68.1348 65.2949 68.1348C64.3418 68.1348 63.5879 67.8438 63.0332 67.2617C62.4785 66.6758 62.2012 65.873 62.2012 64.8535C62.2012 63.8496 62.4785 63.0547 63.0332 62.4688C63.5918 61.8789 64.3418 61.584 65.2832 61.584C66.1191 61.584 66.793 61.8145 67.3047 62.2754C67.8203 62.7363 68.0977 63.3301 68.1367 64.0566ZM74.125 67.2676C73.5664 67.8457 72.8086 68.1348 71.8516 68.1348C70.8945 68.1348 70.1367 67.8438 69.5781 67.2617C69.0195 66.6797 68.7402 65.877 68.7402 64.8535C68.7402 63.8418 69.0215 63.0449 69.584 62.4629C70.1504 61.877 70.9062 61.584 71.8516 61.584C72.8008 61.584 73.5566 61.877 74.1191 62.4629C74.6816 63.0449 74.9629 63.8418 74.9629 64.8535C74.9629 65.8809 74.6836 66.6855 74.125 67.2676ZM71.8516 66.8281C72.2734 66.8281 72.6074 66.6562 72.8535 66.3125C73.0996 65.9688 73.2227 65.4844 73.2227 64.8594C73.2227 64.2422 73.0996 63.7598 72.8535 63.4121C72.6074 63.0645 72.2734 62.8906 71.8516 62.8906C71.4297 62.8906 71.0938 63.0645 70.8438 63.4121C70.5977 63.7598 70.4746 64.2422 70.4746 64.8594C70.4746 65.4844 70.5977 65.9688 70.8438 66.3125C71.0898 66.6562 71.4258 66.8281 71.8516 66.8281ZM75.7422 63.5645C75.7422 62.9668 75.9824 62.4883 76.4629 62.1289C76.9434 61.7656 77.5859 61.584 78.3906 61.584C79.1758 61.584 79.8066 61.7676 80.2832 62.1348C80.7598 62.502 81.0039 62.9902 81.0156 63.5996H79.4395C79.4199 63.3457 79.3145 63.1465 79.123 63.002C78.9355 62.8574 78.6836 62.7852 78.3672 62.7852C78.0703 62.7852 77.832 62.8477 77.6523 62.9727C77.4766 63.0938 77.3887 63.2559 77.3887 63.459C77.3887 63.7637 77.6621 63.9805 78.209 64.1094L79.4102 64.3672C80.0391 64.5078 80.4902 64.7129 80.7637 64.9824C81.041 65.248 81.1797 65.6152 81.1797 66.084C81.1797 66.7012 80.9219 67.1973 80.4062 67.5723C79.8906 67.9473 79.2168 68.1348 78.3848 68.1348C77.5566 68.1348 76.8945 67.9512 76.3984 67.584C75.9023 67.2168 75.6309 66.7227 75.584 66.1016H77.2539C77.2969 66.3672 77.418 66.5723 77.6172 66.7168C77.8203 66.8613 78.0918 66.9336 78.4316 66.9336C78.7559 66.9336 79.0098 66.875 79.1934 66.7578C79.3809 66.6367 79.4746 66.4727 79.4746 66.2656C79.4746 66.1055 79.416 65.9785 79.2988 65.8848C79.1816 65.7871 78.9824 65.7051 78.7012 65.6387L77.541 65.3809C76.3418 65.1074 75.7422 64.502 75.7422 63.5645Z" fill="#A8A8A8"/>
<path d="M91 43.6784C91 34.3502 86.1563 25.6388 78.4219 21.0132C76.9375 17.3899 73.3437 15 69.3594 15C67.5625 15 65.8437 15.4626 64.3594 16.3106C63.8125 16.6189 63.1875 16.6189 62.6406 16.3106C60.8438 15.2313 59.125 14.9229 57.6406 15.3084C56.2344 15.6938 55.0625 16.8502 54.2031 18.4692C53.8906 19.0859 53.1875 19.4714 52.4844 19.3943C50.8437 19.163 49.4375 19.4714 48.3437 20.3194C46.7031 21.63 46.1563 23.9427 46.0781 25.6388C46.0781 26.1013 45.8438 26.4868 45.5313 26.7181C44.2031 27.7974 43.7344 29.3392 44.0469 31.1123C42.0938 34.967 41 39.2841 41 43.6784C41 44.9119 41.4688 46.0683 42.3281 46.9934C42.875 47.533 43.4219 47.9185 44.125 48.1498C44.9062 49.3062 46.2344 50 47.7188 50H84.2813C85.7656 50 87.0938 49.2291 87.7969 48.1498C89.75 47.4559 91 45.7599 91 43.6784ZM46.5469 27.8744C47.1719 27.3348 47.5625 26.5639 47.6406 25.7159C47.7188 24.5595 48.0312 22.478 49.3594 21.4758C50.1406 20.859 51.0781 20.7048 52.3281 20.859C53.6563 21.0903 54.9844 20.3965 55.6094 19.163C56.0781 18.2379 56.8594 17.0815 58.1094 16.7731C59.125 16.4648 60.4531 16.7731 61.8594 17.6211C62.875 18.2379 64.125 18.2379 65.1406 17.6982C66.3906 16.9273 67.875 16.5419 69.3594 16.5419C72.7969 16.5419 75.9219 18.6233 77.0938 21.7841C77.3281 22.4009 77.7188 24.4824 77.6406 26.2555C75.6094 25.022 73.4219 24.0969 71.0781 23.5573V19.8568C71.0781 19.4714 70.7656 19.0859 70.2969 19.0859C69.9062 19.0859 69.5156 19.3943 69.5156 19.8568V23.2489C68.3438 23.0947 67.1719 22.9405 66 22.9405C63.9688 22.9405 62.0156 23.2489 60.0625 23.7115V19.7797C60.0625 19.3943 59.75 19.0088 59.2812 19.0088C58.8906 19.0088 58.5 19.3172 58.5 19.7797V24.174C56.9375 24.7137 55.4531 25.4846 54.0469 26.3326C53.1094 25.0991 51.3906 24.0969 51.1562 24.0198C50.7656 23.7885 50.2969 23.9427 50.1406 24.3282C49.9062 24.7137 50.0625 25.1762 50.4531 25.3304C51.2344 25.793 52.3281 26.5639 52.875 27.2577C50.4531 29.0308 48.3438 31.2665 46.7813 33.8106C46.1563 32.8084 45.7656 31.9604 45.5313 31.1123C45.2969 29.7247 45.6094 28.6454 46.5469 27.8744ZM42.4844 43.6784C42.4844 40.0551 43.2656 36.4317 44.75 33.1938C45.0625 33.8877 45.4531 34.5815 46 35.2753C44.3594 38.4361 43.4219 41.9824 43.4219 45.837V45.9141C42.875 45.2974 42.4844 44.5264 42.4844 43.6784ZM84.2813 48.4582H47.7188C46.2344 48.4582 44.9844 47.2247 44.9844 45.7599C44.9844 34.0419 54.3594 24.4053 66 24.4053C77.6406 24.4053 87.0156 33.9648 87.0156 45.7599C87.0156 47.3018 85.8438 48.4582 84.2813 48.4582ZM88.5781 45.9912C88.5781 45.9141 88.5781 45.837 88.5781 45.837C88.5781 38.2048 84.8281 31.3436 79.0469 27.2577C79.2031 25.9471 79.125 24.4824 78.9687 23.2489C85.5312 27.7974 89.5156 35.5066 89.5156 43.8326C89.5156 44.6035 89.125 45.3744 88.5781 45.9912Z" fill="#A8A8A8"/>
<path d="M58.1094 39.9009C56.8594 39.9009 55.8437 40.9031 55.8437 42.1366C55.8437 43.3701 56.8594 44.3723 58.1094 44.3723C59.3594 44.3723 60.375 43.3701 60.375 42.1366C60.2969 40.9031 59.2812 39.9009 58.1094 39.9009ZM58.1094 42.8304C57.7187 42.8304 57.4062 42.522 57.4062 42.1366C57.4062 41.7511 57.7187 41.4427 58.1094 41.4427C58.5 41.4427 58.8125 41.7511 58.8125 42.1366C58.8125 42.522 58.5 42.8304 58.1094 42.8304ZM66.1562 40.9031C65.7656 40.9031 65.375 41.2115 65.375 41.674C65.375 42.0595 65.6875 42.445 66.1562 42.445C66.5469 42.445 66.8594 42.7533 66.8594 43.1388C66.8594 43.5242 66.5469 43.8326 66.1562 43.8326C65.7656 43.8326 65.375 44.141 65.375 44.6035C65.375 44.989 65.6875 45.3745 66.1562 45.3745C67.4062 45.3745 68.4219 44.3723 68.4219 43.1388C68.3437 41.9053 67.3281 40.9031 66.1562 40.9031ZM61.5469 32.0375C61.1562 32.0375 60.7656 32.3458 60.7656 32.8084C60.7656 33.1938 60.4531 33.5022 60.0625 33.5022C59.6719 33.5022 59.3594 33.1938 59.3594 32.8084C59.3594 32.4229 59.0469 32.0375 58.5781 32.0375C58.1875 32.0375 57.7969 32.3458 57.7969 32.8084C57.7969 34.0419 58.8125 35.0441 60.0625 35.0441C61.3125 35.0441 62.3281 34.0419 62.3281 32.8084C62.3281 32.3458 62.0156 32.0375 61.5469 32.0375ZM51.5469 33.5022C50.2969 33.5022 49.2812 34.5044 49.2812 35.7379C49.2812 36.9714 50.2969 37.9736 51.5469 37.9736C52.7969 37.9736 53.8125 36.9714 53.8125 35.7379C53.8125 34.5044 52.7969 33.5022 51.5469 33.5022ZM51.5469 36.4317C51.1562 36.4317 50.8437 36.1234 50.8437 35.7379C50.8437 35.3524 51.1562 35.0441 51.5469 35.0441C51.9375 35.0441 52.25 35.3524 52.25 35.7379C52.3281 36.1234 52.0156 36.4317 51.5469 36.4317ZM66.3906 27.1806C66 27.1806 65.6094 27.489 65.6094 27.9516C65.6094 28.337 65.9219 28.7225 66.3906 28.7225C66.7812 28.7225 67.0937 29.0309 67.0937 29.4163C67.0937 29.8018 66.7812 30.1101 66.3906 30.1101C66 30.1101 65.6094 30.4185 65.6094 30.8811C65.6094 31.2665 65.9219 31.652 66.3906 31.652C67.6406 31.652 68.6562 30.6498 68.6562 29.4163C68.5781 28.1828 67.5625 27.1806 66.3906 27.1806ZM76.4687 29.7247C76.0781 29.4934 75.6094 29.6476 75.4531 30.0331C75.2187 30.4185 75.375 30.8811 75.7656 31.0353C76.1562 31.1894 76.2344 31.652 76.0781 31.9604C75.9219 32.2687 75.4531 32.4229 75.1406 32.2687C74.75 32.1146 74.2812 32.1916 74.125 32.5771C73.9687 32.9626 74.0469 33.4251 74.4375 33.5793C74.75 33.7335 75.1406 33.8106 75.4531 33.8106C76.2344 33.8106 77.0156 33.348 77.4062 32.6542C77.9531 31.652 77.5625 30.3414 76.4687 29.7247ZM75.2969 39.0529C74.0469 39.0529 73.0312 40.0551 73.0312 41.2886C73.0312 42.522 74.0469 43.5242 75.2969 43.5242C75.6875 43.5242 76.0781 43.2159 76.0781 42.7533C76.0781 42.3679 75.7656 41.9824 75.2969 41.9824C74.9062 41.9824 74.5937 41.674 74.5937 41.2886C74.5937 40.9031 74.9062 40.5947 75.2969 40.5947C75.6875 40.5947 76 40.9031 76 41.2886C76 41.674 76.3125 42.0595 76.7812 42.0595C77.25 42.0595 77.5625 41.7511 77.5625 41.2886C77.5625 40.0551 76.5469 39.0529 75.2969 39.0529ZM82.5625 42.522C81.3125 42.522 80.2969 43.5242 80.2969 44.7577C80.2969 45.9912 81.3125 46.9934 82.5625 46.9934C83.8125 46.9934 84.8281 45.9912 84.8281 44.7577C84.75 43.5242 83.8125 42.522 82.5625 42.522ZM82.5625 45.4516C82.1719 45.4516 81.8594 45.1432 81.8594 44.7577C81.8594 44.3723 82.1719 44.0639 82.5625 44.0639C82.9531 44.0639 83.2656 44.3723 83.2656 44.7577C83.2656 45.0661 82.9531 45.4516 82.5625 45.4516Z" fill="#A8A8A8"/>
<defs>
<filter id="filter0_d_57_262" x="0" y="0" width="132" height="95" filterUnits="userSpaceOnUse" color-interpolation-filters="sRGB">
<feFlood flood-opacity="0" result="BackgroundImageFix"/>
<feColorMatrix in="SourceAlpha" type="matrix" values="0 0 0 0 0 0 0 0 0 0 0 0 0 0 0 0 0 0 127 0" result="hardAlpha"/>
<feOffset dy="4"/>
<feGaussianBlur stdDeviation="2"/>
<feComposite in2="hardAlpha" operator="out"/>
<feColorMatrix type="matrix" values="0 0 0 0 0.5125 0 0 0 0 0.5125 0 0 0 0 0.5125 0 0 0 0.15 0"/>
<feBlend mode="normal" in2="BackgroundImageFix" result="effect1_dropShadow_57_262"/>
<feBlend mode="normal" in="SourceGraphic" in2="effect1_dropShadow_57_262" result="shape"/>
</filter>
</defs>
</svg>
