<svg width="132" height="95" viewBox="0 0 132 95" fill="none" xmlns="http://www.w3.org/2000/svg">
<g filter="url(#filter0_d_57_366)">
<rect x="4" width="124" height="87" rx="25" fill="white"/>
</g>
<path d="M65.5 16.5333C62.3058 16.5333 59.1834 17.4743 56.5275 19.2373C53.8717 21.0003 51.8017 23.5061 50.5793 26.4378C49.357 29.3696 49.0372 32.5956 49.6603 35.7079C50.2835 38.8202 51.8216 41.6791 54.0802 43.9229C56.3388 46.1668 59.2165 47.6949 62.3493 48.3139C65.4821 48.933 68.7293 48.6153 71.6803 47.4009C74.6314 46.1865 77.1537 44.1301 78.9282 41.4916C80.7028 38.8531 81.65 35.7511 81.65 32.5778C81.6453 28.324 79.9422 24.2457 76.9146 21.2378C73.8869 18.2299 69.7818 16.538 65.5 16.5333ZM65.5 46.9333C62.6421 46.9333 59.8483 46.0914 57.472 44.514C55.0957 42.9366 53.2436 40.6945 52.1499 38.0714C51.0563 35.4483 50.7701 32.5619 51.3277 29.7771C51.8852 26.9924 53.2614 24.4345 55.2823 22.4269C57.3032 20.4192 59.8779 19.052 62.6809 18.4981C65.484 17.9441 68.3894 18.2284 71.0298 19.315C73.6702 20.4015 75.927 22.2415 77.5147 24.6023C79.1025 26.963 79.95 29.7385 79.95 32.5778C79.9457 36.3838 78.4219 40.0327 75.713 42.724C73.004 45.4153 69.3311 46.9291 65.5 46.9333Z" fill="#A8A8A8"/>
<path d="M49.35 14.8444H47.65V22.4444H46.8V14.8444H45.1V22.4444H44.25V14.8444H42.55V22.4444H41.7V14.8444H40V27.5111C40.0006 28.0349 40.1644 28.5457 40.4687 28.9734C40.7731 29.4011 41.2032 29.7248 41.7 29.9V49.4667C41.7 50.1385 41.9687 50.7829 42.4469 51.258C42.9251 51.7331 43.5737 52 44.25 52H45.1C45.7763 52 46.4249 51.7331 46.9031 51.258C47.3813 50.7829 47.65 50.1385 47.65 49.4667V29.9C48.1468 29.7248 48.5769 29.4011 48.8813 28.9734C49.1856 28.5457 49.3494 28.0349 49.35 27.5111V14.8444ZM47.65 27.5111C47.65 27.7351 47.5604 27.9499 47.401 28.1082C47.2416 28.2666 47.0254 28.3556 46.8 28.3556C46.5746 28.3556 46.3584 28.4445 46.199 28.6029C46.0396 28.7613 45.95 28.976 45.95 29.2V49.4667C45.95 49.6906 45.8604 49.9054 45.701 50.0638C45.5416 50.2221 45.3254 50.3111 45.1 50.3111H44.25C44.0246 50.3111 43.8084 50.2221 43.649 50.0638C43.4896 49.9054 43.4 49.6906 43.4 49.4667V29.2C43.4 28.976 43.3104 28.7613 43.151 28.6029C42.9916 28.4445 42.7754 28.3556 42.55 28.3556C42.3246 28.3556 42.1084 28.2666 41.949 28.1082C41.7896 27.9499 41.7 27.7351 41.7 27.5111V24.1333H47.65V27.5111ZM90.15 14C88.1218 14.0022 86.1773 14.8037 84.7431 16.2285C83.309 17.6532 82.5023 19.585 82.5 21.6V32.5778C82.5 33.2497 82.7687 33.894 83.2469 34.3691C83.7251 34.8442 84.3737 35.1111 85.05 35.1111V51.1556C85.05 51.3795 85.1396 51.5943 85.299 51.7527C85.4584 51.911 85.6746 52 85.9 52H90.15C90.3754 52 90.5916 51.911 90.751 51.7527C90.9104 51.5943 91 51.3795 91 51.1556V14.8444C91 14.6205 90.9104 14.4057 90.751 14.2473C90.5916 14.089 90.3754 14 90.15 14ZM89.3 50.3111H86.75V34.2667C86.75 34.0427 86.6604 33.8279 86.501 33.6696C86.3416 33.5112 86.1254 33.4222 85.9 33.4222H85.05C84.8246 33.4222 84.6084 33.3333 84.449 33.1749C84.2896 33.0165 84.2 32.8017 84.2 32.5778V21.6C84.2018 20.179 84.718 18.806 85.6543 17.7318C86.5906 16.6576 87.8846 15.9538 89.3 15.7488V50.3111Z" fill="#A8A8A8"/>
<path d="M86.75 19.0667H85.05V31.7333H86.75V19.0667Z" fill="#A8A8A8"/>
<path d="M65.5 24.1333C63.8189 24.1333 62.1755 24.6286 60.7777 25.5565C59.3798 26.4844 58.2904 27.8032 57.647 29.3462C57.0037 30.8892 56.8354 32.5871 57.1633 34.2252C57.4913 35.8633 58.3008 37.3679 59.4896 38.5489C60.6783 39.7299 62.1929 40.5341 63.8417 40.86C65.4906 41.1858 67.1996 41.0186 68.7528 40.3794C70.306 39.7403 71.6335 38.6579 72.5675 37.2693C73.5015 35.8806 74 34.2479 74 32.5778C73.9975 30.3389 73.1012 28.1925 71.5077 26.6094C69.9142 25.0263 67.7536 24.1358 65.5 24.1333ZM65.5 39.3333C64.1551 39.3333 62.8404 38.9371 61.7221 38.1948C60.6039 37.4525 59.7323 36.3974 59.2176 35.163C58.7029 33.9286 58.5683 32.5703 58.8307 31.2598C59.093 29.9494 59.7407 28.7457 60.6917 27.8009C61.6427 26.8561 62.8543 26.2127 64.1734 25.952C65.4925 25.6914 66.8597 25.8251 68.1022 26.3365C69.3448 26.8478 70.4068 27.7136 71.154 28.8246C71.9012 29.9355 72.3 31.2417 72.3 32.5778C72.298 34.3688 71.5809 36.086 70.3061 37.3525C69.0313 38.6189 67.3029 39.3313 65.5 39.3333Z" fill="#A8A8A8"/>
<path d="M49.1348 59.5449H52.5742C53.4453 59.5449 54.1504 59.8105 54.6895 60.3418C55.2324 60.873 55.5039 61.5723 55.5039 62.4395C55.5039 63.3027 55.2246 64.002 54.666 64.5371C54.1074 65.0684 53.3809 65.334 52.4863 65.334H50.9043V68H49.1348V59.5449ZM50.9043 60.9453V63.9512H52.0996C52.6074 63.9512 53.002 63.8203 53.2832 63.5586C53.5645 63.2969 53.7051 62.9258 53.7051 62.4453C53.7051 61.9648 53.5645 61.5957 53.2832 61.3379C53.0059 61.0762 52.6133 60.9453 52.1055 60.9453H50.9043ZM56.4473 68V59.5449H58.1582V68H56.4473ZM61.7383 66.8633C62.1172 66.8633 62.4375 66.7539 62.6992 66.5352C62.9648 66.3125 63.0977 66.0332 63.0977 65.6973V65.2402L61.7734 65.3223C61.4531 65.3457 61.2051 65.4258 61.0293 65.5625C60.8574 65.6992 60.7715 65.8789 60.7715 66.1016C60.7715 66.3359 60.8594 66.5215 61.0352 66.6582C61.2109 66.7949 61.4453 66.8633 61.7383 66.8633ZM61.1758 68.0996C60.5703 68.0996 60.0684 67.9219 59.6699 67.5664C59.2715 67.2109 59.0723 66.7539 59.0723 66.1953C59.0723 65.625 59.2832 65.1777 59.7051 64.8535C60.127 64.5293 60.7305 64.3438 61.5156 64.2969L63.0977 64.2031V63.7871C63.0977 63.498 63.002 63.2715 62.8105 63.1074C62.623 62.9434 62.3672 62.8613 62.043 62.8613C61.7305 62.8613 61.4746 62.9316 61.2754 63.0723C61.0801 63.2129 60.9609 63.4023 60.918 63.6406H59.3535C59.3848 63.0234 59.6484 62.5273 60.1445 62.1523C60.6406 61.7734 61.2988 61.584 62.1191 61.584C62.9238 61.584 63.5684 61.7754 64.0527 62.1582C64.5371 62.541 64.7793 63.0488 64.7793 63.6816V68H63.127V67.0391H63.0918C62.9199 67.3672 62.6582 67.627 62.3066 67.8184C61.9551 68.0059 61.5781 68.0996 61.1758 68.0996ZM66.3438 60.2715H68.0547V61.7188H69.2148V63.0078H68.0547V66.0137C68.0547 66.4863 68.3008 66.7227 68.793 66.7227C68.9531 66.7227 69.0918 66.7129 69.209 66.6934V67.9531C69.0098 68 68.7383 68.0234 68.3945 68.0234C67.6562 68.0234 67.1289 67.8906 66.8125 67.625C66.5 67.3594 66.3438 66.9199 66.3438 66.3066V63.0078H65.459V61.7188H66.3438V60.2715ZM75.2148 67.2676C74.6562 67.8457 73.8984 68.1348 72.9414 68.1348C71.9844 68.1348 71.2266 67.8438 70.668 67.2617C70.1094 66.6797 69.8301 65.877 69.8301 64.8535C69.8301 63.8418 70.1113 63.0449 70.6738 62.4629C71.2402 61.877 71.9961 61.584 72.9414 61.584C73.8906 61.584 74.6465 61.877 75.209 62.4629C75.7715 63.0449 76.0527 63.8418 76.0527 64.8535C76.0527 65.8809 75.7734 66.6855 75.2148 67.2676ZM72.9414 66.8281C73.3633 66.8281 73.6973 66.6562 73.9434 66.3125C74.1895 65.9688 74.3125 65.4844 74.3125 64.8594C74.3125 64.2422 74.1895 63.7598 73.9434 63.4121C73.6973 63.0645 73.3633 62.8906 72.9414 62.8906C72.5195 62.8906 72.1836 63.0645 71.9336 63.4121C71.6875 63.7598 71.5645 64.2422 71.5645 64.8594C71.5645 65.4844 71.6875 65.9688 71.9336 66.3125C72.1797 66.6562 72.5156 66.8281 72.9414 66.8281ZM76.832 63.5645C76.832 62.9668 77.0723 62.4883 77.5527 62.1289C78.0332 61.7656 78.6758 61.584 79.4805 61.584C80.2656 61.584 80.8965 61.7676 81.373 62.1348C81.8496 62.502 82.0938 62.9902 82.1055 63.5996H80.5293C80.5098 63.3457 80.4043 63.1465 80.2129 63.002C80.0254 62.8574 79.7734 62.7852 79.457 62.7852C79.1602 62.7852 78.9219 62.8477 78.7422 62.9727C78.5664 63.0938 78.4785 63.2559 78.4785 63.459C78.4785 63.7637 78.752 63.9805 79.2988 64.1094L80.5 64.3672C81.1289 64.5078 81.5801 64.7129 81.8535 64.9824C82.1309 65.248 82.2695 65.6152 82.2695 66.084C82.2695 66.7012 82.0117 67.1973 81.4961 67.5723C80.9805 67.9473 80.3066 68.1348 79.4746 68.1348C78.6465 68.1348 77.9844 67.9512 77.4883 67.584C76.9922 67.2168 76.7207 66.7227 76.6738 66.1016H78.3438C78.3867 66.3672 78.5078 66.5723 78.707 66.7168C78.9102 66.8613 79.1816 66.9336 79.5215 66.9336C79.8457 66.9336 80.0996 66.875 80.2832 66.7578C80.4707 66.6367 80.5645 66.4727 80.5645 66.2656C80.5645 66.1055 80.5059 65.9785 80.3887 65.8848C80.2715 65.7871 80.0723 65.7051 79.791 65.6387L78.6309 65.3809C77.4316 65.1074 76.832 64.502 76.832 63.5645Z" fill="#A8A8A8"/>
<defs>
<filter id="filter0_d_57_366" x="0" y="0" width="132" height="95" filterUnits="userSpaceOnUse" color-interpolation-filters="sRGB">
<feFlood flood-opacity="0" result="BackgroundImageFix"/>
<feColorMatrix in="SourceAlpha" type="matrix" values="0 0 0 0 0 0 0 0 0 0 0 0 0 0 0 0 0 0 127 0" result="hardAlpha"/>
<feOffset dy="4"/>
<feGaussianBlur stdDeviation="2"/>
<feComposite in2="hardAlpha" operator="out"/>
<feColorMatrix type="matrix" values="0 0 0 0 0.513726 0 0 0 0 0.513726 0 0 0 0 0.513726 0 0 0 0.25 0"/>
<feBlend mode="normal" in2="BackgroundImageFix" result="effect1_dropShadow_57_366"/>
<feBlend mode="normal" in="SourceGraphic" in2="effect1_dropShadow_57_366" result="shape"/>
</filter>
</defs>
</svg>
