<svg width="144" height="107" viewBox="0 0 144 107" fill="none" xmlns="http://www.w3.org/2000/svg">
<g filter="url(#filter0_dd_57_457)">
<rect x="10" y="10" width="124" height="87" rx="25" fill="white"/>
<rect x="11" y="11" width="122" height="85" rx="24" stroke="#FF0036" stroke-width="2"/>
</g>
<path d="M72.1464 48.9521C72.0787 48.9521 72.0126 48.9506 71.9449 48.9506C71.7332 48.9418 71.5332 48.8512 71.3869 48.6979C71.2407 48.5446 71.1597 48.3406 71.161 48.1287C71.1623 47.9169 71.2458 47.7139 71.3939 47.5624C71.542 47.4109 71.7431 47.3227 71.9549 47.3166C72.0142 47.3276 72.0782 47.3181 72.1385 47.3181C77.8791 47.3181 81.9882 43.9432 83.4266 38.0359C83.4722 37.8465 83.5842 37.6796 83.7424 37.5657C83.9005 37.4518 84.0943 37.3983 84.2885 37.415C85.2186 37.4947 85.7295 36.9987 85.9934 36.5708C86.4104 35.9027 86.4791 34.9499 86.1502 34.404C85.9818 34.125 85.7374 34.0102 85.3754 34.029C84.94 34.0768 84.5334 33.7165 84.5041 33.266C84.4973 33.1588 84.5118 33.0512 84.5466 32.9496C84.5814 32.8479 84.636 32.7541 84.7071 32.6735C84.7782 32.5929 84.8646 32.5271 84.9611 32.4798C85.0577 32.4326 85.1627 32.4049 85.27 32.3982C86.2252 32.3442 87.0719 32.76 87.5572 33.5649C88.2056 34.6399 88.1358 36.2309 87.3882 37.4329C86.8102 38.361 85.9115 38.9232 84.8603 39.0349C83.0966 45.3553 78.4991 48.9521 72.1464 48.9521Z" fill="#FF0036"/>
<path d="M67.0453 35.4533C67.6114 35.4533 68.0703 34.9962 68.0703 34.4323C68.0703 33.8684 67.6114 33.4113 67.0453 33.4113C66.4792 33.4113 66.0203 33.8684 66.0203 34.4323C66.0203 34.9962 66.4792 35.4533 67.0453 35.4533Z" fill="#FF0036"/>
<path d="M67.0453 36.2698C66.0281 36.2698 65.1998 35.4465 65.1998 34.4328C65.1998 33.4192 66.0287 32.5943 67.0453 32.5943C68.063 32.5943 68.8903 33.4197 68.8903 34.4328C68.8903 35.4459 68.0625 36.2698 67.0453 36.2698ZM67.0453 34.2283C66.991 34.2283 66.939 34.2499 66.9006 34.2882C66.8623 34.3266 66.8407 34.3786 66.8407 34.4328C66.8407 34.6562 67.2499 34.6562 67.2499 34.4328C67.25 34.4059 67.2447 34.3793 67.2345 34.3545C67.2242 34.3296 67.2091 34.3071 67.1901 34.2881C67.1711 34.269 67.1485 34.254 67.1237 34.2437C67.0988 34.2335 67.0722 34.2282 67.0453 34.2283Z" fill="#FF0036"/>
<path d="M77.1919 35.2509C77.758 35.2509 78.2169 34.7938 78.2169 34.2299C78.2169 33.666 77.758 33.2089 77.1919 33.2089C76.6257 33.2089 76.1668 33.666 76.1668 34.2299C76.1668 34.7938 76.6257 35.2509 77.1919 35.2509Z" fill="#FF0036"/>
<path d="M77.1919 36.0684C76.1742 36.0684 75.3469 35.2435 75.3469 34.2299C75.3469 33.2162 76.1742 32.3919 77.1919 32.3919C78.2096 32.3919 79.0374 33.2168 79.0374 34.2299C79.0374 35.243 78.2085 36.0684 77.1919 36.0684ZM77.1919 34.0259C77.165 34.0258 77.1383 34.0311 77.1135 34.0413C77.0886 34.0516 77.066 34.0666 77.047 34.0856C77.028 34.1046 77.013 34.1272 77.0027 34.1521C76.9924 34.1769 76.9872 34.2035 76.9873 34.2304C76.9873 34.4569 77.3964 34.4569 77.3964 34.2304C77.3964 34.1762 77.3749 34.1241 77.3365 34.0858C77.2982 34.0474 77.2461 34.0259 77.1919 34.0259Z" fill="#FF0036"/>
<path d="M72.1406 41.693C72.5375 41.693 72.8593 41.2359 72.8593 40.672C72.8593 40.1081 72.5375 39.651 72.1406 39.651C71.7437 39.651 71.4219 40.1081 71.4219 40.672C71.4219 41.2359 71.7437 41.693 72.1406 41.693Z" fill="#FF0036"/>
<path d="M72.1406 42.5105C72.9904 42.5105 73.6792 41.6874 73.6792 40.672C73.6792 39.6566 72.9904 38.8335 72.1406 38.8335C71.2909 38.8335 70.602 39.6566 70.602 40.672C70.602 41.6874 71.2909 42.5105 72.1406 42.5105Z" fill="#FF0036"/>
<path d="M71.8537 48.9521C65.5009 48.9521 60.9034 45.3569 59.1398 39.0349C58.0885 38.9232 57.1899 38.3615 56.6113 37.4329C55.8643 36.2309 55.7945 34.6405 56.4429 33.5649C56.8694 32.856 57.5666 32.4428 58.3891 32.3966C58.7815 24.3844 64.7828 18 72.1039 18C79.6774 18 85.8386 24.8328 85.8386 33.2314C85.8386 33.6824 85.4714 34.0484 85.0182 34.0484C84.9107 34.0486 84.8042 34.0277 84.7048 33.9867C84.6054 33.9458 84.515 33.8856 84.4389 33.8098C84.3627 33.7339 84.3023 33.6438 84.261 33.5445C84.2197 33.4453 84.1984 33.3389 84.1982 33.2314C84.1982 25.7342 78.773 19.634 72.1039 19.634C65.4348 19.634 60.0096 25.7342 60.0096 33.2314C60.0096 33.4533 59.9188 33.6651 59.7598 33.8188C59.5993 33.9735 59.3895 34.0547 59.1613 34.0484L58.6493 34.0306C58.2705 33.9991 58.0182 34.125 57.8498 34.404C57.5209 34.9493 57.5896 35.9027 58.0062 36.5713C58.2705 36.9971 58.7794 37.4853 59.7116 37.4155C59.9053 37.4011 60.0979 37.4554 60.2556 37.5688C60.4132 37.6823 60.5258 37.8477 60.5735 38.0359C62.0266 44.0024 66.1315 47.3774 72.0357 47.3166C72.469 47.2736 72.8593 47.6726 72.8656 48.1241C72.8668 48.2316 72.8467 48.3383 72.8066 48.438C72.7665 48.5378 72.7071 48.6286 72.6318 48.7054C72.5565 48.7821 72.4669 48.8433 72.3679 48.8854C72.2689 48.9275 72.1626 48.9496 72.0551 48.9506C71.9874 48.9506 71.9203 48.9521 71.8537 48.9521Z" fill="#FF0036"/>
<path d="M82.3218 61L62.74 60.9969C61.5392 60.9969 60.4775 60.2485 60.0993 59.1332C59.7179 58.0078 59.5553 57.0681 59.5553 55.991V55.1085C59.5553 51.2133 61.7365 47.6674 65.2465 45.853C65.4394 45.7526 65.6643 45.7329 65.8718 45.7981C66.0792 45.8634 66.2523 46.0084 66.3529 46.2012C66.5611 46.6018 66.4048 47.0947 66.0024 47.3024C63.0375 48.8357 61.1956 51.8263 61.1956 55.1085V55.991C61.1956 56.893 61.3278 57.6507 61.6531 58.6098C61.8063 59.0598 62.2438 59.3629 62.7411 59.3629L82.3228 59.366C82.8123 59.366 83.2592 59.0566 83.4098 58.6109C83.734 57.6523 83.8662 56.8924 83.8662 55.991V55.1085C83.8662 51.6055 81.7684 48.4435 78.5222 47.0502C78.4237 47.0076 78.3345 46.946 78.2598 46.869C78.1851 46.7919 78.1263 46.7009 78.0868 46.6012C78.007 46.3997 78.0105 46.1748 78.0965 45.976C78.1826 45.7771 78.3441 45.6205 78.5456 45.5407C78.7472 45.4609 78.9722 45.4644 79.1711 45.5504C83.0195 47.2022 85.5066 50.9532 85.5066 55.1085V55.991C85.5066 57.0697 85.3439 58.0099 84.9636 59.1332C84.5864 60.2501 83.5241 61 82.3218 61ZM72.0944 25.1553H72.0394C71.8221 25.1519 71.6151 25.0623 71.4638 24.9064C71.3125 24.7504 71.2293 24.5408 71.2326 24.3236C71.2368 24.1091 71.3252 23.9048 71.4786 23.7547C71.6321 23.6047 71.8383 23.5208 72.053 23.5213C72.0635 23.5197 72.0803 23.5213 72.0939 23.5213C72.9752 23.5213 73.6992 22.8144 73.7133 21.9335C73.7191 21.6414 73.6666 21.3512 73.559 21.0796C73.4514 20.8081 73.2907 20.5607 73.0864 20.3519C72.8827 20.1415 72.6394 19.9734 72.3705 19.8573C72.1016 19.7412 71.8124 19.6794 71.5195 19.6754C71.3025 19.6721 71.0958 19.5829 70.9445 19.4274C70.7933 19.2719 70.7099 19.0627 70.7127 18.8458C70.7165 18.631 70.8047 18.4262 70.9582 18.2758C71.1117 18.1253 71.3182 18.0411 71.5331 18.0414H71.5468C72.5802 18.0572 73.546 18.4756 74.2652 19.2161C74.9844 19.9565 75.3705 20.9313 75.3537 21.9623C75.3243 23.7337 73.867 25.1553 72.0944 25.1553Z" fill="#FF0036"/>
<path d="M65.2192 60.9969C65.1117 60.9971 65.0051 60.9762 64.9056 60.9353C64.8062 60.8944 64.7158 60.8342 64.6396 60.7584C64.5634 60.6825 64.5029 60.5923 64.4616 60.4931C64.4202 60.3938 64.3989 60.2874 64.3988 60.1799V47.3229C64.3988 46.8719 64.766 46.5059 65.2192 46.5059C65.3268 46.5056 65.4333 46.5265 65.5328 46.5674C65.6323 46.6083 65.7227 46.6685 65.7989 46.7443C65.8751 46.8202 65.9356 46.9104 65.9769 47.0096C66.0182 47.1089 66.0395 47.2153 66.0397 47.3229V60.1799C66.0397 60.6314 65.6725 60.9969 65.2192 60.9969ZM79.4486 60.9969C79.3411 60.9971 79.2346 60.9761 79.1352 60.9351C79.0358 60.8942 78.9455 60.8341 78.8693 60.7582C78.7932 60.6823 78.7327 60.5922 78.6914 60.4929C78.6502 60.3937 78.6288 60.2873 78.6287 60.1799V47.3229C78.6287 46.8719 78.9959 46.5059 79.4486 46.5059C79.5562 46.5056 79.6627 46.5265 79.7622 46.5674C79.8617 46.6083 79.9521 46.6685 80.0283 46.7443C80.1045 46.8202 80.165 46.9104 80.2063 47.0096C80.2476 47.1089 80.2689 47.2153 80.2691 47.3229V60.1799C80.2691 60.6314 79.9019 60.9969 79.4486 60.9969ZM72.3431 56.4939C70.0795 56.4939 68.2372 54.6586 68.2372 52.4037V47.8976C68.2372 47.4461 68.6044 47.0806 69.0576 47.0806C69.1651 47.0804 69.2716 47.1014 69.371 47.1423C69.4704 47.1833 69.5608 47.2434 69.6369 47.3193C69.7131 47.3951 69.7735 47.4853 69.8148 47.5845C69.8561 47.6837 69.8774 47.7901 69.8775 47.8976V52.4037C69.8775 53.7587 70.9844 54.8594 72.3431 54.8594C73.7023 54.8594 74.8087 53.7582 74.8087 52.4037V47.8976C74.8087 47.4461 75.1759 47.0806 75.6291 47.0806C75.7366 47.0804 75.8431 47.1014 75.9425 47.1423C76.0419 47.1833 76.1323 47.2434 76.2084 47.3193C76.2846 47.3951 76.345 47.4853 76.3863 47.5845C76.4276 47.6837 76.4489 47.7901 76.449 47.8976V52.4037C76.449 54.6586 74.6067 56.4939 72.3431 56.4939Z" fill="#FF0036"/>
<path d="M52.8145 78.1465C51.5801 78.1465 50.6035 77.7578 49.8848 76.9805C49.1699 76.1992 48.8125 75.1289 48.8125 73.7695C48.8125 72.4141 49.1719 71.3477 49.8906 70.5703C50.6094 69.7891 51.584 69.3984 52.8145 69.3984C53.4863 69.3984 54.0957 69.5312 54.6426 69.7969C55.1934 70.0625 55.6348 70.4375 55.9668 70.9219C56.2988 71.4062 56.4863 71.959 56.5293 72.5801H54.8066C54.7246 72.0605 54.5 71.6445 54.1328 71.332C53.7695 71.0195 53.3301 70.8633 52.8145 70.8633C52.1465 70.8633 51.6133 71.125 51.2148 71.6484C50.8164 72.1719 50.6172 72.877 50.6172 73.7637C50.6172 74.666 50.8145 75.3789 51.209 75.9023C51.6035 76.4219 52.1406 76.6816 52.8203 76.6816C53.3438 76.6816 53.7832 76.5371 54.1387 76.248C54.4941 75.959 54.7188 75.5645 54.8125 75.0645H56.5352C56.4375 76.0059 56.0527 76.7559 55.3809 77.3145C54.709 77.8691 53.8535 78.1465 52.8145 78.1465ZM57.5254 78V69.5449H59.207V72.8379H59.2422C59.4102 72.4395 59.6621 72.1348 59.998 71.9238C60.3379 71.709 60.7441 71.6016 61.2168 71.6016C61.9082 71.6016 62.4453 71.8125 62.8281 72.2344C63.2148 72.6523 63.4082 73.2266 63.4082 73.957V78H61.6973V74.3203C61.6973 73.9102 61.5957 73.5918 61.3926 73.3652C61.1934 73.1348 60.9023 73.0195 60.5195 73.0195C60.1211 73.0195 59.8066 73.1484 59.5762 73.4062C59.3496 73.6602 59.2363 73.9961 59.2363 74.4141V78H57.5254ZM64.5332 78V71.7188H66.2441V78H64.5332ZM66.0391 70.7695C65.8633 70.9414 65.6465 71.0273 65.3887 71.0273C65.1309 71.0273 64.9141 70.9414 64.7383 70.7695C64.5625 70.5977 64.4746 70.3887 64.4746 70.1426C64.4746 69.8926 64.5625 69.6836 64.7383 69.5156C64.9141 69.3438 65.1309 69.2578 65.3887 69.2578C65.6465 69.2578 65.8633 69.3438 66.0391 69.5156C66.2148 69.6836 66.3027 69.8926 66.3027 70.1426C66.3027 70.3887 66.2148 70.5977 66.0391 70.7695ZM67.4277 78V69.5449H69.1387V78H67.4277ZM72.625 78.0996C71.8398 78.0996 71.2168 77.8086 70.7559 77.2266C70.2949 76.6445 70.0645 75.8516 70.0645 74.8477C70.0645 73.8516 70.2949 73.0645 70.7559 72.4863C71.2207 71.9082 71.8477 71.6191 72.6367 71.6191C73.082 71.6191 73.4727 71.7266 73.8086 71.9414C74.1484 72.1562 74.3965 72.4414 74.5527 72.7969H74.5879V69.5449H76.2988V78H74.6113V76.9219H74.582C74.4258 77.2773 74.1738 77.5625 73.8262 77.7773C73.4785 77.9922 73.0781 78.0996 72.625 78.0996ZM73.2051 72.9902C72.7754 72.9902 72.4355 73.1582 72.1855 73.4941C71.9395 73.8301 71.8164 74.2852 71.8164 74.8594C71.8164 75.4375 71.9395 75.8926 72.1855 76.2246C72.4355 76.5566 72.7754 76.7227 73.2051 76.7227C73.6309 76.7227 73.9688 76.5566 74.2188 76.2246C74.4727 75.8887 74.5996 75.4336 74.5996 74.8594C74.5996 74.2891 74.4727 73.8359 74.2188 73.5C73.9688 73.1602 73.6309 72.9902 73.2051 72.9902ZM77.4414 78V71.7188H79.0938V72.8496H79.1289C79.2383 72.4512 79.4219 72.1465 79.6797 71.9355C79.9375 71.7246 80.252 71.6191 80.623 71.6191C80.8027 71.6191 80.9648 71.6406 81.1094 71.6836V73.1895C80.9492 73.123 80.7422 73.0898 80.4883 73.0898C80.0664 73.0898 79.7383 73.2129 79.5039 73.459C79.2695 73.7051 79.1523 74.0488 79.1523 74.4902V78H77.4414ZM84.4199 72.8496C84.0488 72.8496 83.7383 72.9766 83.4883 73.2305C83.2422 73.4844 83.1035 73.8086 83.0723 74.2031H85.7383C85.7188 73.8008 85.5879 73.4746 85.3457 73.2246C85.1074 72.9746 84.7988 72.8496 84.4199 72.8496ZM85.7617 76.0781H87.332C87.2383 76.6953 86.9297 77.1934 86.4062 77.5723C85.8867 77.9473 85.2402 78.1348 84.4668 78.1348C83.502 78.1348 82.7441 77.8457 82.1934 77.2676C81.6465 76.6895 81.373 75.8965 81.373 74.8887C81.373 73.8848 81.6465 73.084 82.1934 72.4863C82.7402 71.8848 83.4766 71.584 84.4023 71.584C85.3125 71.584 86.0371 71.8691 86.5762 72.4395C87.1152 73.0098 87.3848 73.7734 87.3848 74.7305V75.252H83.0547V75.3574C83.0547 75.8066 83.1855 76.1719 83.4473 76.4531C83.7129 76.7305 84.0625 76.8691 84.4961 76.8691C84.8086 76.8691 85.0781 76.7988 85.3047 76.6582C85.5312 76.5137 85.6836 76.3203 85.7617 76.0781ZM88.2695 78V71.7188H89.9219V72.8379H89.957C90.1289 72.4395 90.3789 72.1348 90.707 71.9238C91.0391 71.709 91.4434 71.6016 91.9199 71.6016C92.6152 71.6016 93.1523 71.8086 93.5312 72.2227C93.9102 72.6367 94.0996 73.2129 94.0996 73.9512V78H92.3887V74.3086C92.3887 73.8945 92.291 73.5762 92.0957 73.3535C91.9004 73.1309 91.6133 73.0195 91.2344 73.0195C90.8555 73.0195 90.5508 73.1465 90.3203 73.4004C90.0938 73.6543 89.9805 73.9863 89.9805 74.3965V78H88.2695ZM56.6289 92V85.7188H58.2812V86.8555H58.3164C58.4492 86.4727 58.6758 86.168 58.9961 85.9414C59.3164 85.7148 59.6875 85.6016 60.1094 85.6016C60.5625 85.6016 60.9414 85.7148 61.2461 85.9414C61.5508 86.1641 61.7559 86.4805 61.8613 86.8906H61.8965C62.0371 86.4961 62.2812 86.1836 62.6289 85.9531C62.9805 85.7188 63.3867 85.6016 63.8477 85.6016C64.4648 85.6016 64.9609 85.7949 65.3359 86.1816C65.7148 86.5684 65.9043 87.0781 65.9043 87.7109V92H64.1934V88.1387C64.1934 87.7754 64.1055 87.498 63.9297 87.3066C63.7539 87.1113 63.5 87.0137 63.168 87.0137C62.8438 87.0137 62.582 87.1211 62.3828 87.3359C62.1875 87.5508 62.0898 87.834 62.0898 88.1855V92H60.4434V88.0859C60.4434 87.75 60.3535 87.4883 60.1738 87.3008C59.9941 87.1094 59.7461 87.0137 59.4297 87.0137C59.1055 87.0137 58.8418 87.125 58.6387 87.3477C58.4395 87.5703 58.3398 87.8574 58.3398 88.209V92H56.6289ZM69.8066 86.8496C69.4355 86.8496 69.125 86.9766 68.875 87.2305C68.6289 87.4844 68.4902 87.8086 68.459 88.2031H71.125C71.1055 87.8008 70.9746 87.4746 70.7324 87.2246C70.4941 86.9746 70.1855 86.8496 69.8066 86.8496ZM71.1484 90.0781H72.7188C72.625 90.6953 72.3164 91.1934 71.793 91.5723C71.2734 91.9473 70.627 92.1348 69.8535 92.1348C68.8887 92.1348 68.1309 91.8457 67.5801 91.2676C67.0332 90.6895 66.7598 89.8965 66.7598 88.8887C66.7598 87.8848 67.0332 87.084 67.5801 86.4863C68.127 85.8848 68.8633 85.584 69.7891 85.584C70.6992 85.584 71.4238 85.8691 71.9629 86.4395C72.502 87.0098 72.7715 87.7734 72.7715 88.7305V89.252H68.4414V89.3574C68.4414 89.8066 68.5723 90.1719 68.834 90.4531C69.0996 90.7305 69.4492 90.8691 69.8828 90.8691C70.1953 90.8691 70.4648 90.7988 70.6914 90.6582C70.918 90.5137 71.0703 90.3203 71.1484 90.0781ZM73.6562 92V85.7188H75.3086V86.8379H75.3438C75.5156 86.4395 75.7656 86.1348 76.0938 85.9238C76.4258 85.709 76.8301 85.6016 77.3066 85.6016C78.002 85.6016 78.5391 85.8086 78.918 86.2227C79.2969 86.6367 79.4863 87.2129 79.4863 87.9512V92H77.7754V88.3086C77.7754 87.8945 77.6777 87.5762 77.4824 87.3535C77.2871 87.1309 77 87.0195 76.6211 87.0195C76.2422 87.0195 75.9375 87.1465 75.707 87.4004C75.4805 87.6543 75.3672 87.9863 75.3672 88.3965V92H73.6562ZM86.3711 85.7188V92H84.7188V90.8691H84.6836C84.3555 91.7012 83.7285 92.1172 82.8027 92.1172C82.1152 92.1172 81.5664 91.9082 81.1562 91.4902C80.7461 91.0684 80.541 90.4941 80.541 89.7676V85.7188H82.252V89.4102C82.252 89.8281 82.3516 90.1465 82.5508 90.3652C82.7539 90.584 83.0449 90.6934 83.4238 90.6934C83.8027 90.6934 84.1035 90.5684 84.3262 90.3184C84.5488 90.0684 84.6602 89.7344 84.6602 89.3164V85.7188H86.3711Z" fill="#FF0036"/>
<defs>
<filter id="filter0_dd_57_457" x="0" y="0" width="144" height="107" filterUnits="userSpaceOnUse" color-interpolation-filters="sRGB">
<feFlood flood-opacity="0" result="BackgroundImageFix"/>
<feColorMatrix in="SourceAlpha" type="matrix" values="0 0 0 0 0 0 0 0 0 0 0 0 0 0 0 0 0 0 127 0" result="hardAlpha"/>
<feOffset dy="4"/>
<feGaussianBlur stdDeviation="2"/>
<feComposite in2="hardAlpha" operator="out"/>
<feColorMatrix type="matrix" values="0 0 0 0 0.5125 0 0 0 0 0.5125 0 0 0 0 0.5125 0 0 0 0.15 0"/>
<feBlend mode="normal" in2="BackgroundImageFix" result="effect1_dropShadow_57_457"/>
<feColorMatrix in="SourceAlpha" type="matrix" values="0 0 0 0 0 0 0 0 0 0 0 0 0 0 0 0 0 0 127 0" result="hardAlpha"/>
<feOffset/>
<feGaussianBlur stdDeviation="5"/>
<feComposite in2="hardAlpha" operator="out"/>
<feColorMatrix type="matrix" values="0 0 0 0 1 0 0 0 0 0 0 0 0 0 0.211765 0 0 0 0.2 0"/>
<feBlend mode="normal" in2="effect1_dropShadow_57_457" result="effect2_dropShadow_57_457"/>
<feBlend mode="normal" in="SourceGraphic" in2="effect2_dropShadow_57_457" result="shape"/>
</filter>
</defs>
</svg>
