<svg width="132" height="95" viewBox="0 0 132 95" fill="none" xmlns="http://www.w3.org/2000/svg">
<g filter="url(#filter0_d_57_503)">
<rect x="4" width="124" height="87" rx="25" fill="white"/>
</g>
<path d="M82.2885 13.75H82.159C82.4975 12.7739 82.4804 11.7079 82.1106 10.7435C82.0748 10.6511 82.0204 10.5672 81.951 10.4971C81.8816 10.427 81.7986 10.3721 81.7071 10.3359C80.8511 9.99938 79.9104 9.95049 79.0246 10.1965C78.5857 9.24572 77.8205 8.48784 76.8708 8.06325C76.7808 8.02347 76.6837 8.00293 76.5855 8.00293C76.4873 8.00293 76.3901 8.02347 76.3002 8.06325C75.3545 8.48069 74.5905 9.22977 74.1492 10.1721C73.3029 9.96275 72.4136 10.0199 71.6004 10.3359C71.4154 10.4092 71.2696 10.5566 71.197 10.7435C70.8274 11.708 70.8105 12.774 71.1493 13.75H53.2598L50.0949 11.0094C50.234 10.6814 50.2905 10.3236 50.2592 9.96807C50.228 9.61258 50.11 9.27045 49.9158 8.97231C49.7216 8.67417 49.4572 8.4293 49.1464 8.25962C48.8356 8.08994 48.4879 8.00074 48.1346 8C46.9577 8 46 8.96744 46 10.1562C46 11.3451 46.9577 12.3125 48.1346 12.3125C48.4925 12.3125 48.8298 12.2227 49.1265 12.0645L51.0733 13.75H49.5577C49.369 13.75 49.188 13.8257 49.0546 13.9605C48.9211 14.0953 48.8462 14.2781 48.8462 14.4688V15.6899C48.8462 17.8512 49.737 19.9435 51.2903 21.4291L62.5874 32.2406C62.7196 32.3671 62.8948 32.4376 63.0769 32.4375H63.252L64.5277 36.9477C64.5702 37.0977 64.66 37.2298 64.7833 37.3238C64.9067 37.4178 65.057 37.4687 65.2115 37.4688V49.6875H60.9423C58.9806 49.6875 57.3846 51.2997 57.3846 53.2812C57.3846 53.4719 57.4596 53.6547 57.593 53.7895C57.7265 53.9243 57.9074 54 58.0962 54H73.75C73.9387 54 74.1197 53.9243 74.2531 53.7895C74.3866 53.6547 74.4615 53.4719 74.4615 53.2812C74.4615 51.2997 72.8656 49.6875 70.9038 49.6875H66.6346V37.4688C66.7891 37.4687 66.9395 37.4178 67.0628 37.3238C67.1862 37.2298 67.2759 37.0977 67.3184 36.9477L68.5942 32.4375H68.7692C68.9513 32.4376 69.1266 32.3671 69.2588 32.2406L80.5559 21.4291C81.3264 20.6893 81.9404 19.7992 82.3605 18.8127C82.7806 17.8262 82.9982 16.7638 83 15.6899V14.4688C83 14.2781 82.925 14.0953 82.7916 13.9605C82.6582 13.8257 82.4772 13.75 82.2885 13.75ZM47.4231 10.1562C47.4231 9.76022 47.7426 9.4375 48.1346 9.4375C48.5267 9.4375 48.8462 9.76022 48.8462 10.1562C48.8462 10.5523 48.5267 10.875 48.1346 10.875C47.7426 10.875 47.4231 10.5523 47.4231 10.1562ZM72.9168 52.5625H58.9294C59.0771 52.1424 59.3498 51.7787 59.7102 51.5214C60.0706 51.264 60.501 51.1255 60.9423 51.125H70.9038C71.8317 51.125 72.6229 51.7259 72.9168 52.5625ZM80.8846 11.5743C81.0756 12.3089 80.9745 13.0898 80.6028 13.75H77.3767L77.3867 13.7033L77.3924 13.6781C77.4052 13.6206 77.4222 13.5638 77.4386 13.5078L77.4592 13.4402L77.4721 13.3993C77.4804 13.3711 77.4899 13.3433 77.5005 13.3159L77.5012 13.3137C77.5261 13.249 77.5553 13.1858 77.6072 13.0744C77.6243 13.037 77.6407 12.9996 77.6606 12.9637C77.7005 12.8904 77.7474 12.8207 77.7944 12.7495L77.7958 12.7473L77.8719 12.628L77.8727 12.6273C77.9536 12.5171 78.0423 12.4128 78.1381 12.3154L78.1402 12.3132L78.2099 12.2449L78.2391 12.2183L78.2818 12.181L78.3537 12.1213L78.3579 12.1177C78.3995 12.0844 78.442 12.0523 78.4853 12.0214L78.496 12.0135L78.523 11.9962L78.6105 11.938L78.6525 11.9122L78.6995 11.8834L78.7486 11.8554L78.7912 11.8317L78.8411 11.8051C78.8617 11.7943 78.8816 11.7835 78.903 11.7734L78.9215 11.7641C79.5329 11.4679 80.2286 11.4006 80.8846 11.5743ZM76.5848 9.52663C77.0845 9.82267 77.4841 10.2644 77.7311 10.7938L77.6734 10.8333C77.3091 11.0911 76.9881 11.4063 76.7228 11.767C76.6788 11.828 76.6373 11.8909 76.5983 11.9553C76.5286 12.0585 76.4631 12.1645 76.4019 12.273C76.3594 12.3543 76.3195 12.437 76.2824 12.5209C76.2386 12.6133 76.1982 12.7073 76.1614 12.8027C76.1261 12.8975 76.0946 12.9936 76.0668 13.0909C76.0003 13.3061 75.952 13.5266 75.9223 13.75H75.7608C75.3799 13.2523 75.1732 12.6411 75.1731 12.0121C75.1731 11.7727 75.2072 11.5291 75.2777 11.2646C75.2892 11.2213 75.2965 11.177 75.2997 11.1323C75.5167 10.4549 75.9745 9.88282 76.5848 9.52663ZM72.423 11.5751C72.862 11.461 73.3216 11.4546 73.7635 11.5564C73.6836 12.3049 73.8012 13.0615 74.1043 13.7493H72.7047C72.3331 13.0896 72.232 12.3091 72.423 11.5751ZM66.0981 36.0312H65.7487L64.732 32.4375H67.1149L66.0981 36.0312ZM81.5769 15.6899C81.5762 16.5022 81.4239 17.3072 81.1279 18.0625H77.3077V19.5H80.346C80.1183 19.817 79.8614 20.1138 79.5768 20.3855L68.486 31H63.3608L52.2687 20.3855C51.986 20.1147 51.7285 19.8183 51.4995 19.5H54.5385V18.0625H50.7182C50.4223 17.3072 50.27 16.5022 50.2692 15.6899V15.1875H52.7333L57.7496 19.5302C57.51 19.9597 57.3843 20.4445 57.3846 20.9375C57.3851 21.3762 57.4849 21.8091 57.6764 22.2029C57.8679 22.5967 58.146 22.9411 58.4894 23.2097C58.8328 23.4783 59.2325 23.664 59.6579 23.7527C60.0833 23.8413 60.5231 23.8306 60.9437 23.7212L60.9423 23.8125C60.9423 25.3981 62.2188 26.6875 63.7885 26.6875C64.3812 26.6875 64.9319 26.5035 65.3887 26.1887L68.311 28.6748L69.2275 27.5752L66.3287 25.1091C66.5743 24.6156 66.6741 24.061 66.6162 23.5117C66.5583 22.9624 66.3451 22.4416 66.0021 22.0113C65.6591 21.5811 65.2008 21.2597 64.6818 21.0855C64.1629 20.9112 63.6052 20.8916 63.0755 21.0288L63.0769 20.9375C63.0769 19.3519 61.8004 18.0625 60.2308 18.0625C59.6829 18.0625 59.1713 18.2199 58.7365 18.4916L54.9206 15.1875H81.5769V15.6899ZM63.7885 25.25C63.0036 25.25 62.3654 24.6053 62.3654 23.8125C62.3654 23.0197 63.0036 22.375 63.7885 22.375C64.5733 22.375 65.2115 23.0197 65.2115 23.8125C65.2115 24.6053 64.5733 25.25 63.7885 25.25ZM60.2308 22.375C59.4459 22.375 58.8077 21.7303 58.8077 20.9375C58.8077 20.1447 59.4459 19.5 60.2308 19.5C61.0156 19.5 61.6538 20.1447 61.6538 20.9375C61.6538 21.7303 61.0156 22.375 60.2308 22.375Z" fill="#A8A8A8"/>
<path d="M63.7885 18.0625H75.8846V19.5H63.7885V18.0625ZM68.7692 20.9375H70.1923V22.375H68.7692V20.9375ZM71.6154 23.0938H73.0385V24.5312H71.6154V23.0938ZM74.4615 20.9375H75.8846V22.375H74.4615V20.9375Z" fill="#A8A8A8"/>
<path d="M44.3477 68.1465C43.1133 68.1465 42.1367 67.7578 41.418 66.9805C40.7031 66.1992 40.3457 65.1289 40.3457 63.7695C40.3457 62.4141 40.7051 61.3477 41.4238 60.5703C42.1426 59.7891 43.1172 59.3984 44.3477 59.3984C45.0195 59.3984 45.6289 59.5312 46.1758 59.7969C46.7266 60.0625 47.168 60.4375 47.5 60.9219C47.832 61.4062 48.0195 61.959 48.0625 62.5801H46.3398C46.2578 62.0605 46.0332 61.6445 45.666 61.332C45.3027 61.0195 44.8633 60.8633 44.3477 60.8633C43.6797 60.8633 43.1465 61.125 42.748 61.6484C42.3496 62.1719 42.1504 62.877 42.1504 63.7637C42.1504 64.666 42.3477 65.3789 42.7422 65.9023C43.1367 66.4219 43.6738 66.6816 44.3535 66.6816C44.877 66.6816 45.3164 66.5371 45.6719 66.248C46.0273 65.959 46.252 65.5645 46.3457 65.0645H48.0684C47.9707 66.0059 47.5859 66.7559 46.9141 67.3145C46.2422 67.8691 45.3867 68.1465 44.3477 68.1465ZM54.1738 67.2676C53.6152 67.8457 52.8574 68.1348 51.9004 68.1348C50.9434 68.1348 50.1855 67.8438 49.627 67.2617C49.0684 66.6797 48.7891 65.877 48.7891 64.8535C48.7891 63.8418 49.0703 63.0449 49.6328 62.4629C50.1992 61.877 50.9551 61.584 51.9004 61.584C52.8496 61.584 53.6055 61.877 54.168 62.4629C54.7305 63.0449 55.0117 63.8418 55.0117 64.8535C55.0117 65.8809 54.7324 66.6855 54.1738 67.2676ZM51.9004 66.8281C52.3223 66.8281 52.6562 66.6562 52.9023 66.3125C53.1484 65.9688 53.2715 65.4844 53.2715 64.8594C53.2715 64.2422 53.1484 63.7598 52.9023 63.4121C52.6562 63.0645 52.3223 62.8906 51.9004 62.8906C51.4785 62.8906 51.1426 63.0645 50.8926 63.4121C50.6465 63.7598 50.5234 64.2422 50.5234 64.8594C50.5234 65.4844 50.6465 65.9688 50.8926 66.3125C51.1387 66.6562 51.4746 66.8281 51.9004 66.8281ZM61.6035 64.0566H60.0156C59.9648 63.7168 59.8301 63.4434 59.6113 63.2363C59.3965 63.0293 59.1172 62.9258 58.7734 62.9258C58.3477 62.9258 58.0117 63.0977 57.7656 63.4414C57.5234 63.7812 57.4023 64.252 57.4023 64.8535C57.4023 65.4668 57.5234 65.9434 57.7656 66.2832C58.0117 66.623 58.3496 66.793 58.7793 66.793C59.1191 66.793 59.3965 66.6973 59.6113 66.5059C59.8262 66.3105 59.9609 66.041 60.0156 65.6973H61.6094C61.5664 66.4395 61.2871 67.0312 60.7715 67.4727C60.2559 67.9141 59.5859 68.1348 58.7617 68.1348C57.8086 68.1348 57.0547 67.8438 56.5 67.2617C55.9453 66.6758 55.668 65.873 55.668 64.8535C55.668 63.8496 55.9453 63.0547 56.5 62.4688C57.0586 61.8789 57.8086 61.584 58.75 61.584C59.5859 61.584 60.2598 61.8145 60.7715 62.2754C61.2871 62.7363 61.5645 63.3301 61.6035 64.0566ZM64.2109 64.2383L66.3438 61.7188H68.2832L65.8867 64.4141L68.4004 68H66.4316L64.6328 65.4453L64.1875 65.9258V68H62.4766V59.5449H64.1875V64.2383H64.2109ZM69.3496 60.2715H71.0605V61.7188H72.2207V63.0078H71.0605V66.0137C71.0605 66.4863 71.3066 66.7227 71.7988 66.7227C71.959 66.7227 72.0977 66.7129 72.2148 66.6934V67.9531C72.0156 68 71.7441 68.0234 71.4004 68.0234C70.6621 68.0234 70.1348 67.8906 69.8184 67.625C69.5059 67.3594 69.3496 66.9199 69.3496 66.3066V63.0078H68.4648V61.7188H69.3496V60.2715ZM75.5254 66.8633C75.9043 66.8633 76.2246 66.7539 76.4863 66.5352C76.752 66.3125 76.8848 66.0332 76.8848 65.6973V65.2402L75.5605 65.3223C75.2402 65.3457 74.9922 65.4258 74.8164 65.5625C74.6445 65.6992 74.5586 65.8789 74.5586 66.1016C74.5586 66.3359 74.6465 66.5215 74.8223 66.6582C74.998 66.7949 75.2324 66.8633 75.5254 66.8633ZM74.9629 68.0996C74.3574 68.0996 73.8555 67.9219 73.457 67.5664C73.0586 67.2109 72.8594 66.7539 72.8594 66.1953C72.8594 65.625 73.0703 65.1777 73.4922 64.8535C73.9141 64.5293 74.5176 64.3438 75.3027 64.2969L76.8848 64.2031V63.7871C76.8848 63.498 76.7891 63.2715 76.5977 63.1074C76.4102 62.9434 76.1543 62.8613 75.8301 62.8613C75.5176 62.8613 75.2617 62.9316 75.0625 63.0723C74.8672 63.2129 74.748 63.4023 74.7051 63.6406H73.1406C73.1719 63.0234 73.4355 62.5273 73.9316 62.1523C74.4277 61.7734 75.0859 61.584 75.9062 61.584C76.7109 61.584 77.3555 61.7754 77.8398 62.1582C78.3242 62.541 78.5664 63.0488 78.5664 63.6816V68H76.9141V67.0391H76.8789C76.707 67.3672 76.4453 67.627 76.0938 67.8184C75.7422 68.0059 75.3652 68.0996 74.9629 68.0996ZM79.7031 68V61.7188H81.4141V68H79.7031ZM81.209 60.7695C81.0332 60.9414 80.8164 61.0273 80.5586 61.0273C80.3008 61.0273 80.084 60.9414 79.9082 60.7695C79.7324 60.5977 79.6445 60.3887 79.6445 60.1426C79.6445 59.8926 79.7324 59.6836 79.9082 59.5156C80.084 59.3438 80.3008 59.2578 80.5586 59.2578C80.8164 59.2578 81.0332 59.3438 81.209 59.5156C81.3848 59.6836 81.4727 59.8926 81.4727 60.1426C81.4727 60.3887 81.3848 60.5977 81.209 60.7695ZM82.5977 68V59.5449H84.3086V68H82.5977ZM85.3574 63.5645C85.3574 62.9668 85.5977 62.4883 86.0781 62.1289C86.5586 61.7656 87.2012 61.584 88.0059 61.584C88.791 61.584 89.4219 61.7676 89.8984 62.1348C90.375 62.502 90.6191 62.9902 90.6309 63.5996H89.0547C89.0352 63.3457 88.9297 63.1465 88.7383 63.002C88.5508 62.8574 88.2988 62.7852 87.9824 62.7852C87.6855 62.7852 87.4473 62.8477 87.2676 62.9727C87.0918 63.0938 87.0039 63.2559 87.0039 63.459C87.0039 63.7637 87.2773 63.9805 87.8242 64.1094L89.0254 64.3672C89.6543 64.5078 90.1055 64.7129 90.3789 64.9824C90.6562 65.248 90.7949 65.6152 90.7949 66.084C90.7949 66.7012 90.5371 67.1973 90.0215 67.5723C89.5059 67.9473 88.832 68.1348 88 68.1348C87.1719 68.1348 86.5098 67.9512 86.0137 67.584C85.5176 67.2168 85.2461 66.7227 85.1992 66.1016H86.8691C86.9121 66.3672 87.0332 66.5723 87.2324 66.7168C87.4355 66.8613 87.707 66.9336 88.0469 66.9336C88.3711 66.9336 88.625 66.875 88.8086 66.7578C88.9961 66.6367 89.0898 66.4727 89.0898 66.2656C89.0898 66.1055 89.0312 65.9785 88.9141 65.8848C88.7969 65.7871 88.5977 65.7051 88.3164 65.6387L87.1562 65.3809C85.957 65.1074 85.3574 64.502 85.3574 63.5645Z" fill="#A8A8A8"/>
<defs>
<filter id="filter0_d_57_503" x="0" y="0" width="132" height="95" filterUnits="userSpaceOnUse" color-interpolation-filters="sRGB">
<feFlood flood-opacity="0" result="BackgroundImageFix"/>
<feColorMatrix in="SourceAlpha" type="matrix" values="0 0 0 0 0 0 0 0 0 0 0 0 0 0 0 0 0 0 127 0" result="hardAlpha"/>
<feOffset dy="4"/>
<feGaussianBlur stdDeviation="2"/>
<feComposite in2="hardAlpha" operator="out"/>
<feColorMatrix type="matrix" values="0 0 0 0 0.5125 0 0 0 0 0.5125 0 0 0 0 0.5125 0 0 0 0.15 0"/>
<feBlend mode="normal" in2="BackgroundImageFix" result="effect1_dropShadow_57_503"/>
<feBlend mode="normal" in="SourceGraphic" in2="effect1_dropShadow_57_503" result="shape"/>
</filter>
</defs>
</svg>
