<svg width="132" height="95" viewBox="0 0 132 95" fill="none" xmlns="http://www.w3.org/2000/svg">
<g filter="url(#filter0_d_57_362)">
<rect x="4" width="124" height="87" rx="25" fill="white"/>
</g>
<path d="M48.6543 61.5449H51.8828C53.1562 61.5449 54.1465 61.9102 54.8535 62.6406C55.5605 63.3711 55.9141 64.4043 55.9141 65.7402C55.9141 67.0801 55.5586 68.125 54.8477 68.875C54.1406 69.625 53.1523 70 51.8828 70H48.6543V61.5449ZM50.4238 63.0039V68.5352H51.6719C52.4648 68.5352 53.0684 68.2988 53.4824 67.8262C53.9004 67.3496 54.1094 66.6562 54.1094 65.7461C54.1094 64.8633 53.8984 64.1855 53.4766 63.7129C53.0547 63.2402 52.4531 63.0039 51.6719 63.0039H50.4238ZM56.9102 70V63.7188H58.5625V64.8496H58.5977C58.707 64.4512 58.8906 64.1465 59.1484 63.9355C59.4062 63.7246 59.7207 63.6191 60.0918 63.6191C60.2715 63.6191 60.4336 63.6406 60.5781 63.6836V65.1895C60.418 65.123 60.2109 65.0898 59.957 65.0898C59.5352 65.0898 59.207 65.2129 58.9727 65.459C58.7383 65.7051 58.6211 66.0488 58.6211 66.4902V70H56.9102ZM61.3105 70V63.7188H63.0215V70H61.3105ZM62.8164 62.7695C62.6406 62.9414 62.4238 63.0273 62.166 63.0273C61.9082 63.0273 61.6914 62.9414 61.5156 62.7695C61.3398 62.5977 61.252 62.3887 61.252 62.1426C61.252 61.8926 61.3398 61.6836 61.5156 61.5156C61.6914 61.3438 61.9082 61.2578 62.166 61.2578C62.4238 61.2578 62.6406 61.3438 62.8164 61.5156C62.9922 61.6836 63.0801 61.8926 63.0801 62.1426C63.0801 62.3887 62.9922 62.5977 62.8164 62.7695ZM64.1641 70V63.7188H65.8164V64.8379H65.8516C66.0234 64.4395 66.2734 64.1348 66.6016 63.9238C66.9336 63.709 67.3379 63.6016 67.8145 63.6016C68.5098 63.6016 69.0469 63.8086 69.4258 64.2227C69.8047 64.6367 69.9941 65.2129 69.9941 65.9512V70H68.2832V66.3086C68.2832 65.8945 68.1855 65.5762 67.9902 65.3535C67.7949 65.1309 67.5078 65.0195 67.1289 65.0195C66.75 65.0195 66.4453 65.1465 66.2148 65.4004C65.9883 65.6543 65.875 65.9863 65.875 66.3965V70H64.1641ZM72.8535 66.2383L74.9863 63.7188H76.9258L74.5293 66.4141L77.043 70H75.0742L73.2754 67.4453L72.8301 67.9258V70H71.1191V61.5449H72.8301V66.2383H72.8535ZM77.3125 65.5645C77.3125 64.9668 77.5527 64.4883 78.0332 64.1289C78.5137 63.7656 79.1562 63.584 79.9609 63.584C80.7461 63.584 81.377 63.7676 81.8535 64.1348C82.3301 64.502 82.5742 64.9902 82.5859 65.5996H81.0098C80.9902 65.3457 80.8848 65.1465 80.6934 65.002C80.5059 64.8574 80.2539 64.7852 79.9375 64.7852C79.6406 64.7852 79.4023 64.8477 79.2227 64.9727C79.0469 65.0938 78.959 65.2559 78.959 65.459C78.959 65.7637 79.2324 65.9805 79.7793 66.1094L80.9805 66.3672C81.6094 66.5078 82.0605 66.7129 82.334 66.9824C82.6113 67.248 82.75 67.6152 82.75 68.084C82.75 68.7012 82.4922 69.1973 81.9766 69.5723C81.4609 69.9473 80.7871 70.1348 79.9551 70.1348C79.127 70.1348 78.4648 69.9512 77.9688 69.584C77.4727 69.2168 77.2012 68.7227 77.1543 68.1016H78.8242C78.8672 68.3672 78.9883 68.5723 79.1875 68.7168C79.3906 68.8613 79.6621 68.9336 80.002 68.9336C80.3262 68.9336 80.5801 68.875 80.7637 68.7578C80.9512 68.6367 81.0449 68.4727 81.0449 68.2656C81.0449 68.1055 80.9863 67.9785 80.8691 67.8848C80.752 67.7871 80.5527 67.7051 80.2715 67.6387L79.1113 67.3809C77.9121 67.1074 77.3125 66.502 77.3125 65.5645Z" fill="#A8A8A8"/>
<path d="M77.6182 22.4221H77.4708C77.005 19.9929 75.5093 17.7815 73.253 16.186C70.9967 14.5905 68.1281 13.7158 65.1636 13.7194C64.0271 13.7194 62.9259 13.8507 61.8752 14.0867L61.3813 11.8239C60.8271 9.1156 57.7912 8.31348 56.4112 8.37195L47.7576 8.00199C47.3681 7.97435 47.0215 8.23853 47.001 8.5681C46.9961 8.6465 47.0098 8.72493 47.0414 8.79892C47.0731 8.87291 47.122 8.941 47.1853 8.9993C47.2487 9.0576 47.3253 9.10497 47.4107 9.1387C47.4961 9.17243 47.5888 9.19185 47.6833 9.19587L56.3735 9.56743C56.3984 9.56849 56.4253 9.56796 56.4529 9.56743C57.2639 9.52225 59.5536 10.0395 59.961 12.0312L60.494 14.4705C58.5016 15.1358 56.7509 16.2179 55.4123 17.6113C54.0737 19.0048 53.1929 20.6622 52.8557 22.4221H52.7109C52.3448 22.4227 51.9939 22.5436 51.735 22.7584C51.4762 22.9732 51.3304 23.2644 51.3297 23.5681V26.7474C51.3304 27.0512 51.4762 27.3423 51.735 27.5571C51.9939 27.7719 52.3448 27.8929 52.7109 27.8934H52.9313L55.0973 43.8981C55.0883 43.9353 55.0704 43.9699 55.0704 44.0092C55.0704 44.1028 55.1012 44.1884 55.1473 44.267L56.1915 51.981C56.2292 52.2613 56.3902 52.5203 56.6436 52.7083C56.897 52.8963 57.2251 53.0002 57.565 53H72.6987C73.4028 53 73.9928 52.562 74.0716 51.981L77.3331 27.8934H77.6188C77.9849 27.8929 78.3358 27.7719 78.5947 27.5571C78.8536 27.3423 78.9993 27.0512 79 26.7474V23.5681C78.9993 23.2643 78.8535 22.973 78.5945 22.7582C78.3355 22.5434 77.9844 22.4225 77.6182 22.4221ZM65.1636 14.9154C70.5436 14.9154 75.0787 18.0984 76.0223 22.4221H63.6972L62.134 15.2673C63.1194 15.0341 64.139 14.9157 65.1636 14.9154ZM60.7579 15.6788L62.2314 22.4221H54.3036C54.973 19.355 57.4548 16.8689 60.7579 15.6788ZM73.7808 43.4117H56.4824L54.9807 32.3197H75.0101C75.1088 32.3197 75.203 32.3032 75.2888 32.2729L73.7808 43.4117ZM72.6443 51.8045H57.6176L56.6438 44.6078H73.6187L72.6443 51.8045ZM77.5579 26.698H76.688C76.3215 26.698 76.0127 26.9271 75.9717 27.229L75.4272 31.2476C75.3078 31.1702 75.1615 31.127 75.0101 31.1242H54.8302C54.8263 31.1242 54.8231 31.1258 54.8193 31.1258L54.3817 27.8945H74.2843C74.4754 27.8945 74.6588 27.8315 74.7939 27.7193C74.9291 27.6072 75.005 27.4551 75.005 27.2965C75.005 27.1379 74.9291 26.9858 74.7939 26.8736C74.6588 26.7615 74.4754 26.6985 74.2843 26.6985H52.7712V23.6186H77.5586L77.5579 26.698Z" fill="#A8A8A8"/>
<path d="M67.6192 17.477C69.2161 17.8455 70.5717 18.7245 71.3887 19.9211C71.4825 20.0593 71.6386 20.161 71.8227 20.2037C72.0068 20.2464 72.2039 20.2267 72.3705 20.1489C72.5371 20.0711 72.6596 19.9415 72.711 19.7888C72.7625 19.636 72.7388 19.4725 72.645 19.3343C71.6385 17.8605 69.969 16.7779 68.0023 16.3235C67.8217 16.2906 67.6327 16.3164 67.4744 16.3957C67.316 16.4749 67.2004 16.6015 67.1513 16.7495C67.1021 16.8974 67.1233 17.0553 67.2103 17.1907C67.2974 17.326 67.4437 17.4285 67.6192 17.477ZM72.2196 20.5473C72.1203 20.6311 72.0529 20.7373 72.0258 20.8527C71.9986 20.968 72.0128 21.0875 72.0667 21.1962C72.1206 21.3049 72.2118 21.398 72.329 21.4641C72.4461 21.5302 72.5841 21.5663 72.7257 21.5679C72.9167 21.568 73.1 21.5055 73.2357 21.394C73.3715 21.2825 73.4486 21.131 73.4502 20.9725C73.4502 20.8131 73.3734 20.6589 73.2388 20.5473C72.9698 20.324 72.4893 20.324 72.2196 20.5473Z" fill="#A8A8A8"/>
<defs>
<filter id="filter0_d_57_362" x="0" y="0" width="132" height="95" filterUnits="userSpaceOnUse" color-interpolation-filters="sRGB">
<feFlood flood-opacity="0" result="BackgroundImageFix"/>
<feColorMatrix in="SourceAlpha" type="matrix" values="0 0 0 0 0 0 0 0 0 0 0 0 0 0 0 0 0 0 127 0" result="hardAlpha"/>
<feOffset dy="4"/>
<feGaussianBlur stdDeviation="2"/>
<feComposite in2="hardAlpha" operator="out"/>
<feColorMatrix type="matrix" values="0 0 0 0 0.5125 0 0 0 0 0.5125 0 0 0 0 0.5125 0 0 0 0.15 0"/>
<feBlend mode="normal" in2="BackgroundImageFix" result="effect1_dropShadow_57_362"/>
<feBlend mode="normal" in="SourceGraphic" in2="effect1_dropShadow_57_362" result="shape"/>
</filter>
</defs>
</svg>
