<svg width="154" height="117" viewBox="0 0 154 117" fill="none" xmlns="http://www.w3.org/2000/svg">
<g filter="url(#filter0_dd_57_378)">
<rect x="15" y="15" width="124" height="87" rx="25" fill="white"/>
<rect x="16" y="16" width="122" height="85" rx="24" stroke="#FF0036" stroke-width="2"/>
</g>
<path d="M76.5 31.5333C73.3058 31.5333 70.1834 32.4743 67.5275 34.2373C64.8717 36.0003 62.8017 38.5061 61.5793 41.4378C60.357 44.3696 60.0372 47.5956 60.6603 50.7079C61.2835 53.8202 62.8216 56.6791 65.0802 58.9229C67.3388 61.1668 70.2165 62.6949 73.3493 63.3139C76.4821 63.933 79.7293 63.6153 82.6803 62.4009C85.6314 61.1865 88.1537 59.1301 89.9282 56.4916C91.7028 53.8531 92.65 50.7511 92.65 47.5778C92.6453 43.324 90.9422 39.2457 87.9146 36.2378C84.8869 33.2299 80.7818 31.538 76.5 31.5333ZM76.5 61.9333C73.6421 61.9333 70.8483 61.0914 68.472 59.514C66.0957 57.9366 64.2436 55.6945 63.1499 53.0714C62.0563 50.4483 61.7701 47.5619 62.3277 44.7771C62.8852 41.9924 64.2614 39.4345 66.2823 37.4269C68.3032 35.4192 70.8779 34.052 73.6809 33.4981C76.484 32.9441 79.3894 33.2284 82.0298 34.315C84.6702 35.4015 86.9269 37.2415 88.5147 39.6023C90.1025 41.963 90.95 44.7385 90.95 47.5778C90.9457 51.3838 89.4219 55.0327 86.713 57.724C84.004 60.4153 80.3311 61.9291 76.5 61.9333Z" fill="#FF0036"/>
<path d="M60.35 29.8444H58.65V37.4444H57.8V29.8444H56.1V37.4444H55.25V29.8444H53.55V37.4444H52.7V29.8444H51V42.5111C51.0006 43.0349 51.1644 43.5457 51.4687 43.9734C51.7731 44.4011 52.2032 44.7248 52.7 44.9V64.4667C52.7 65.1385 52.9687 65.7829 53.4469 66.258C53.9251 66.7331 54.5737 67 55.25 67H56.1C56.7763 67 57.4249 66.7331 57.9031 66.258C58.3813 65.7829 58.65 65.1385 58.65 64.4667V44.9C59.1468 44.7248 59.5769 44.4011 59.8813 43.9734C60.1856 43.5457 60.3494 43.0349 60.35 42.5111V29.8444ZM58.65 42.5111C58.65 42.7351 58.5604 42.9499 58.401 43.1082C58.2416 43.2666 58.0254 43.3556 57.8 43.3556C57.5746 43.3556 57.3584 43.4445 57.199 43.6029C57.0396 43.7613 56.95 43.976 56.95 44.2V64.4667C56.95 64.6906 56.8604 64.9054 56.701 65.0638C56.5416 65.2221 56.3254 65.3111 56.1 65.3111H55.25C55.0246 65.3111 54.8084 65.2221 54.649 65.0638C54.4896 64.9054 54.4 64.6906 54.4 64.4667V44.2C54.4 43.976 54.3104 43.7613 54.151 43.6029C53.9916 43.4445 53.7754 43.3556 53.55 43.3556C53.3246 43.3556 53.1084 43.2666 52.949 43.1082C52.7896 42.9499 52.7 42.7351 52.7 42.5111V39.1333H58.65V42.5111ZM101.15 29C99.1218 29.0022 97.1773 29.8037 95.7431 31.2285C94.309 32.6532 93.5023 34.585 93.5 36.6V47.5778C93.5 48.2497 93.7687 48.894 94.2469 49.3691C94.7251 49.8442 95.3737 50.1111 96.05 50.1111V66.1556C96.05 66.3795 96.1396 66.5943 96.299 66.7527C96.4584 66.911 96.6746 67 96.9 67H101.15C101.375 67 101.592 66.911 101.751 66.7527C101.91 66.5943 102 66.3795 102 66.1556V29.8444C102 29.6205 101.91 29.4057 101.751 29.2473C101.592 29.089 101.375 29 101.15 29ZM100.3 65.3111H97.75V49.2667C97.75 49.0427 97.6604 48.8279 97.501 48.6696C97.3416 48.5112 97.1254 48.4222 96.9 48.4222H96.05C95.8246 48.4222 95.6084 48.3333 95.449 48.1749C95.2896 48.0165 95.2 47.8017 95.2 47.5778V36.6C95.2018 35.179 95.718 33.806 96.6543 32.7318C97.5906 31.6576 98.8846 30.9538 100.3 30.7488V65.3111Z" fill="#FF0036"/>
<path d="M97.75 34.0667H96.05V46.7333H97.75V34.0667Z" fill="#FF0036"/>
<path d="M76.5 39.1333C74.8189 39.1333 73.1755 39.6286 71.7777 40.5565C70.3798 41.4844 69.2904 42.8032 68.647 44.3462C68.0037 45.8892 67.8354 47.5871 68.1633 49.2252C68.4913 50.8633 69.3008 52.3679 70.4896 53.5489C71.6783 54.7299 73.1929 55.5341 74.8417 55.86C76.4906 56.1858 78.1996 56.0186 79.7528 55.3794C81.306 54.7403 82.6335 53.6579 83.5675 52.2693C84.5015 50.8806 85 49.2479 85 47.5778C84.9975 45.3389 84.1012 43.1925 82.5077 41.6094C80.9142 40.0263 78.7536 39.1358 76.5 39.1333ZM76.5 54.3333C75.1551 54.3333 73.8404 53.9371 72.7221 53.1948C71.6039 52.4525 70.7323 51.3974 70.2176 50.163C69.7029 48.9286 69.5683 47.5703 69.8307 46.2598C70.093 44.9494 70.7407 43.7457 71.6917 42.8009C72.6427 41.8561 73.8543 41.2127 75.1734 40.952C76.4925 40.6914 77.8597 40.8251 79.1022 41.3365C80.3448 41.8478 81.4068 42.7136 82.154 43.8246C82.9012 44.9355 83.3 46.2417 83.3 47.5778C83.298 49.3688 82.5809 51.086 81.3061 52.3525C80.0313 53.6189 78.3029 54.3313 76.5 54.3333Z" fill="#FF0036"/>
<path d="M60.1348 74.5449H63.5742C64.4453 74.5449 65.1504 74.8105 65.6895 75.3418C66.2324 75.873 66.5039 76.5723 66.5039 77.4395C66.5039 78.3027 66.2246 79.002 65.666 79.5371C65.1074 80.0684 64.3809 80.334 63.4863 80.334H61.9043V83H60.1348V74.5449ZM61.9043 75.9453V78.9512H63.0996C63.6074 78.9512 64.002 78.8203 64.2832 78.5586C64.5645 78.2969 64.7051 77.9258 64.7051 77.4453C64.7051 76.9648 64.5645 76.5957 64.2832 76.3379C64.0059 76.0762 63.6133 75.9453 63.1055 75.9453H61.9043ZM67.4473 83V74.5449H69.1582V83H67.4473ZM72.7383 81.8633C73.1172 81.8633 73.4375 81.7539 73.6992 81.5352C73.9648 81.3125 74.0977 81.0332 74.0977 80.6973V80.2402L72.7734 80.3223C72.4531 80.3457 72.2051 80.4258 72.0293 80.5625C71.8574 80.6992 71.7715 80.8789 71.7715 81.1016C71.7715 81.3359 71.8594 81.5215 72.0352 81.6582C72.2109 81.7949 72.4453 81.8633 72.7383 81.8633ZM72.1758 83.0996C71.5703 83.0996 71.0684 82.9219 70.6699 82.5664C70.2715 82.2109 70.0723 81.7539 70.0723 81.1953C70.0723 80.625 70.2832 80.1777 70.7051 79.8535C71.127 79.5293 71.7305 79.3438 72.5156 79.2969L74.0977 79.2031V78.7871C74.0977 78.498 74.002 78.2715 73.8105 78.1074C73.623 77.9434 73.3672 77.8613 73.043 77.8613C72.7305 77.8613 72.4746 77.9316 72.2754 78.0723C72.0801 78.2129 71.9609 78.4023 71.918 78.6406H70.3535C70.3848 78.0234 70.6484 77.5273 71.1445 77.1523C71.6406 76.7734 72.2988 76.584 73.1191 76.584C73.9238 76.584 74.5684 76.7754 75.0527 77.1582C75.5371 77.541 75.7793 78.0488 75.7793 78.6816V83H74.127V82.0391H74.0918C73.9199 82.3672 73.6582 82.627 73.3066 82.8184C72.9551 83.0059 72.5781 83.0996 72.1758 83.0996ZM77.3438 75.2715H79.0547V76.7188H80.2148V78.0078H79.0547V81.0137C79.0547 81.4863 79.3008 81.7227 79.793 81.7227C79.9531 81.7227 80.0918 81.7129 80.209 81.6934V82.9531C80.0098 83 79.7383 83.0234 79.3945 83.0234C78.6562 83.0234 78.1289 82.8906 77.8125 82.625C77.5 82.3594 77.3438 81.9199 77.3438 81.3066V78.0078H76.459V76.7188H77.3438V75.2715ZM86.2148 82.2676C85.6562 82.8457 84.8984 83.1348 83.9414 83.1348C82.9844 83.1348 82.2266 82.8438 81.668 82.2617C81.1094 81.6797 80.8301 80.877 80.8301 79.8535C80.8301 78.8418 81.1113 78.0449 81.6738 77.4629C82.2402 76.877 82.9961 76.584 83.9414 76.584C84.8906 76.584 85.6465 76.877 86.209 77.4629C86.7715 78.0449 87.0527 78.8418 87.0527 79.8535C87.0527 80.8809 86.7734 81.6855 86.2148 82.2676ZM83.9414 81.8281C84.3633 81.8281 84.6973 81.6562 84.9434 81.3125C85.1895 80.9688 85.3125 80.4844 85.3125 79.8594C85.3125 79.2422 85.1895 78.7598 84.9434 78.4121C84.6973 78.0645 84.3633 77.8906 83.9414 77.8906C83.5195 77.8906 83.1836 78.0645 82.9336 78.4121C82.6875 78.7598 82.5645 79.2422 82.5645 79.8594C82.5645 80.4844 82.6875 80.9688 82.9336 81.3125C83.1797 81.6562 83.5156 81.8281 83.9414 81.8281ZM87.832 78.5645C87.832 77.9668 88.0723 77.4883 88.5527 77.1289C89.0332 76.7656 89.6758 76.584 90.4805 76.584C91.2656 76.584 91.8965 76.7676 92.373 77.1348C92.8496 77.502 93.0938 77.9902 93.1055 78.5996H91.5293C91.5098 78.3457 91.4043 78.1465 91.2129 78.002C91.0254 77.8574 90.7734 77.7852 90.457 77.7852C90.1602 77.7852 89.9219 77.8477 89.7422 77.9727C89.5664 78.0938 89.4785 78.2559 89.4785 78.459C89.4785 78.7637 89.752 78.9805 90.2988 79.1094L91.5 79.3672C92.1289 79.5078 92.5801 79.7129 92.8535 79.9824C93.1309 80.248 93.2695 80.6152 93.2695 81.084C93.2695 81.7012 93.0117 82.1973 92.4961 82.5723C91.9805 82.9473 91.3066 83.1348 90.4746 83.1348C89.6465 83.1348 88.9844 82.9512 88.4883 82.584C87.9922 82.2168 87.7207 81.7227 87.6738 81.1016H89.3438C89.3867 81.3672 89.5078 81.5723 89.707 81.7168C89.9102 81.8613 90.1816 81.9336 90.5215 81.9336C90.8457 81.9336 91.0996 81.875 91.2832 81.7578C91.4707 81.6367 91.5645 81.4727 91.5645 81.2656C91.5645 81.1055 91.5059 80.9785 91.3887 80.8848C91.2715 80.7871 91.0723 80.7051 90.791 80.6387L89.6309 80.3809C88.4316 80.1074 87.832 79.502 87.832 78.5645Z" fill="#FF0036"/>
<defs>
<filter id="filter0_dd_57_378" x="0" y="0" width="154" height="117" filterUnits="userSpaceOnUse" color-interpolation-filters="sRGB">
<feFlood flood-opacity="0" result="BackgroundImageFix"/>
<feColorMatrix in="SourceAlpha" type="matrix" values="0 0 0 0 0 0 0 0 0 0 0 0 0 0 0 0 0 0 127 0" result="hardAlpha"/>
<feOffset/>
<feGaussianBlur stdDeviation="7.5"/>
<feComposite in2="hardAlpha" operator="out"/>
<feColorMatrix type="matrix" values="0 0 0 0 1 0 0 0 0 0 0 0 0 0 0.211765 0 0 0 0.2 0"/>
<feBlend mode="normal" in2="BackgroundImageFix" result="effect1_dropShadow_57_378"/>
<feColorMatrix in="SourceAlpha" type="matrix" values="0 0 0 0 0 0 0 0 0 0 0 0 0 0 0 0 0 0 127 0" result="hardAlpha"/>
<feOffset dy="4"/>
<feGaussianBlur stdDeviation="2"/>
<feComposite in2="hardAlpha" operator="out"/>
<feColorMatrix type="matrix" values="0 0 0 0 0.513726 0 0 0 0 0.513726 0 0 0 0 0.513726 0 0 0 0.25 0"/>
<feBlend mode="normal" in2="effect1_dropShadow_57_378" result="effect2_dropShadow_57_378"/>
<feBlend mode="normal" in="SourceGraphic" in2="effect2_dropShadow_57_378" result="shape"/>
</filter>
</defs>
</svg>
