<svg width="78" height="78" viewBox="0 0 78 78" fill="none" xmlns="http://www.w3.org/2000/svg">
<g filter="url(#filter0_d_25_1387)">
<circle cx="39" cy="35" r="35" fill="#FF0036"/>
<circle cx="39" cy="35" r="33" stroke="white" stroke-width="4"/>
</g>
<g clip-path="url(#clip0_25_1387)">
<path d="M39.0001 20C40.5914 20 42.1175 20.6321 43.2427 21.7574C44.3679 22.8826 45.0001 24.4087 45.0001 26H48.0526C48.8298 25.9999 49.5768 26.3015 50.1361 26.8412C50.6955 27.381 51.0235 28.1167 51.0511 28.8935L51.6931 46.8935C51.7074 47.2961 51.6404 47.6974 51.4963 48.0736C51.3521 48.4497 51.1337 48.793 50.854 49.0829C50.5743 49.3728 50.2391 49.6035 49.8683 49.761C49.4976 49.9186 49.0989 49.9999 48.6961 50H29.3041C28.9012 49.9999 28.5025 49.9186 28.1318 49.761C27.7611 49.6035 27.4258 49.3728 27.1461 49.0829C26.8665 48.793 26.648 48.4497 26.5039 48.0736C26.3597 47.6974 26.2928 47.2961 26.3071 46.8935L26.9491 28.8935C26.9767 28.1167 27.3047 27.381 27.864 26.8412C28.4233 26.3015 29.1703 25.9999 29.9476 26H33.0001C33.0001 24.4087 33.6322 22.8826 34.7574 21.7574C35.8826 20.6321 37.4088 20 39.0001 20ZM33.0001 29H29.9476L29.3041 47H48.6961L48.0526 29H45.0001V30.5C44.9996 30.8823 44.8532 31.25 44.5908 31.5281C44.3283 31.8061 43.9696 31.9734 43.588 31.9958C43.2063 32.0182 42.8305 31.894 42.5373 31.6486C42.2441 31.4032 42.0557 31.0551 42.0106 30.6755L42.0001 30.5V29H36.0001V30.5C35.9996 30.8823 35.8532 31.25 35.5908 31.5281C35.3283 31.8061 34.9696 31.9734 34.588 31.9958C34.2063 32.0182 33.8305 31.894 33.5373 31.6486C33.2441 31.4032 33.0557 31.0551 33.0106 30.6755L33.0001 30.5V29ZM39.0001 23C38.2432 22.9998 37.5142 23.2856 36.9592 23.8002C36.4043 24.3149 36.0643 25.0203 36.0076 25.775L36.0001 26H42.0001C42.0001 25.2044 41.684 24.4413 41.1214 23.8787C40.5588 23.3161 39.7957 23 39.0001 23Z" fill="white"/>
</g>
<defs>
<filter id="filter0_d_25_1387" x="0" y="0" width="78" height="78" filterUnits="userSpaceOnUse" color-interpolation-filters="sRGB">
<feFlood flood-opacity="0" result="BackgroundImageFix"/>
<feColorMatrix in="SourceAlpha" type="matrix" values="0 0 0 0 0 0 0 0 0 0 0 0 0 0 0 0 0 0 127 0" result="hardAlpha"/>
<feOffset dy="4"/>
<feGaussianBlur stdDeviation="2"/>
<feComposite in2="hardAlpha" operator="out"/>
<feColorMatrix type="matrix" values="0 0 0 0 0 0 0 0 0 0 0 0 0 0 0 0 0 0 0.25 0"/>
<feBlend mode="normal" in2="BackgroundImageFix" result="effect1_dropShadow_25_1387"/>
<feBlend mode="normal" in="SourceGraphic" in2="effect1_dropShadow_25_1387" result="shape"/>
</filter>
<clipPath id="clip0_25_1387">
<rect width="36" height="36" fill="white" transform="translate(21 17)"/>
</clipPath>
</defs>
</svg>
