<svg width="144" height="107" viewBox="0 0 144 107" fill="none" xmlns="http://www.w3.org/2000/svg">
<g filter="url(#filter0_dd_57_449)">
<rect x="10" y="10" width="124" height="87" rx="25" fill="white"/>
<rect x="11" y="11" width="122" height="85" rx="24" stroke="#FF0036" stroke-width="2"/>
</g>
<path d="M95 39.2979C95 34.9226 81.2451 33.3347 72 33.3347C69.9862 33.3347 68.0074 33.4037 66.089 33.5256L62.426 20.9909C62.1125 19.9526 61.4032 19.0794 60.4512 18.5597C59.4992 18.0401 58.381 17.9158 57.3382 18.2137C56.2954 18.5116 55.4116 19.2078 54.8777 20.1519C54.3439 21.096 54.2028 22.2123 54.4851 23.2595L57.7017 34.5274C53.5489 35.3222 49 36.7704 49 39.2979C49.0114 42.9003 49.8646 46.4501 51.4915 49.6642C53.1184 52.8782 55.4741 55.6675 58.3704 57.8094V60.1197C58.3668 60.6925 58.5569 61.2497 58.9097 61.7009C59.2626 62.1521 59.7575 62.4709 60.3143 62.6055C67.9938 64.4648 76.0062 64.4648 83.6857 62.6055C84.2425 62.4709 84.7374 62.1521 85.0903 61.7009C85.4431 61.2497 85.6332 60.6925 85.6296 60.1197V57.8111C88.5261 55.669 90.8818 52.8794 92.5088 49.6651C94.1357 46.4507 94.9888 42.9006 95 39.2979ZM69.0074 43.5096L67.5601 38.5593C69.0177 38.4895 70.5016 38.446 72 38.446C80.0159 38.446 87.3001 39.4487 91.0219 41.0026C87.87 42.2855 81.47 43.5582 72 43.5582C70.9607 43.5582 69.9717 43.5386 69.0074 43.5096ZM72 35.0377C85.9823 35.0377 93.2963 37.8114 93.2963 39.2979C93.2721 39.4391 93.2193 39.5739 93.1412 39.694C93.0632 39.8141 92.9614 39.917 92.8423 39.9965C89.2526 38.0124 81.1957 36.7423 72 36.7423C70.3346 36.7423 68.682 36.7908 67.0678 36.8752L66.5797 35.2055C68.3447 35.1024 70.1549 35.0377 72 35.0377ZM56.5193 20.6672C56.9151 20.1643 57.4903 19.8343 58.1242 19.7465C58.7581 19.6586 59.4014 19.8198 59.919 20.1961C60.3403 20.5133 60.6461 20.9597 60.7896 21.4671L67.2126 43.4423C65.4338 43.3559 63.6585 43.2068 61.8902 42.9951L56.1232 22.7927C56.0187 22.432 56.0001 22.052 56.0689 21.6829C56.1377 21.3138 56.292 20.966 56.5193 20.6672ZM60.0485 42.7455C57.638 42.431 55.2702 41.8481 52.9892 41.0077C54.9639 40.2635 57.0123 39.7318 59.0996 39.4215L60.0485 42.7455ZM58.1727 36.1766L58.6285 37.7731C56.0382 38.123 53.5181 38.8737 51.1586 39.9982C51.0394 39.9187 50.9377 39.8157 50.8597 39.6956C50.7816 39.5755 50.7288 39.4408 50.7046 39.2996C50.7046 38.5909 52.7166 37.204 58.1727 36.1766ZM83.9259 60.1197C83.9267 60.3089 83.8645 60.4929 83.7492 60.6429C83.6338 60.7928 83.4718 60.9001 83.2887 60.9477C75.8702 62.7449 68.1298 62.7449 60.7113 60.9477C60.5282 60.9001 60.3662 60.7928 60.2508 60.6429C60.1355 60.4929 60.0733 60.3089 60.0741 60.1197V58.8334C67.8383 61.2733 76.1647 61.2682 83.9259 58.8189V60.1197ZM83.6678 57.1083C76.0946 59.5475 67.9479 59.5558 60.3697 57.1321C57.7688 55.4246 55.5711 53.171 53.9294 50.5281C52.2876 47.8851 51.2413 44.9163 50.863 41.828C54.9306 44.3036 64.8223 45.262 72 45.262C79.1777 45.262 89.0694 44.3036 93.137 41.828C92.7598 44.9091 91.7176 47.8713 90.0826 50.5098C88.4476 53.1483 86.2589 55.4001 83.6678 57.1091V57.1083ZM70.2963 31.6301C70.4106 31.6269 70.5231 31.601 70.6273 31.5541C70.7316 31.5072 70.8255 31.4401 70.9037 31.3567C71.0646 31.1861 71.1518 30.959 71.1464 30.7246C71.1464 30.7143 71.1413 29.6001 72.736 26.8698C73.3051 25.9771 73.6355 24.9533 73.6955 23.8963C73.7555 22.8393 73.543 21.7846 73.0784 20.8333C72.3714 19.3587 71.0681 18.103 70.4207 18.0076C70.2546 17.9852 70.0855 18.0126 69.935 18.0865C69.7846 18.1604 69.6595 18.2773 69.5756 18.4225C69.4902 18.5694 69.4496 18.738 69.4587 18.9076C69.4677 19.0772 69.5262 19.2405 69.6267 19.3775C69.66 19.4226 70.413 20.5019 68.7655 22.6725C66.8974 25.1311 67.9954 28.2745 68.8166 29.9289C69.66 31.6301 69.9138 31.6301 70.2963 31.6301ZM70.1225 23.7025C70.6999 22.9808 71.1284 22.1519 71.3833 21.2635C71.584 21.6169 71.7403 21.9937 71.8484 22.3855C72.0048 22.9975 72.0337 23.6352 71.9333 24.2589C71.8329 24.8826 71.6054 25.479 71.2649 26.0111C70.7962 26.7985 70.3826 27.6174 70.0271 28.462C69.4572 27.0708 69.0296 25.1422 70.1225 23.7025ZM77.963 31.6301C78.0772 31.6269 78.1897 31.601 78.294 31.5541C78.3982 31.5072 78.4921 31.4401 78.5703 31.3567C78.7313 31.1861 78.8185 30.959 78.8131 30.7246C78.8131 30.7143 78.808 29.6001 80.4027 26.8698C80.9718 25.9771 81.3022 24.9533 81.3622 23.8963C81.4221 22.8393 81.2097 21.7846 80.7451 20.8333C80.0381 19.3587 78.7347 18.103 78.0873 18.0076C77.9212 17.9853 77.7522 18.0128 77.6018 18.0866C77.4513 18.1605 77.3262 18.2774 77.2423 18.4225C77.1569 18.5694 77.1163 18.738 77.1253 18.9076C77.1344 19.0772 77.1928 19.2405 77.2934 19.3775C77.3266 19.4226 78.0797 20.5019 76.4322 22.6725C74.5641 25.1311 75.6621 28.2745 76.4833 29.9289C77.3266 31.6301 77.5805 31.6301 77.963 31.6301ZM77.7892 23.7025C78.3666 22.9808 78.7951 22.1519 79.0499 21.2635C79.2507 21.6169 79.4069 21.9937 79.515 22.3855C79.6714 22.9975 79.7004 23.6352 79.6 24.2589C79.4996 24.8826 79.2721 25.479 78.9315 26.0111C78.4628 26.7985 78.0493 27.6174 77.6938 28.462C77.1239 27.0708 76.6963 25.1422 77.7892 23.7025ZM85.6296 31.6301C85.7439 31.6269 85.8564 31.601 85.9606 31.5541C86.0649 31.5072 86.1588 31.4401 86.237 31.3567C86.3979 31.1861 86.4852 30.959 86.4798 30.7246C86.4798 30.7143 86.4747 29.6001 88.0693 26.8698C88.6385 25.9771 88.9689 24.9533 89.0288 23.8963C89.0888 22.8393 88.8763 21.7846 88.4118 20.8333C87.7047 19.3587 86.4014 18.103 85.754 18.0076C85.5879 17.9854 85.4189 18.0129 85.2685 18.0868C85.1181 18.1606 84.993 18.2775 84.909 18.4225C84.8236 18.5694 84.7829 18.738 84.792 18.9076C84.8011 19.0772 84.8595 19.2405 84.9601 19.3775C84.9933 19.4226 85.7463 20.5019 84.0989 22.6725C82.2307 25.1311 83.3288 28.2745 84.15 29.9289C84.9933 31.6301 85.2472 31.6301 85.6296 31.6301ZM85.4559 23.7025C86.0332 22.9808 86.4617 22.1519 86.7166 21.2635C86.9174 21.6169 87.0736 21.9937 87.1817 22.3855C87.3381 22.9975 87.367 23.6352 87.2666 24.2589C87.1663 24.8826 86.9387 25.479 86.5982 26.0111C86.1295 26.7985 85.7159 27.6174 85.3604 28.462C84.7906 27.0708 84.3629 25.1422 85.4559 23.7025Z" fill="#FF0036"/>
<path d="M54.543 75.5918H56.248C56.2871 75.9355 56.4688 76.2148 56.793 76.4297C57.1211 76.6406 57.5215 76.7461 57.9941 76.7461C58.4629 76.7461 58.8438 76.6465 59.1367 76.4473C59.4336 76.2441 59.582 75.9863 59.582 75.6738C59.582 75.4004 59.4727 75.1797 59.2539 75.0117C59.0352 74.8438 58.6699 74.7031 58.1582 74.5898L57.0566 74.3496C55.5059 74.0176 54.7305 73.2305 54.7305 71.9883C54.7305 71.2148 55.0312 70.5898 55.6328 70.1133C56.2383 69.6367 57.0156 69.3984 57.9648 69.3984C58.9414 69.3984 59.7207 69.6309 60.3027 70.0957C60.8848 70.5566 61.1836 71.1719 61.1992 71.9414H59.541C59.5137 71.5859 59.3555 71.3066 59.0664 71.1035C58.7812 70.8965 58.416 70.793 57.9707 70.793C57.5332 70.793 57.1797 70.8887 56.9102 71.0801C56.6445 71.2715 56.5117 71.5234 56.5117 71.8359C56.5117 72.0938 56.6191 72.3027 56.834 72.4629C57.0527 72.623 57.4062 72.7598 57.8945 72.873L58.9199 73.0898C59.7676 73.2695 60.3848 73.5508 60.7715 73.9336C61.1582 74.3125 61.3516 74.8242 61.3516 75.4688C61.3516 76.2891 61.043 76.9414 60.4258 77.4258C59.8086 77.9062 58.9746 78.1465 57.9238 78.1465C56.9043 78.1465 56.0918 77.9199 55.4863 77.4668C54.8848 77.0098 54.5703 76.3848 54.543 75.5918ZM67.4512 77.2676C66.8926 77.8457 66.1348 78.1348 65.1777 78.1348C64.2207 78.1348 63.4629 77.8438 62.9043 77.2617C62.3457 76.6797 62.0664 75.877 62.0664 74.8535C62.0664 73.8418 62.3477 73.0449 62.9102 72.4629C63.4766 71.877 64.2324 71.584 65.1777 71.584C66.127 71.584 66.8828 71.877 67.4453 72.4629C68.0078 73.0449 68.2891 73.8418 68.2891 74.8535C68.2891 75.8809 68.0098 76.6855 67.4512 77.2676ZM65.1777 76.8281C65.5996 76.8281 65.9336 76.6562 66.1797 76.3125C66.4258 75.9688 66.5488 75.4844 66.5488 74.8594C66.5488 74.2422 66.4258 73.7598 66.1797 73.4121C65.9336 73.0645 65.5996 72.8906 65.1777 72.8906C64.7559 72.8906 64.4199 73.0645 64.1699 73.4121C63.9238 73.7598 63.8008 74.2422 63.8008 74.8594C63.8008 75.4844 63.9238 75.9688 64.1699 76.3125C64.416 76.6562 64.752 76.8281 65.1777 76.8281ZM74.9746 71.7188V78H73.3223V76.8691H73.2871C72.959 77.7012 72.332 78.1172 71.4062 78.1172C70.7188 78.1172 70.1699 77.9082 69.7598 77.4902C69.3496 77.0684 69.1445 76.4941 69.1445 75.7676V71.7188H70.8555V75.4102C70.8555 75.8281 70.9551 76.1465 71.1543 76.3652C71.3574 76.584 71.6484 76.6934 72.0273 76.6934C72.4062 76.6934 72.707 76.5684 72.9297 76.3184C73.1523 76.0684 73.2637 75.7344 73.2637 75.3164V71.7188H74.9746ZM79.7559 71.6191C80.5527 71.6191 81.1797 71.9062 81.6367 72.4805C82.0977 73.0547 82.3281 73.8477 82.3281 74.8594C82.3281 75.8672 82.1016 76.6602 81.6484 77.2383C81.1953 77.8125 80.5742 78.0996 79.7852 78.0996C79.3359 78.0996 78.9395 77.998 78.5957 77.7949C78.2559 77.5879 78.002 77.3047 77.834 76.9453H77.7988V80.0508H76.0879V71.7188H77.7754V72.8145H77.8105C77.9824 72.4395 78.2363 72.1465 78.5723 71.9355C78.9121 71.7246 79.3066 71.6191 79.7559 71.6191ZM79.1816 76.7227C79.6074 76.7227 79.9453 76.5547 80.1953 76.2188C80.4492 75.8828 80.5762 75.4297 80.5762 74.8594C80.5762 74.2891 80.4492 73.8359 80.1953 73.5C79.9453 73.1602 79.6074 72.9902 79.1816 72.9902C78.7637 72.9902 78.4277 73.1621 78.1738 73.5059C77.9199 73.8457 77.793 74.2969 77.793 74.8594C77.793 75.4258 77.918 75.8789 78.168 76.2188C78.4219 76.5547 78.7598 76.7227 79.1816 76.7227ZM83.1074 73.5645C83.1074 72.9668 83.3477 72.4883 83.8281 72.1289C84.3086 71.7656 84.9512 71.584 85.7559 71.584C86.541 71.584 87.1719 71.7676 87.6484 72.1348C88.125 72.502 88.3691 72.9902 88.3809 73.5996H86.8047C86.7852 73.3457 86.6797 73.1465 86.4883 73.002C86.3008 72.8574 86.0488 72.7852 85.7324 72.7852C85.4355 72.7852 85.1973 72.8477 85.0176 72.9727C84.8418 73.0938 84.7539 73.2559 84.7539 73.459C84.7539 73.7637 85.0273 73.9805 85.5742 74.1094L86.7754 74.3672C87.4043 74.5078 87.8555 74.7129 88.1289 74.9824C88.4062 75.248 88.5449 75.6152 88.5449 76.084C88.5449 76.7012 88.2871 77.1973 87.7715 77.5723C87.2559 77.9473 86.582 78.1348 85.75 78.1348C84.9219 78.1348 84.2598 77.9512 83.7637 77.584C83.2676 77.2168 82.9961 76.7227 82.9492 76.1016H84.6191C84.6621 76.3672 84.7832 76.5723 84.9824 76.7168C85.1855 76.8613 85.457 76.9336 85.7969 76.9336C86.1211 76.9336 86.375 76.875 86.5586 76.7578C86.7461 76.6367 86.8398 76.4727 86.8398 76.2656C86.8398 76.1055 86.7812 75.9785 86.6641 75.8848C86.5469 75.7871 86.3477 75.7051 86.0664 75.6387L84.9062 75.3809C83.707 75.1074 83.1074 74.502 83.1074 73.5645Z" fill="#FF0036"/>
<defs>
<filter id="filter0_dd_57_449" x="0" y="0" width="144" height="107" filterUnits="userSpaceOnUse" color-interpolation-filters="sRGB">
<feFlood flood-opacity="0" result="BackgroundImageFix"/>
<feColorMatrix in="SourceAlpha" type="matrix" values="0 0 0 0 0 0 0 0 0 0 0 0 0 0 0 0 0 0 127 0" result="hardAlpha"/>
<feOffset dy="4"/>
<feGaussianBlur stdDeviation="2"/>
<feComposite in2="hardAlpha" operator="out"/>
<feColorMatrix type="matrix" values="0 0 0 0 0.5125 0 0 0 0 0.5125 0 0 0 0 0.5125 0 0 0 0.15 0"/>
<feBlend mode="normal" in2="BackgroundImageFix" result="effect1_dropShadow_57_449"/>
<feColorMatrix in="SourceAlpha" type="matrix" values="0 0 0 0 0 0 0 0 0 0 0 0 0 0 0 0 0 0 127 0" result="hardAlpha"/>
<feOffset/>
<feGaussianBlur stdDeviation="5"/>
<feComposite in2="hardAlpha" operator="out"/>
<feColorMatrix type="matrix" values="0 0 0 0 1 0 0 0 0 0 0 0 0 0 0.211765 0 0 0 0.2 0"/>
<feBlend mode="normal" in2="effect1_dropShadow_57_449" result="effect2_dropShadow_57_449"/>
<feBlend mode="normal" in="SourceGraphic" in2="effect2_dropShadow_57_449" result="shape"/>
</filter>
</defs>
</svg>
