<svg width="132" height="95" viewBox="0 0 132 95" fill="none" xmlns="http://www.w3.org/2000/svg">
<g filter="url(#filter0_d_57_453)">
<rect x="4" width="124" height="87" rx="25" fill="white"/>
</g>
<path d="M66.1464 38.9521C66.0787 38.9521 66.0126 38.9506 65.9449 38.9506C65.7332 38.9418 65.5332 38.8512 65.3869 38.6979C65.2407 38.5446 65.1597 38.3406 65.161 38.1287C65.1623 37.9169 65.2458 37.7139 65.3939 37.5624C65.542 37.4109 65.7431 37.3227 65.9549 37.3166C66.0142 37.3276 66.0782 37.3181 66.1385 37.3181C71.8791 37.3181 75.9882 33.9432 77.4266 28.0359C77.4722 27.8465 77.5842 27.6796 77.7424 27.5657C77.9005 27.4518 78.0943 27.3983 78.2885 27.415C79.2186 27.4947 79.7295 26.9987 79.9934 26.5708C80.4104 25.9027 80.4791 24.9499 80.1502 24.404C79.9818 24.125 79.7374 24.0102 79.3754 24.029C78.94 24.0768 78.5334 23.7165 78.5041 23.266C78.4973 23.1588 78.5118 23.0512 78.5466 22.9496C78.5814 22.8479 78.636 22.7541 78.7071 22.6735C78.7782 22.5929 78.8646 22.5271 78.9611 22.4798C79.0577 22.4326 79.1627 22.4049 79.27 22.3982C80.2252 22.3442 81.0719 22.76 81.5572 23.5649C82.2056 24.6399 82.1358 26.2309 81.3882 27.4329C80.8102 28.361 79.9115 28.9232 78.8603 29.0349C77.0966 35.3553 72.4991 38.9521 66.1464 38.9521Z" fill="#A8A8A8"/>
<path d="M61.0453 25.4533C61.6114 25.4533 62.0703 24.9962 62.0703 24.4323C62.0703 23.8684 61.6114 23.4113 61.0453 23.4113C60.4792 23.4113 60.0203 23.8684 60.0203 24.4323C60.0203 24.9962 60.4792 25.4533 61.0453 25.4533Z" fill="#A8A8A8"/>
<path d="M61.0453 26.2698C60.0281 26.2698 59.1998 25.4465 59.1998 24.4328C59.1998 23.4192 60.0287 22.5943 61.0453 22.5943C62.063 22.5943 62.8903 23.4197 62.8903 24.4328C62.8903 25.4459 62.0625 26.2698 61.0453 26.2698ZM61.0453 24.2283C60.991 24.2283 60.939 24.2499 60.9006 24.2882C60.8623 24.3266 60.8407 24.3786 60.8407 24.4328C60.8407 24.6562 61.2499 24.6562 61.2499 24.4328C61.25 24.4059 61.2447 24.3793 61.2345 24.3545C61.2242 24.3296 61.2091 24.3071 61.1901 24.2881C61.1711 24.269 61.1485 24.254 61.1237 24.2437C61.0988 24.2335 61.0722 24.2282 61.0453 24.2283Z" fill="#A8A8A8"/>
<path d="M71.1919 25.2509C71.758 25.2509 72.2169 24.7938 72.2169 24.2299C72.2169 23.666 71.758 23.2089 71.1919 23.2089C70.6257 23.2089 70.1668 23.666 70.1668 24.2299C70.1668 24.7938 70.6257 25.2509 71.1919 25.2509Z" fill="#A8A8A8"/>
<path d="M71.1919 26.0684C70.1742 26.0684 69.3469 25.2435 69.3469 24.2299C69.3469 23.2162 70.1742 22.3919 71.1919 22.3919C72.2096 22.3919 73.0374 23.2168 73.0374 24.2299C73.0374 25.243 72.2085 26.0684 71.1919 26.0684ZM71.1919 24.0259C71.165 24.0258 71.1383 24.0311 71.1135 24.0413C71.0886 24.0516 71.066 24.0666 71.047 24.0856C71.028 24.1046 71.013 24.1272 71.0027 24.1521C70.9924 24.1769 70.9872 24.2035 70.9873 24.2304C70.9873 24.4569 71.3964 24.4569 71.3964 24.2304C71.3964 24.1762 71.3749 24.1241 71.3365 24.0858C71.2982 24.0474 71.2461 24.0259 71.1919 24.0259Z" fill="#A8A8A8"/>
<path d="M66.1406 31.693C66.5375 31.693 66.8593 31.2359 66.8593 30.672C66.8593 30.1081 66.5375 29.651 66.1406 29.651C65.7437 29.651 65.4219 30.1081 65.4219 30.672C65.4219 31.2359 65.7437 31.693 66.1406 31.693Z" fill="#A8A8A8"/>
<path d="M66.1406 32.5105C66.9904 32.5105 67.6792 31.6874 67.6792 30.672C67.6792 29.6566 66.9904 28.8335 66.1406 28.8335C65.2909 28.8335 64.602 29.6566 64.602 30.672C64.602 31.6874 65.2909 32.5105 66.1406 32.5105Z" fill="#A8A8A8"/>
<path d="M65.8537 38.9521C59.5009 38.9521 54.9034 35.3569 53.1398 29.0349C52.0885 28.9232 51.1899 28.3615 50.6113 27.4329C49.8643 26.2309 49.7945 24.6405 50.4429 23.5649C50.8694 22.856 51.5666 22.4428 52.3891 22.3966C52.7815 14.3844 58.7828 8 66.1039 8C73.6774 8 79.8386 14.8328 79.8386 23.2314C79.8386 23.6824 79.4714 24.0484 79.0182 24.0484C78.9107 24.0486 78.8042 24.0277 78.7048 23.9867C78.6054 23.9458 78.515 23.8856 78.4389 23.8098C78.3627 23.7339 78.3023 23.6438 78.261 23.5445C78.2197 23.4453 78.1984 23.3389 78.1982 23.2314C78.1982 15.7342 72.773 9.634 66.1039 9.634C59.4348 9.634 54.0096 15.7342 54.0096 23.2314C54.0096 23.4533 53.9188 23.6651 53.7598 23.8188C53.5993 23.9735 53.3895 24.0547 53.1613 24.0484L52.6493 24.0306C52.2705 23.9991 52.0182 24.125 51.8498 24.404C51.5209 24.9493 51.5896 25.9027 52.0062 26.5713C52.2705 26.9971 52.7794 27.4853 53.7116 27.4155C53.9053 27.4011 54.0979 27.4554 54.2556 27.5688C54.4132 27.6823 54.5258 27.8477 54.5735 28.0359C56.0266 34.0024 60.1315 37.3774 66.0357 37.3166C66.469 37.2736 66.8593 37.6726 66.8656 38.1241C66.8668 38.2316 66.8467 38.3383 66.8066 38.438C66.7665 38.5378 66.7071 38.6286 66.6318 38.7054C66.5565 38.7821 66.4669 38.8433 66.3679 38.8854C66.2689 38.9275 66.1626 38.9496 66.0551 38.9506C65.9874 38.9506 65.9203 38.9521 65.8537 38.9521Z" fill="#A8A8A8"/>
<path d="M76.3218 51L56.74 50.9969C55.5392 50.9969 54.4775 50.2485 54.0993 49.1332C53.7179 48.0078 53.5553 47.0681 53.5553 45.991V45.1085C53.5553 41.2133 55.7365 37.6674 59.2465 35.853C59.4394 35.7526 59.6643 35.7329 59.8718 35.7981C60.0792 35.8634 60.2523 36.0084 60.3529 36.2012C60.5611 36.6018 60.4048 37.0947 60.0024 37.3024C57.0375 38.8357 55.1956 41.8263 55.1956 45.1085V45.991C55.1956 46.893 55.3278 47.6507 55.6531 48.6098C55.8063 49.0598 56.2438 49.3629 56.7411 49.3629L76.3228 49.366C76.8123 49.366 77.2592 49.0566 77.4098 48.6109C77.734 47.6523 77.8662 46.8924 77.8662 45.991V45.1085C77.8662 41.6055 75.7684 38.4435 72.5222 37.0502C72.4237 37.0076 72.3345 36.946 72.2598 36.869C72.1851 36.7919 72.1263 36.7009 72.0868 36.6012C72.007 36.3997 72.0105 36.1748 72.0965 35.976C72.1826 35.7771 72.3441 35.6205 72.5456 35.5407C72.7472 35.4609 72.9722 35.4644 73.1711 35.5504C77.0195 37.2022 79.5066 40.9532 79.5066 45.1085V45.991C79.5066 47.0697 79.3439 48.0099 78.9636 49.1332C78.5864 50.2501 77.5241 51 76.3218 51ZM66.0944 15.1553H66.0394C65.8221 15.1519 65.6151 15.0623 65.4638 14.9064C65.3125 14.7504 65.2293 14.5408 65.2326 14.3236C65.2368 14.1091 65.3252 13.9048 65.4786 13.7547C65.6321 13.6047 65.8383 13.5208 66.053 13.5213C66.0635 13.5197 66.0803 13.5213 66.0939 13.5213C66.9752 13.5213 67.6992 12.8144 67.7133 11.9335C67.7191 11.6414 67.6666 11.3512 67.559 11.0796C67.4514 10.8081 67.2907 10.5607 67.0864 10.3519C66.8827 10.1415 66.6394 9.97341 66.3705 9.85731C66.1016 9.74122 65.8124 9.67941 65.5195 9.67543C65.3025 9.67211 65.0958 9.58291 64.9445 9.42739C64.7933 9.27187 64.7099 9.06273 64.7127 8.84584C64.7165 8.63098 64.8047 8.42623 64.9582 8.27575C65.1117 8.12527 65.3182 8.04112 65.5331 8.04143H65.5468C66.5802 8.05716 67.546 8.47562 68.2652 9.21606C68.9844 9.9565 69.3705 10.9313 69.3537 11.9623C69.3243 13.7337 67.867 15.1553 66.0944 15.1553Z" fill="#A8A8A8"/>
<path d="M59.2192 50.9969C59.1117 50.9971 59.0051 50.9762 58.9056 50.9353C58.8062 50.8944 58.7158 50.8342 58.6396 50.7584C58.5634 50.6825 58.5029 50.5923 58.4616 50.4931C58.4202 50.3938 58.3989 50.2874 58.3988 50.1799V37.3229C58.3988 36.8719 58.766 36.5059 59.2192 36.5059C59.3268 36.5056 59.4333 36.5265 59.5328 36.5674C59.6323 36.6083 59.7227 36.6685 59.7989 36.7443C59.8751 36.8202 59.9356 36.9104 59.9769 37.0096C60.0182 37.1089 60.0395 37.2153 60.0397 37.3229V50.1799C60.0397 50.6314 59.6725 50.9969 59.2192 50.9969ZM73.4486 50.9969C73.3411 50.9971 73.2346 50.9761 73.1352 50.9351C73.0358 50.8942 72.9455 50.8341 72.8693 50.7582C72.7932 50.6823 72.7327 50.5922 72.6914 50.4929C72.6502 50.3937 72.6288 50.2873 72.6287 50.1799V37.3229C72.6287 36.8719 72.9959 36.5059 73.4486 36.5059C73.5562 36.5056 73.6627 36.5265 73.7622 36.5674C73.8617 36.6083 73.9521 36.6685 74.0283 36.7443C74.1045 36.8202 74.165 36.9104 74.2063 37.0096C74.2476 37.1089 74.2689 37.2153 74.2691 37.3229V50.1799C74.2691 50.6314 73.9019 50.9969 73.4486 50.9969ZM66.3431 46.4939C64.0795 46.4939 62.2372 44.6586 62.2372 42.4037V37.8976C62.2372 37.4461 62.6044 37.0806 63.0576 37.0806C63.1651 37.0804 63.2716 37.1014 63.371 37.1423C63.4704 37.1833 63.5608 37.2434 63.6369 37.3193C63.7131 37.3951 63.7735 37.4853 63.8148 37.5845C63.8561 37.6837 63.8774 37.7901 63.8775 37.8976V42.4037C63.8775 43.7587 64.9844 44.8594 66.3431 44.8594C67.7023 44.8594 68.8087 43.7582 68.8087 42.4037V37.8976C68.8087 37.4461 69.1759 37.0806 69.6291 37.0806C69.7366 37.0804 69.8431 37.1014 69.9425 37.1423C70.0419 37.1833 70.1323 37.2434 70.2084 37.3193C70.2846 37.3951 70.345 37.4853 70.3863 37.5845C70.4276 37.6837 70.4489 37.7901 70.449 37.8976V42.4037C70.449 44.6586 68.6067 46.4939 66.3431 46.4939Z" fill="#A8A8A8"/>
<path d="M46.8145 68.1465C45.5801 68.1465 44.6035 67.7578 43.8848 66.9805C43.1699 66.1992 42.8125 65.1289 42.8125 63.7695C42.8125 62.4141 43.1719 61.3477 43.8906 60.5703C44.6094 59.7891 45.584 59.3984 46.8145 59.3984C47.4863 59.3984 48.0957 59.5312 48.6426 59.7969C49.1934 60.0625 49.6348 60.4375 49.9668 60.9219C50.2988 61.4062 50.4863 61.959 50.5293 62.5801H48.8066C48.7246 62.0605 48.5 61.6445 48.1328 61.332C47.7695 61.0195 47.3301 60.8633 46.8145 60.8633C46.1465 60.8633 45.6133 61.125 45.2148 61.6484C44.8164 62.1719 44.6172 62.877 44.6172 63.7637C44.6172 64.666 44.8145 65.3789 45.209 65.9023C45.6035 66.4219 46.1406 66.6816 46.8203 66.6816C47.3438 66.6816 47.7832 66.5371 48.1387 66.248C48.4941 65.959 48.7188 65.5645 48.8125 65.0645H50.5352C50.4375 66.0059 50.0527 66.7559 49.3809 67.3145C48.709 67.8691 47.8535 68.1465 46.8145 68.1465ZM51.5254 68V59.5449H53.207V62.8379H53.2422C53.4102 62.4395 53.6621 62.1348 53.998 61.9238C54.3379 61.709 54.7441 61.6016 55.2168 61.6016C55.9082 61.6016 56.4453 61.8125 56.8281 62.2344C57.2148 62.6523 57.4082 63.2266 57.4082 63.957V68H55.6973V64.3203C55.6973 63.9102 55.5957 63.5918 55.3926 63.3652C55.1934 63.1348 54.9023 63.0195 54.5195 63.0195C54.1211 63.0195 53.8066 63.1484 53.5762 63.4062C53.3496 63.6602 53.2363 63.9961 53.2363 64.4141V68H51.5254ZM58.5332 68V61.7188H60.2441V68H58.5332ZM60.0391 60.7695C59.8633 60.9414 59.6465 61.0273 59.3887 61.0273C59.1309 61.0273 58.9141 60.9414 58.7383 60.7695C58.5625 60.5977 58.4746 60.3887 58.4746 60.1426C58.4746 59.8926 58.5625 59.6836 58.7383 59.5156C58.9141 59.3438 59.1309 59.2578 59.3887 59.2578C59.6465 59.2578 59.8633 59.3438 60.0391 59.5156C60.2148 59.6836 60.3027 59.8926 60.3027 60.1426C60.3027 60.3887 60.2148 60.5977 60.0391 60.7695ZM61.4277 68V59.5449H63.1387V68H61.4277ZM66.625 68.0996C65.8398 68.0996 65.2168 67.8086 64.7559 67.2266C64.2949 66.6445 64.0645 65.8516 64.0645 64.8477C64.0645 63.8516 64.2949 63.0645 64.7559 62.4863C65.2207 61.9082 65.8477 61.6191 66.6367 61.6191C67.082 61.6191 67.4727 61.7266 67.8086 61.9414C68.1484 62.1562 68.3965 62.4414 68.5527 62.7969H68.5879V59.5449H70.2988V68H68.6113V66.9219H68.582C68.4258 67.2773 68.1738 67.5625 67.8262 67.7773C67.4785 67.9922 67.0781 68.0996 66.625 68.0996ZM67.2051 62.9902C66.7754 62.9902 66.4355 63.1582 66.1855 63.4941C65.9395 63.8301 65.8164 64.2852 65.8164 64.8594C65.8164 65.4375 65.9395 65.8926 66.1855 66.2246C66.4355 66.5566 66.7754 66.7227 67.2051 66.7227C67.6309 66.7227 67.9688 66.5566 68.2188 66.2246C68.4727 65.8887 68.5996 65.4336 68.5996 64.8594C68.5996 64.2891 68.4727 63.8359 68.2188 63.5C67.9688 63.1602 67.6309 62.9902 67.2051 62.9902ZM71.4414 68V61.7188H73.0938V62.8496H73.1289C73.2383 62.4512 73.4219 62.1465 73.6797 61.9355C73.9375 61.7246 74.252 61.6191 74.623 61.6191C74.8027 61.6191 74.9648 61.6406 75.1094 61.6836V63.1895C74.9492 63.123 74.7422 63.0898 74.4883 63.0898C74.0664 63.0898 73.7383 63.2129 73.5039 63.459C73.2695 63.7051 73.1523 64.0488 73.1523 64.4902V68H71.4414ZM78.4199 62.8496C78.0488 62.8496 77.7383 62.9766 77.4883 63.2305C77.2422 63.4844 77.1035 63.8086 77.0723 64.2031H79.7383C79.7188 63.8008 79.5879 63.4746 79.3457 63.2246C79.1074 62.9746 78.7988 62.8496 78.4199 62.8496ZM79.7617 66.0781H81.332C81.2383 66.6953 80.9297 67.1934 80.4062 67.5723C79.8867 67.9473 79.2402 68.1348 78.4668 68.1348C77.502 68.1348 76.7441 67.8457 76.1934 67.2676C75.6465 66.6895 75.373 65.8965 75.373 64.8887C75.373 63.8848 75.6465 63.084 76.1934 62.4863C76.7402 61.8848 77.4766 61.584 78.4023 61.584C79.3125 61.584 80.0371 61.8691 80.5762 62.4395C81.1152 63.0098 81.3848 63.7734 81.3848 64.7305V65.252H77.0547V65.3574C77.0547 65.8066 77.1855 66.1719 77.4473 66.4531C77.7129 66.7305 78.0625 66.8691 78.4961 66.8691C78.8086 66.8691 79.0781 66.7988 79.3047 66.6582C79.5312 66.5137 79.6836 66.3203 79.7617 66.0781ZM82.2695 68V61.7188H83.9219V62.8379H83.957C84.1289 62.4395 84.3789 62.1348 84.707 61.9238C85.0391 61.709 85.4434 61.6016 85.9199 61.6016C86.6152 61.6016 87.1523 61.8086 87.5312 62.2227C87.9102 62.6367 88.0996 63.2129 88.0996 63.9512V68H86.3887V64.3086C86.3887 63.8945 86.291 63.5762 86.0957 63.3535C85.9004 63.1309 85.6133 63.0195 85.2344 63.0195C84.8555 63.0195 84.5508 63.1465 84.3203 63.4004C84.0938 63.6543 83.9805 63.9863 83.9805 64.3965V68H82.2695ZM50.6289 82V75.7188H52.2812V76.8555H52.3164C52.4492 76.4727 52.6758 76.168 52.9961 75.9414C53.3164 75.7148 53.6875 75.6016 54.1094 75.6016C54.5625 75.6016 54.9414 75.7148 55.2461 75.9414C55.5508 76.1641 55.7559 76.4805 55.8613 76.8906H55.8965C56.0371 76.4961 56.2812 76.1836 56.6289 75.9531C56.9805 75.7188 57.3867 75.6016 57.8477 75.6016C58.4648 75.6016 58.9609 75.7949 59.3359 76.1816C59.7148 76.5684 59.9043 77.0781 59.9043 77.7109V82H58.1934V78.1387C58.1934 77.7754 58.1055 77.498 57.9297 77.3066C57.7539 77.1113 57.5 77.0137 57.168 77.0137C56.8438 77.0137 56.582 77.1211 56.3828 77.3359C56.1875 77.5508 56.0898 77.834 56.0898 78.1855V82H54.4434V78.0859C54.4434 77.75 54.3535 77.4883 54.1738 77.3008C53.9941 77.1094 53.7461 77.0137 53.4297 77.0137C53.1055 77.0137 52.8418 77.125 52.6387 77.3477C52.4395 77.5703 52.3398 77.8574 52.3398 78.209V82H50.6289ZM63.8066 76.8496C63.4355 76.8496 63.125 76.9766 62.875 77.2305C62.6289 77.4844 62.4902 77.8086 62.459 78.2031H65.125C65.1055 77.8008 64.9746 77.4746 64.7324 77.2246C64.4941 76.9746 64.1855 76.8496 63.8066 76.8496ZM65.1484 80.0781H66.7188C66.625 80.6953 66.3164 81.1934 65.793 81.5723C65.2734 81.9473 64.627 82.1348 63.8535 82.1348C62.8887 82.1348 62.1309 81.8457 61.5801 81.2676C61.0332 80.6895 60.7598 79.8965 60.7598 78.8887C60.7598 77.8848 61.0332 77.084 61.5801 76.4863C62.127 75.8848 62.8633 75.584 63.7891 75.584C64.6992 75.584 65.4238 75.8691 65.9629 76.4395C66.502 77.0098 66.7715 77.7734 66.7715 78.7305V79.252H62.4414V79.3574C62.4414 79.8066 62.5723 80.1719 62.834 80.4531C63.0996 80.7305 63.4492 80.8691 63.8828 80.8691C64.1953 80.8691 64.4648 80.7988 64.6914 80.6582C64.918 80.5137 65.0703 80.3203 65.1484 80.0781ZM67.6562 82V75.7188H69.3086V76.8379H69.3438C69.5156 76.4395 69.7656 76.1348 70.0938 75.9238C70.4258 75.709 70.8301 75.6016 71.3066 75.6016C72.002 75.6016 72.5391 75.8086 72.918 76.2227C73.2969 76.6367 73.4863 77.2129 73.4863 77.9512V82H71.7754V78.3086C71.7754 77.8945 71.6777 77.5762 71.4824 77.3535C71.2871 77.1309 71 77.0195 70.6211 77.0195C70.2422 77.0195 69.9375 77.1465 69.707 77.4004C69.4805 77.6543 69.3672 77.9863 69.3672 78.3965V82H67.6562ZM80.3711 75.7188V82H78.7188V80.8691H78.6836C78.3555 81.7012 77.7285 82.1172 76.8027 82.1172C76.1152 82.1172 75.5664 81.9082 75.1562 81.4902C74.7461 81.0684 74.541 80.4941 74.541 79.7676V75.7188H76.252V79.4102C76.252 79.8281 76.3516 80.1465 76.5508 80.3652C76.7539 80.584 77.0449 80.6934 77.4238 80.6934C77.8027 80.6934 78.1035 80.5684 78.3262 80.3184C78.5488 80.0684 78.6602 79.7344 78.6602 79.3164V75.7188H80.3711Z" fill="#A8A8A8"/>
<defs>
<filter id="filter0_d_57_453" x="0" y="0" width="132" height="95" filterUnits="userSpaceOnUse" color-interpolation-filters="sRGB">
<feFlood flood-opacity="0" result="BackgroundImageFix"/>
<feColorMatrix in="SourceAlpha" type="matrix" values="0 0 0 0 0 0 0 0 0 0 0 0 0 0 0 0 0 0 127 0" result="hardAlpha"/>
<feOffset dy="4"/>
<feGaussianBlur stdDeviation="2"/>
<feComposite in2="hardAlpha" operator="out"/>
<feColorMatrix type="matrix" values="0 0 0 0 0.5125 0 0 0 0 0.5125 0 0 0 0 0.5125 0 0 0 0.15 0"/>
<feBlend mode="normal" in2="BackgroundImageFix" result="effect1_dropShadow_57_453"/>
<feBlend mode="normal" in="SourceGraphic" in2="effect1_dropShadow_57_453" result="shape"/>
</filter>
</defs>
</svg>
