<svg width="132" height="95" viewBox="0 0 132 95" fill="none" xmlns="http://www.w3.org/2000/svg">
<g filter="url(#filter0_d_57_477)">
<rect x="4" width="124" height="87" rx="25" fill="white"/>
</g>
<path d="M50.0425 51.9999H59.395C59.9301 52.005 60.4455 51.7979 60.8283 51.4239C61.2111 51.0499 61.4301 50.5396 61.4375 50.0044V26.5292C61.4386 25.6334 61.2436 24.7483 60.8664 23.9358C59.6604 21.3289 59.1095 19.1856 59.1363 17.1935C59.1386 17.0028 59.1026 16.8136 59.0305 16.637C58.9584 16.4604 58.8516 16.3001 58.7164 16.1656C58.4572 15.9031 58.1104 15.7452 57.7422 15.7221V14.2071C57.7372 13.9464 57.6637 13.6916 57.529 13.4684C57.3943 13.2451 57.2032 13.0613 56.9749 12.9354L56.2971 10.186C56.2186 9.8467 56.0268 9.54429 55.7533 9.32869C55.4798 9.11308 55.141 8.99716 54.7927 9.00005C54.4445 8.99718 54.1054 9.1131 53.8319 9.3287C53.5584 9.54429 53.3665 9.84669 53.2879 10.186L52.6308 12.8517C52.3601 12.9624 52.1275 13.1495 51.9614 13.3902C51.7953 13.6309 51.7028 13.9147 51.6953 14.2071V15.7221C51.3271 15.7452 50.9803 15.9031 50.7211 16.1656C50.5859 16.3001 50.4791 16.4604 50.407 16.637C50.3349 16.8136 50.2989 17.0028 50.3012 17.1935C50.3281 19.1856 49.7771 21.3289 48.5711 23.9358C48.1939 24.7483 47.999 25.6334 48 26.5292V50.0044C48.0074 50.5396 48.2264 51.0499 48.6092 51.4239C48.992 51.7979 49.5074 52.005 50.0425 51.9999ZM54.5926 10.5075C54.6019 10.4613 54.6269 10.4198 54.6633 10.3899C54.6997 10.3601 54.7454 10.3438 54.7925 10.3438C54.8396 10.3438 54.8852 10.3601 54.9217 10.3899C54.9581 10.4198 54.9831 10.4613 54.9924 10.5075L55.5318 12.6954H54.0533L54.5926 10.5075ZM53.0391 14.2071C53.0391 14.1466 53.1566 14.0391 53.3481 14.0391H56.0894C56.2809 14.0391 56.3984 14.1466 56.3984 14.2071V15.7188H53.0391V14.2071ZM49.3438 26.5292C49.3436 25.8284 49.4961 25.136 49.7906 24.5002C50.4605 23.0969 50.975 21.6246 51.325 20.1096H55.7689C55.9471 20.1096 56.118 20.0388 56.244 19.9128C56.37 19.7868 56.4408 19.6159 56.4408 19.4377C56.4408 19.2595 56.37 19.0886 56.244 18.9626C56.118 18.8366 55.9471 18.7658 55.7689 18.7658H51.5566C51.6205 18.2386 51.65 17.7078 51.6449 17.1767C51.6449 17.164 51.6475 17.1515 51.6528 17.1399C51.658 17.1283 51.6656 17.1179 51.6752 17.1096C51.7051 17.0809 51.7446 17.0642 51.786 17.0625H57.6515C57.6929 17.0642 57.7324 17.0809 57.7623 17.1096C57.7719 17.1179 57.7795 17.1283 57.7848 17.1399C57.79 17.1515 57.7926 17.164 57.7926 17.1767C57.7657 19.3771 58.3536 21.7018 59.647 24.5002C59.9415 25.136 60.0939 25.8284 60.0938 26.5292V43.2656H49.3438V26.5292ZM49.3438 44.6093H60.0938V45.9531H49.3438V44.6093ZM49.3438 47.2968H60.0938V50.0044C60.0873 50.1834 60.0101 50.3526 59.8791 50.4748C59.7481 50.5969 59.574 50.6622 59.395 50.6562H50.0425C49.8635 50.6622 49.6894 50.5969 49.5584 50.4748C49.4274 50.3526 49.3502 50.1834 49.3438 50.0044V47.2968Z" fill="#A8A8A8"/>
<path d="M54.7188 23.7813C53.9214 23.7813 53.142 24.0177 52.4791 24.4606C51.8162 24.9036 51.2995 25.5332 50.9944 26.2698C50.6892 27.0064 50.6094 27.817 50.765 28.5989C50.9205 29.3809 51.3044 30.0992 51.8682 30.663C52.432 31.2268 53.1503 31.6107 53.9323 31.7663C54.7143 31.9218 55.5248 31.842 56.2614 31.5369C56.9981 31.2318 57.6277 30.7151 58.0706 30.0521C58.5136 29.3892 58.75 28.6098 58.75 27.8125C58.7488 26.7437 58.3237 25.719 57.568 24.9633C56.8122 24.2075 55.7875 23.7824 54.7188 23.7813ZM54.7188 30.5C54.1872 30.5 53.6676 30.3424 53.2257 30.0471C52.7837 29.7518 52.4392 29.332 52.2358 28.8409C52.0324 28.3499 51.9792 27.8095 52.0829 27.2882C52.1866 26.7669 52.4426 26.288 52.8184 25.9121C53.1943 25.5363 53.6731 25.2803 54.1944 25.1766C54.7158 25.0729 55.2561 25.1262 55.7472 25.3296C56.2383 25.533 56.658 25.8774 56.9533 26.3194C57.2486 26.7614 57.4063 27.281 57.4063 27.8125C57.4054 28.525 57.122 29.2081 56.6182 29.7119C56.1144 30.2158 55.4313 30.4992 54.7188 30.5ZM90.3281 37.8906H87.881C87.8216 37.4015 87.6099 36.9434 87.2758 36.5813C86.9168 36.2117 86.4569 35.9559 85.9536 35.8458C85.9028 35.032 85.5486 34.267 84.9608 33.7019C84.3574 33.175 83.6008 32.8557 82.8024 32.7912C82.7005 32.1974 82.2837 31.4113 80.9762 30.7418C79.7302 30.104 80.2064 28.8784 80.3127 28.6431C80.3634 28.5349 80.3843 28.4151 80.3732 28.2961C80.3621 28.177 80.3195 28.0631 80.2498 27.9661C80.18 27.869 80.0856 27.7924 79.9763 27.744C79.867 27.6956 79.7468 27.6772 79.628 27.6908C78.6856 27.7855 77.7913 28.1531 77.0547 28.7487C76.3182 29.3443 75.7715 30.1418 75.4816 31.0436C74.8482 30.8598 74.172 30.8893 73.557 31.1276C72.6765 31.5272 71.9628 32.2212 71.5384 33.09C69.5984 33.3666 68.2783 34.0897 67.6117 35.2425C67.171 36.0509 67.0366 36.9911 67.2329 37.8906H64.125C63.9468 37.8906 63.7759 37.9614 63.6499 38.0874C63.5239 38.2134 63.4531 38.3843 63.4531 38.5625C63.4531 45.7867 69.6319 51.664 77.2266 51.664C84.8212 51.664 91 45.7867 91 38.5625C91 38.3843 90.9292 38.2134 90.8032 38.0874C90.6772 37.9614 90.5063 37.8906 90.3281 37.8906ZM78.8009 29.2619C78.7518 29.8149 78.8758 30.3695 79.1557 30.849C79.4357 31.3284 79.8579 31.709 80.3637 31.9379C80.7735 32.1165 81.1271 32.4033 81.3865 32.7674C78.4929 32.7093 77.2076 32.0962 76.6864 31.7174C76.8217 31.171 77.0836 30.6641 77.4509 30.2376C77.8182 29.811 78.2807 29.4768 78.8009 29.2619ZM74.0461 32.3791C74.2811 32.2961 74.5304 32.2615 74.779 32.2772C75.0277 32.2929 75.2706 32.3587 75.4932 32.4706C76.1022 33.1071 77.7142 34.1162 81.819 34.1162C81.9864 34.1162 82.1588 34.1146 82.3348 34.1113C82.3425 34.1111 82.3495 34.109 82.357 34.1086C82.9697 34.0965 83.5671 34.3004 84.0444 34.6847C84.3619 34.9995 84.559 35.4157 84.6013 35.8607C78.3323 36.457 74.1837 34.3054 72.8588 33.485C73.128 33.0003 73.5436 32.6132 74.0461 32.3791ZM68.7748 35.9153C69.2331 35.1227 70.2596 34.6203 71.8143 34.413C72.7659 35.0667 76.4681 37.3132 82.3972 37.3132C83.4165 37.3114 84.4346 37.2465 85.4459 37.1189C85.7635 37.1478 86.0624 37.2819 86.2952 37.4999C86.3965 37.6115 86.47 37.7453 86.51 37.8906H68.6096C68.4073 37.2356 68.4665 36.5276 68.7748 35.9153ZM77.2266 50.3202C71.8695 50.3202 67.294 47.0972 65.5507 42.5937H88.9024C87.1591 47.0972 82.5837 50.3202 77.2266 50.3202ZM89.3251 41.2499H65.1281C64.9628 40.589 64.8586 39.9143 64.8169 39.2343H89.6362C89.5945 39.9143 89.4903 40.589 89.3251 41.2499Z" fill="#A8A8A8"/>
<path d="M73.6138 48.4089C73.7832 48.4639 73.9676 48.4492 74.1262 48.3683C74.2849 48.2873 74.405 48.1467 74.46 47.9773C74.515 47.8078 74.5005 47.6235 74.4196 47.4647C74.3388 47.306 74.1982 47.1859 74.0288 47.1308C72.201 46.5487 70.5861 45.439 69.3875 43.9414C69.3326 43.8723 69.2647 43.8146 69.1876 43.7718C69.1105 43.7289 69.0257 43.7017 68.938 43.6916C68.8504 43.6815 68.7616 43.6888 68.6768 43.713C68.592 43.7372 68.5127 43.7779 68.4436 43.8328C68.3745 43.8876 68.3169 43.9555 68.274 44.0327C68.2312 44.1098 68.2039 44.1946 68.1939 44.2822C68.1838 44.3699 68.191 44.4586 68.2153 44.5435C68.2395 44.6283 68.2802 44.7075 68.335 44.7766C69.6977 46.4817 71.5343 47.7455 73.6138 48.4089Z" fill="#A8A8A8"/>
<path d="M33.7715 65.5918H35.4766C35.5156 65.9355 35.6973 66.2148 36.0215 66.4297C36.3496 66.6406 36.75 66.7461 37.2227 66.7461C37.6914 66.7461 38.0723 66.6465 38.3652 66.4473C38.6621 66.2441 38.8105 65.9863 38.8105 65.6738C38.8105 65.4004 38.7012 65.1797 38.4824 65.0117C38.2637 64.8438 37.8984 64.7031 37.3867 64.5898L36.2852 64.3496C34.7344 64.0176 33.959 63.2305 33.959 61.9883C33.959 61.2148 34.2598 60.5898 34.8613 60.1133C35.4668 59.6367 36.2441 59.3984 37.1934 59.3984C38.1699 59.3984 38.9492 59.6309 39.5312 60.0957C40.1133 60.5566 40.4121 61.1719 40.4277 61.9414H38.7695C38.7422 61.5859 38.584 61.3066 38.2949 61.1035C38.0098 60.8965 37.6445 60.793 37.1992 60.793C36.7617 60.793 36.4082 60.8887 36.1387 61.0801C35.873 61.2715 35.7402 61.5234 35.7402 61.8359C35.7402 62.0938 35.8477 62.3027 36.0625 62.4629C36.2812 62.623 36.6348 62.7598 37.123 62.873L38.1484 63.0898C38.9961 63.2695 39.6133 63.5508 40 63.9336C40.3867 64.3125 40.5801 64.8242 40.5801 65.4688C40.5801 66.2891 40.2715 66.9414 39.6543 67.4258C39.0371 67.9062 38.2031 68.1465 37.1523 68.1465C36.1328 68.1465 35.3203 67.9199 34.7148 67.4668C34.1133 67.0098 33.7988 66.3848 33.7715 65.5918ZM41.5527 68V61.7188H43.2637V68H41.5527ZM43.0586 60.7695C42.8828 60.9414 42.666 61.0273 42.4082 61.0273C42.1504 61.0273 41.9336 60.9414 41.7578 60.7695C41.582 60.5977 41.4941 60.3887 41.4941 60.1426C41.4941 59.8926 41.582 59.6836 41.7578 59.5156C41.9336 59.3438 42.1504 59.2578 42.4082 59.2578C42.666 59.2578 42.8828 59.3438 43.0586 59.5156C43.2344 59.6836 43.3223 59.8926 43.3223 60.1426C43.3223 60.3887 43.2344 60.5977 43.0586 60.7695ZM46.7383 68.0996C45.9531 68.0996 45.3301 67.8086 44.8691 67.2266C44.4082 66.6445 44.1777 65.8516 44.1777 64.8477C44.1777 63.8516 44.4082 63.0645 44.8691 62.4863C45.334 61.9082 45.9609 61.6191 46.75 61.6191C47.1953 61.6191 47.5859 61.7266 47.9219 61.9414C48.2617 62.1562 48.5098 62.4414 48.666 62.7969H48.7012V59.5449H50.4121V68H48.7246V66.9219H48.6953C48.5391 67.2773 48.2871 67.5625 47.9395 67.7773C47.5918 67.9922 47.1914 68.0996 46.7383 68.0996ZM47.3184 62.9902C46.8887 62.9902 46.5488 63.1582 46.2988 63.4941C46.0527 63.8301 45.9297 64.2852 45.9297 64.8594C45.9297 65.4375 46.0527 65.8926 46.2988 66.2246C46.5488 66.5566 46.8887 66.7227 47.3184 66.7227C47.7441 66.7227 48.082 66.5566 48.332 66.2246C48.5859 65.8887 48.7129 65.4336 48.7129 64.8594C48.7129 64.2891 48.5859 63.8359 48.332 63.5C48.082 63.1602 47.7441 62.9902 47.3184 62.9902ZM54.373 62.8496C54.002 62.8496 53.6914 62.9766 53.4414 63.2305C53.1953 63.4844 53.0566 63.8086 53.0254 64.2031H55.6914C55.6719 63.8008 55.541 63.4746 55.2988 63.2246C55.0605 62.9746 54.752 62.8496 54.373 62.8496ZM55.7148 66.0781H57.2852C57.1914 66.6953 56.8828 67.1934 56.3594 67.5723C55.8398 67.9473 55.1934 68.1348 54.4199 68.1348C53.4551 68.1348 52.6973 67.8457 52.1465 67.2676C51.5996 66.6895 51.3262 65.8965 51.3262 64.8887C51.3262 63.8848 51.5996 63.084 52.1465 62.4863C52.6934 61.8848 53.4297 61.584 54.3555 61.584C55.2656 61.584 55.9902 61.8691 56.5293 62.4395C57.0684 63.0098 57.3379 63.7734 57.3379 64.7305V65.252H53.0078V65.3574C53.0078 65.8066 53.1387 66.1719 53.4004 66.4531C53.666 66.7305 54.0156 66.8691 54.4492 66.8691C54.7617 66.8691 55.0312 66.7988 55.2578 66.6582C55.4844 66.5137 55.6367 66.3203 55.7148 66.0781ZM61.5801 60.5762C62.3145 59.791 63.3086 59.3984 64.5625 59.3984C65.8164 59.3984 66.8086 59.791 67.5391 60.5762C68.2734 61.3613 68.6406 62.4277 68.6406 63.7754C68.6406 65.1191 68.2734 66.1836 67.5391 66.9688C66.8047 67.7539 65.8125 68.1465 64.5625 68.1465C63.3086 68.1465 62.3145 67.7539 61.5801 66.9688C60.8496 66.1836 60.4844 65.1191 60.4844 63.7754C60.4844 62.4277 60.8496 61.3613 61.5801 60.5762ZM66.2148 61.6602C65.8047 61.1367 65.2539 60.875 64.5625 60.875C63.8711 60.875 63.3184 61.1367 62.9043 61.6602C62.4941 62.1836 62.2891 62.8887 62.2891 63.7754C62.2891 64.6582 62.4941 65.3613 62.9043 65.8848C63.3145 66.4043 63.8672 66.6641 64.5625 66.6641C65.2539 66.6641 65.8047 66.4043 66.2148 65.8848C66.625 65.3613 66.8301 64.6582 66.8301 63.7754C66.8301 62.8887 66.625 62.1836 66.2148 61.6602ZM69.6367 68V61.7188H71.2891V62.8496H71.3242C71.4336 62.4512 71.6172 62.1465 71.875 61.9355C72.1328 61.7246 72.4473 61.6191 72.8184 61.6191C72.998 61.6191 73.1602 61.6406 73.3047 61.6836V63.1895C73.1445 63.123 72.9375 63.0898 72.6836 63.0898C72.2617 63.0898 71.9336 63.2129 71.6992 63.459C71.4648 63.7051 71.3477 64.0488 71.3477 64.4902V68H69.6367ZM76.1289 68.0996C75.3438 68.0996 74.7207 67.8086 74.2598 67.2266C73.7988 66.6445 73.5684 65.8516 73.5684 64.8477C73.5684 63.8516 73.7988 63.0645 74.2598 62.4863C74.7246 61.9082 75.3516 61.6191 76.1406 61.6191C76.5859 61.6191 76.9766 61.7266 77.3125 61.9414C77.6523 62.1562 77.9004 62.4414 78.0566 62.7969H78.0918V59.5449H79.8027V68H78.1152V66.9219H78.0859C77.9297 67.2773 77.6777 67.5625 77.3301 67.7773C76.9824 67.9922 76.582 68.0996 76.1289 68.0996ZM76.709 62.9902C76.2793 62.9902 75.9395 63.1582 75.6895 63.4941C75.4434 63.8301 75.3203 64.2852 75.3203 64.8594C75.3203 65.4375 75.4434 65.8926 75.6895 66.2246C75.9395 66.5566 76.2793 66.7227 76.709 66.7227C77.1348 66.7227 77.4727 66.5566 77.7227 66.2246C77.9766 65.8887 78.1035 65.4336 78.1035 64.8594C78.1035 64.2891 77.9766 63.8359 77.7227 63.5C77.4727 63.1602 77.1348 62.9902 76.709 62.9902ZM83.7637 62.8496C83.3926 62.8496 83.082 62.9766 82.832 63.2305C82.5859 63.4844 82.4473 63.8086 82.416 64.2031H85.082C85.0625 63.8008 84.9316 63.4746 84.6895 63.2246C84.4512 62.9746 84.1426 62.8496 83.7637 62.8496ZM85.1055 66.0781H86.6758C86.582 66.6953 86.2734 67.1934 85.75 67.5723C85.2305 67.9473 84.584 68.1348 83.8105 68.1348C82.8457 68.1348 82.0879 67.8457 81.5371 67.2676C80.9902 66.6895 80.7168 65.8965 80.7168 64.8887C80.7168 63.8848 80.9902 63.084 81.5371 62.4863C82.084 61.8848 82.8203 61.584 83.7461 61.584C84.6562 61.584 85.3809 61.8691 85.9199 62.4395C86.459 63.0098 86.7285 63.7734 86.7285 64.7305V65.252H82.3984V65.3574C82.3984 65.8066 82.5293 66.1719 82.791 66.4531C83.0566 66.7305 83.4062 66.8691 83.8398 66.8691C84.1523 66.8691 84.4219 66.7988 84.6484 66.6582C84.875 66.5137 85.0273 66.3203 85.1055 66.0781ZM87.6133 68V61.7188H89.2656V62.8496H89.3008C89.4102 62.4512 89.5938 62.1465 89.8516 61.9355C90.1094 61.7246 90.4238 61.6191 90.7949 61.6191C90.9746 61.6191 91.1367 61.6406 91.2812 61.6836V63.1895C91.1211 63.123 90.9141 63.0898 90.6602 63.0898C90.2383 63.0898 89.9102 63.2129 89.6758 63.459C89.4414 63.7051 89.3242 64.0488 89.3242 64.4902V68H87.6133ZM91.8789 63.5645C91.8789 62.9668 92.1191 62.4883 92.5996 62.1289C93.0801 61.7656 93.7227 61.584 94.5273 61.584C95.3125 61.584 95.9434 61.7676 96.4199 62.1348C96.8965 62.502 97.1406 62.9902 97.1523 63.5996H95.5762C95.5566 63.3457 95.4512 63.1465 95.2598 63.002C95.0723 62.8574 94.8203 62.7852 94.5039 62.7852C94.207 62.7852 93.9688 62.8477 93.7891 62.9727C93.6133 63.0938 93.5254 63.2559 93.5254 63.459C93.5254 63.7637 93.7988 63.9805 94.3457 64.1094L95.5469 64.3672C96.1758 64.5078 96.627 64.7129 96.9004 64.9824C97.1777 65.248 97.3164 65.6152 97.3164 66.084C97.3164 66.7012 97.0586 67.1973 96.543 67.5723C96.0273 67.9473 95.3535 68.1348 94.5215 68.1348C93.6934 68.1348 93.0312 67.9512 92.5352 67.584C92.0391 67.2168 91.7676 66.7227 91.7207 66.1016H93.3906C93.4336 66.3672 93.5547 66.5723 93.7539 66.7168C93.957 66.8613 94.2285 66.9336 94.5684 66.9336C94.8926 66.9336 95.1465 66.875 95.3301 66.7578C95.5176 66.6367 95.6113 66.4727 95.6113 66.2656C95.6113 66.1055 95.5527 65.9785 95.4355 65.8848C95.3184 65.7871 95.1191 65.7051 94.8379 65.6387L93.6777 65.3809C92.4785 65.1074 91.8789 64.502 91.8789 63.5645Z" fill="#A8A8A8"/>
<defs>
<filter id="filter0_d_57_477" x="0" y="0" width="132" height="95" filterUnits="userSpaceOnUse" color-interpolation-filters="sRGB">
<feFlood flood-opacity="0" result="BackgroundImageFix"/>
<feColorMatrix in="SourceAlpha" type="matrix" values="0 0 0 0 0 0 0 0 0 0 0 0 0 0 0 0 0 0 127 0" result="hardAlpha"/>
<feOffset dy="4"/>
<feGaussianBlur stdDeviation="2"/>
<feComposite in2="hardAlpha" operator="out"/>
<feColorMatrix type="matrix" values="0 0 0 0 0.5125 0 0 0 0 0.5125 0 0 0 0 0.5125 0 0 0 0.15 0"/>
<feBlend mode="normal" in2="BackgroundImageFix" result="effect1_dropShadow_57_477"/>
<feBlend mode="normal" in="SourceGraphic" in2="effect1_dropShadow_57_477" result="shape"/>
</filter>
</defs>
</svg>
