<svg width="132" height="95" viewBox="0 0 132 95" fill="none" xmlns="http://www.w3.org/2000/svg">
<g filter="url(#filter0_d_57_445)">
<rect x="4" width="124" height="87" rx="25" fill="white"/>
</g>
<path d="M89 29.2979C89 24.9226 75.2451 23.3347 66 23.3347C63.9862 23.3347 62.0074 23.4037 60.089 23.5256L56.426 10.9909C56.1125 9.95263 55.4032 9.07935 54.4512 8.55971C53.4992 8.04007 52.381 7.91579 51.3382 8.21371C50.2954 8.51162 49.4116 9.20783 48.8777 10.1519C48.3439 11.096 48.2028 12.2123 48.4851 13.2595L51.7017 24.5274C47.5489 25.3222 43 26.7704 43 29.2979C43.0114 32.9003 43.8646 36.4501 45.4915 39.6642C47.1184 42.8782 49.4741 45.6675 52.3704 47.8094V50.1197C52.3668 50.6925 52.5569 51.2497 52.9097 51.7009C53.2626 52.1521 53.7575 52.4709 54.3143 52.6055C61.9938 54.4648 70.0062 54.4648 77.6857 52.6055C78.2425 52.4709 78.7374 52.1521 79.0903 51.7009C79.4431 51.2497 79.6332 50.6925 79.6296 50.1197V47.8111C82.5261 45.669 84.8818 42.8794 86.5088 39.6651C88.1357 36.4507 88.9888 32.9006 89 29.2979V29.2979ZM63.0074 33.5096L61.5601 28.5593C63.0177 28.4895 64.5016 28.446 66 28.446C74.0159 28.446 81.3001 29.4487 85.0219 31.0026C81.87 32.2855 75.47 33.5582 66 33.5582C64.9607 33.5582 63.9717 33.5386 63.0074 33.5096V33.5096ZM66 25.0377C79.9823 25.0377 87.2963 27.8114 87.2963 29.2979C87.2721 29.4391 87.2193 29.5739 87.1412 29.694C87.0632 29.8141 86.9614 29.917 86.8423 29.9965C83.2526 28.0124 75.1957 26.7423 66 26.7423C64.3346 26.7423 62.682 26.7908 61.0678 26.8752L60.5797 25.2055C62.3447 25.1024 64.1549 25.0377 66 25.0377ZM50.5193 10.6672C50.9151 10.1643 51.4903 9.8343 52.1242 9.74646C52.7581 9.65862 53.4014 9.81978 53.919 10.1961C54.3403 10.5133 54.6461 10.9597 54.7896 11.4671L61.2126 33.4423C59.4338 33.3559 57.6585 33.2068 55.8902 32.9951L50.1232 12.7927C50.0187 12.432 50.0001 12.052 50.0689 11.6829C50.1377 11.3138 50.292 10.966 50.5193 10.6672V10.6672ZM54.0485 32.7455C51.638 32.431 49.2702 31.8481 46.9892 31.0077C48.9639 30.2635 51.0123 29.7318 53.0996 29.4215L54.0485 32.7455ZM52.1727 26.1766L52.6285 27.7731C50.0382 28.123 47.5181 28.8737 45.1586 29.9982C45.0394 29.9187 44.9377 29.8157 44.8597 29.6956C44.7816 29.5755 44.7288 29.4408 44.7046 29.2996C44.7046 28.5909 46.7166 27.204 52.1727 26.1766V26.1766ZM77.9259 50.1197C77.9267 50.3089 77.8645 50.4929 77.7492 50.6429C77.6338 50.7928 77.4718 50.9001 77.2887 50.9477C69.8702 52.7449 62.1298 52.7449 54.7113 50.9477C54.5282 50.9001 54.3662 50.7928 54.2508 50.6429C54.1355 50.4929 54.0733 50.3089 54.0741 50.1197V48.8334C61.8383 51.2733 70.1647 51.2682 77.9259 48.8189V50.1197ZM77.6678 47.1083C70.0946 49.5475 61.9479 49.5558 54.3697 47.1321C51.7688 45.4246 49.5711 43.171 47.9294 40.5281C46.2876 37.8851 45.2413 34.9163 44.863 31.828C48.9306 34.3036 58.8223 35.262 66 35.262C73.1777 35.262 83.0694 34.3036 87.137 31.828C86.7598 34.9091 85.7176 37.8713 84.0826 40.5098C82.4476 43.1483 80.2589 45.4001 77.6678 47.1091V47.1083ZM64.2963 21.6301C64.4106 21.6269 64.5231 21.601 64.6273 21.5541C64.7316 21.5072 64.8255 21.4401 64.9037 21.3567C65.0646 21.1861 65.1518 20.959 65.1464 20.7246C65.1464 20.7143 65.1413 19.6001 66.736 16.8698C67.3051 15.9771 67.6355 14.9533 67.6955 13.8963C67.7555 12.8393 67.543 11.7846 67.0784 10.8333C66.3714 9.35871 65.0681 8.10303 64.4207 8.00762C64.2546 7.98516 64.0855 8.01261 63.935 8.08648C63.7846 8.16036 63.6595 8.27732 63.5756 8.42249C63.4902 8.56935 63.4496 8.73796 63.4587 8.9076C63.4677 9.07724 63.5262 9.24054 63.6267 9.37745C63.66 9.4226 64.413 10.5019 62.7655 12.6725C60.8974 15.1311 61.9954 18.2745 62.8166 19.9289C63.66 21.6301 63.9138 21.6301 64.2963 21.6301V21.6301ZM64.1225 13.7025C64.6999 12.9808 65.1284 12.1519 65.3833 11.2635C65.584 11.6169 65.7403 11.9937 65.8484 12.3855C66.0048 12.9975 66.0337 13.6352 65.9333 14.2589C65.8329 14.8826 65.6054 15.479 65.2649 16.0111C64.7962 16.7985 64.3826 17.6174 64.0271 18.462C63.4572 17.0708 63.0296 15.1422 64.1225 13.7025V13.7025ZM71.963 21.6301C72.0772 21.6269 72.1897 21.601 72.294 21.5541C72.3982 21.5072 72.4921 21.4401 72.5703 21.3567C72.7313 21.1861 72.8185 20.959 72.8131 20.7246C72.8131 20.7143 72.808 19.6001 74.4027 16.8698C74.9718 15.9771 75.3022 14.9533 75.3622 13.8963C75.4221 12.8393 75.2097 11.7846 74.7451 10.8333C74.0381 9.35871 72.7347 8.10303 72.0873 8.00762C71.9212 7.98527 71.7522 8.01278 71.6018 8.08664C71.4513 8.1605 71.3262 8.2774 71.2423 8.42249C71.1569 8.56935 71.1163 8.73796 71.1253 8.9076C71.1344 9.07724 71.1928 9.24054 71.2934 9.37745C71.3266 9.4226 72.0797 10.5019 70.4322 12.6725C68.5641 15.1311 69.6621 18.2745 70.4833 19.9289C71.3266 21.6301 71.5805 21.6301 71.963 21.6301V21.6301ZM71.7892 13.7025C72.3666 12.9808 72.7951 12.1519 73.0499 11.2635C73.2507 11.6169 73.4069 11.9937 73.515 12.3855C73.6714 12.9975 73.7004 13.6352 73.6 14.2589C73.4996 14.8826 73.2721 15.479 72.9315 16.0111C72.4628 16.7985 72.0493 17.6174 71.6938 18.462C71.1239 17.0708 70.6963 15.1422 71.7892 13.7025V13.7025ZM79.6296 21.6301C79.7439 21.6269 79.8564 21.601 79.9606 21.5541C80.0649 21.5072 80.1588 21.4401 80.237 21.3567C80.3979 21.1861 80.4852 20.959 80.4798 20.7246C80.4798 20.7143 80.4747 19.6001 82.0693 16.8698C82.6385 15.9771 82.9689 14.9533 83.0288 13.8963C83.0888 12.8393 82.8763 11.7846 82.4118 10.8333C81.7047 9.35871 80.4014 8.10303 79.754 8.00762C79.5879 7.98539 79.4189 8.01294 79.2685 8.0868C79.1181 8.16065 78.993 8.27748 78.909 8.42249C78.8236 8.56935 78.7829 8.73796 78.792 8.9076C78.8011 9.07724 78.8595 9.24054 78.9601 9.37745C78.9933 9.4226 79.7463 10.5019 78.0989 12.6725C76.2307 15.1311 77.3288 18.2745 78.15 19.9289C78.9933 21.6301 79.2471 21.6301 79.6296 21.6301V21.6301ZM79.4559 13.7025C80.0332 12.9808 80.4617 12.1519 80.7166 11.2635C80.9174 11.6169 81.0736 11.9937 81.1817 12.3855C81.3381 12.9975 81.367 13.6352 81.2666 14.2589C81.1663 14.8826 80.9387 15.479 80.5982 16.0111C80.1295 16.7985 79.7159 17.6174 79.3604 18.462C78.7906 17.0708 78.3629 15.1422 79.4559 13.7025V13.7025Z" fill="#A8A8A8"/>
<path d="M48.543 65.5918H50.248C50.2871 65.9355 50.4688 66.2148 50.793 66.4297C51.1211 66.6406 51.5215 66.7461 51.9941 66.7461C52.4629 66.7461 52.8438 66.6465 53.1367 66.4473C53.4336 66.2441 53.582 65.9863 53.582 65.6738C53.582 65.4004 53.4727 65.1797 53.2539 65.0117C53.0352 64.8438 52.6699 64.7031 52.1582 64.5898L51.0566 64.3496C49.5059 64.0176 48.7305 63.2305 48.7305 61.9883C48.7305 61.2148 49.0312 60.5898 49.6328 60.1133C50.2383 59.6367 51.0156 59.3984 51.9648 59.3984C52.9414 59.3984 53.7207 59.6309 54.3027 60.0957C54.8848 60.5566 55.1836 61.1719 55.1992 61.9414H53.541C53.5137 61.5859 53.3555 61.3066 53.0664 61.1035C52.7812 60.8965 52.416 60.793 51.9707 60.793C51.5332 60.793 51.1797 60.8887 50.9102 61.0801C50.6445 61.2715 50.5117 61.5234 50.5117 61.8359C50.5117 62.0938 50.6191 62.3027 50.834 62.4629C51.0527 62.623 51.4062 62.7598 51.8945 62.873L52.9199 63.0898C53.7676 63.2695 54.3848 63.5508 54.7715 63.9336C55.1582 64.3125 55.3516 64.8242 55.3516 65.4688C55.3516 66.2891 55.043 66.9414 54.4258 67.4258C53.8086 67.9062 52.9746 68.1465 51.9238 68.1465C50.9043 68.1465 50.0918 67.9199 49.4863 67.4668C48.8848 67.0098 48.5703 66.3848 48.543 65.5918ZM61.4512 67.2676C60.8926 67.8457 60.1348 68.1348 59.1777 68.1348C58.2207 68.1348 57.4629 67.8438 56.9043 67.2617C56.3457 66.6797 56.0664 65.877 56.0664 64.8535C56.0664 63.8418 56.3477 63.0449 56.9102 62.4629C57.4766 61.877 58.2324 61.584 59.1777 61.584C60.127 61.584 60.8828 61.877 61.4453 62.4629C62.0078 63.0449 62.2891 63.8418 62.2891 64.8535C62.2891 65.8809 62.0098 66.6855 61.4512 67.2676ZM59.1777 66.8281C59.5996 66.8281 59.9336 66.6562 60.1797 66.3125C60.4258 65.9688 60.5488 65.4844 60.5488 64.8594C60.5488 64.2422 60.4258 63.7598 60.1797 63.4121C59.9336 63.0645 59.5996 62.8906 59.1777 62.8906C58.7559 62.8906 58.4199 63.0645 58.1699 63.4121C57.9238 63.7598 57.8008 64.2422 57.8008 64.8594C57.8008 65.4844 57.9238 65.9688 58.1699 66.3125C58.416 66.6562 58.752 66.8281 59.1777 66.8281ZM68.9746 61.7188V68H67.3223V66.8691H67.2871C66.959 67.7012 66.332 68.1172 65.4062 68.1172C64.7188 68.1172 64.1699 67.9082 63.7598 67.4902C63.3496 67.0684 63.1445 66.4941 63.1445 65.7676V61.7188H64.8555V65.4102C64.8555 65.8281 64.9551 66.1465 65.1543 66.3652C65.3574 66.584 65.6484 66.6934 66.0273 66.6934C66.4062 66.6934 66.707 66.5684 66.9297 66.3184C67.1523 66.0684 67.2637 65.7344 67.2637 65.3164V61.7188H68.9746ZM73.7559 61.6191C74.5527 61.6191 75.1797 61.9062 75.6367 62.4805C76.0977 63.0547 76.3281 63.8477 76.3281 64.8594C76.3281 65.8672 76.1016 66.6602 75.6484 67.2383C75.1953 67.8125 74.5742 68.0996 73.7852 68.0996C73.3359 68.0996 72.9395 67.998 72.5957 67.7949C72.2559 67.5879 72.002 67.3047 71.834 66.9453H71.7988V70.0508H70.0879V61.7188H71.7754V62.8145H71.8105C71.9824 62.4395 72.2363 62.1465 72.5723 61.9355C72.9121 61.7246 73.3066 61.6191 73.7559 61.6191ZM73.1816 66.7227C73.6074 66.7227 73.9453 66.5547 74.1953 66.2188C74.4492 65.8828 74.5762 65.4297 74.5762 64.8594C74.5762 64.2891 74.4492 63.8359 74.1953 63.5C73.9453 63.1602 73.6074 62.9902 73.1816 62.9902C72.7637 62.9902 72.4277 63.1621 72.1738 63.5059C71.9199 63.8457 71.793 64.2969 71.793 64.8594C71.793 65.4258 71.918 65.8789 72.168 66.2188C72.4219 66.5547 72.7598 66.7227 73.1816 66.7227ZM77.1074 63.5645C77.1074 62.9668 77.3477 62.4883 77.8281 62.1289C78.3086 61.7656 78.9512 61.584 79.7559 61.584C80.541 61.584 81.1719 61.7676 81.6484 62.1348C82.125 62.502 82.3691 62.9902 82.3809 63.5996H80.8047C80.7852 63.3457 80.6797 63.1465 80.4883 63.002C80.3008 62.8574 80.0488 62.7852 79.7324 62.7852C79.4355 62.7852 79.1973 62.8477 79.0176 62.9727C78.8418 63.0938 78.7539 63.2559 78.7539 63.459C78.7539 63.7637 79.0273 63.9805 79.5742 64.1094L80.7754 64.3672C81.4043 64.5078 81.8555 64.7129 82.1289 64.9824C82.4062 65.248 82.5449 65.6152 82.5449 66.084C82.5449 66.7012 82.2871 67.1973 81.7715 67.5723C81.2559 67.9473 80.582 68.1348 79.75 68.1348C78.9219 68.1348 78.2598 67.9512 77.7637 67.584C77.2676 67.2168 76.9961 66.7227 76.9492 66.1016H78.6191C78.6621 66.3672 78.7832 66.5723 78.9824 66.7168C79.1855 66.8613 79.457 66.9336 79.7969 66.9336C80.1211 66.9336 80.375 66.875 80.5586 66.7578C80.7461 66.6367 80.8398 66.4727 80.8398 66.2656C80.8398 66.1055 80.7812 65.9785 80.6641 65.8848C80.5469 65.7871 80.3477 65.7051 80.0664 65.6387L78.9062 65.3809C77.707 65.1074 77.1074 64.502 77.1074 63.5645Z" fill="#A8A8A8"/>
<defs>
<filter id="filter0_d_57_445" x="0" y="0" width="132" height="95" filterUnits="userSpaceOnUse" color-interpolation-filters="sRGB">
<feFlood flood-opacity="0" result="BackgroundImageFix"/>
<feColorMatrix in="SourceAlpha" type="matrix" values="0 0 0 0 0 0 0 0 0 0 0 0 0 0 0 0 0 0 127 0" result="hardAlpha"/>
<feOffset dy="4"/>
<feGaussianBlur stdDeviation="2"/>
<feComposite in2="hardAlpha" operator="out"/>
<feColorMatrix type="matrix" values="0 0 0 0 0.5125 0 0 0 0 0.5125 0 0 0 0 0.5125 0 0 0 0.15 0"/>
<feBlend mode="normal" in2="BackgroundImageFix" result="effect1_dropShadow_57_445"/>
<feBlend mode="normal" in="SourceGraphic" in2="effect1_dropShadow_57_445" result="shape"/>
</filter>
</defs>
</svg>
