<svg width="132" height="95" viewBox="0 0 132 95" fill="none" xmlns="http://www.w3.org/2000/svg">
<g filter="url(#filter0_d_57_495)">
<rect x="4" width="124" height="87" rx="25" fill="white"/>
</g>
<path d="M86.3848 29.3022H83.711C83.6095 28.8327 83.4552 28.3765 83.2511 27.9427C82.9828 27.325 82.7891 26.8786 82.9398 26.1633C83.0924 25.4387 83.5147 24.9778 83.923 24.532C84.4021 24.0091 84.9451 23.4163 84.8454 22.4987C84.7496 21.6104 84.1475 21.2082 83.6163 20.8533C83.1937 20.571 82.7945 20.3043 82.513 19.7714C82.0089 18.817 82.3341 17.7912 82.6488 16.7993C82.9677 15.7939 83.2974 14.7542 82.6172 13.9123C82.208 13.4059 81.485 13.1078 80.5812 13.0729C79.3462 13.0252 77.6133 13.4942 76.5244 14.6495C75.8119 15.4057 75.6078 16.2103 75.4277 16.9201C75.2415 17.654 75.0944 18.2337 74.4475 18.7652C74.007 19.127 73.6447 19.2104 73.2611 19.2987C72.7859 19.4081 72.2473 19.5321 71.7912 20.155C71.1376 21.0481 71.3784 21.9858 71.5909 22.8131C71.7738 23.5251 71.9629 24.2613 71.7183 25.1295C71.6984 25.2 71.6762 25.2667 71.6527 25.332C71.3841 25.2789 71.1111 25.252 70.8374 25.2519C70.79 25.2519 70.743 25.2548 70.6959 25.2563C70.687 25.2341 70.6769 25.2124 70.6655 25.1914C70.1708 24.2834 69.5096 23.9136 68.9783 23.6165C68.5001 23.349 68.1546 23.1559 67.9047 22.6337C67.6391 22.0783 67.6884 21.5749 67.7406 21.042C67.8023 20.4123 67.8792 19.6286 67.2226 18.9979C66.7702 18.564 66.3066 18.5306 65.934 18.5037C65.637 18.4823 65.3806 18.4638 65.0315 18.265C64.5238 17.9759 64.3621 17.613 64.1381 17.1109C63.9099 16.5994 63.6514 16.0196 62.9936 15.5275C61.7956 14.632 59.7656 14.4968 58.6781 15.17C58.4891 15.1347 58.298 15.1123 58.1061 15.1029C57.7135 15.0755 57.3427 15.0495 56.8526 14.7608C56.1332 14.3367 55.9 13.7871 55.6048 13.0911C55.319 12.4176 54.9953 11.6543 54.176 11.0182C52.9249 10.0464 51.1414 9.85347 49.9284 10.0934C49.041 10.2689 48.372 10.6763 48.0448 11.2401C47.5001 12.1781 47.9836 13.1541 48.4511 14.0978C48.9124 15.029 49.3894 15.992 49.0363 17.0134C48.8387 17.5836 48.4848 17.9093 48.1101 18.2544C47.6389 18.6881 47.1049 19.1798 47.145 20.072C47.1855 20.9946 47.8118 21.4952 48.3643 21.9369C48.8355 22.3135 49.3226 22.703 49.5834 23.3957C49.8408 24.079 49.7171 24.5504 49.5458 25.203C49.4092 25.7236 49.2543 26.3137 49.3014 27.065C49.3649 27.8504 49.5925 28.613 49.9692 29.3022H45.6152C45.4521 29.3022 45.2956 29.368 45.1802 29.485C45.0648 29.602 45 29.7607 45 29.9262C45 36.9135 49.5199 42.8495 55.7502 44.8879V46.6701C55.7515 47.8181 56.2018 48.9186 57.0022 49.7303C57.8027 50.5421 58.8879 50.9987 60.0199 51H71.9801C73.1121 50.9987 74.1973 50.5421 74.9978 49.7303C75.7982 48.9186 76.2485 47.8181 76.2498 46.6701V44.8946C79.3718 43.8722 82.094 41.8727 84.0255 39.1834C85.9569 36.494 86.9983 33.2532 87 29.9262C87 29.7607 86.9352 29.602 86.8198 29.485C86.7044 29.368 86.5479 29.3022 86.3848 29.3022ZM72.7792 20.8987C72.9548 20.6588 73.1101 20.6129 73.5334 20.5155C73.9662 20.4158 74.559 20.2794 75.222 19.7346C76.1848 18.9438 76.4156 18.0338 76.6194 17.231C76.7826 16.5876 76.9236 16.0321 77.414 15.5115C78.1167 14.7659 79.3991 14.2756 80.5344 14.3197C81.0651 14.3403 81.488 14.4836 81.6654 14.703C81.9036 14.9979 81.7533 15.5473 81.4774 16.4171C81.1211 17.5408 80.6776 18.9392 81.4284 20.3604C81.8571 21.1722 82.4572 21.5731 82.9394 21.8952C83.4209 22.2169 83.5921 22.3544 83.6224 22.6348C83.657 22.9536 83.4755 23.1871 83.0215 23.6827C82.5486 24.199 81.96 24.8414 81.7365 25.9025C81.5027 27.0123 81.8333 27.7736 82.125 28.4454C82.2532 28.7226 82.3612 29.009 82.4482 29.3022H77.7849C77.8644 29.0467 77.9423 28.7907 78.0186 28.5343L80.0696 27.3654C80.2118 27.2843 80.3165 27.1493 80.3605 26.9899C80.4046 26.8306 80.3844 26.6601 80.3044 26.5158C80.2245 26.3716 80.0913 26.2654 79.9342 26.2208C79.7771 26.1761 79.6089 26.1966 79.4667 26.2776L78.4922 26.833C78.8989 25.276 79.242 23.6904 79.5114 22.1056C79.5264 22.0243 79.5254 21.9408 79.5083 21.86C79.4913 21.7791 79.4585 21.7024 79.412 21.6345C79.3654 21.5666 79.3061 21.5087 79.2373 21.4643C79.1685 21.4198 79.0917 21.3897 79.0113 21.3757C78.9309 21.3616 78.8486 21.3639 78.7691 21.3824C78.6896 21.4009 78.6145 21.4352 78.5483 21.4834C78.482 21.5316 78.4258 21.5927 78.383 21.6631C78.3402 21.7335 78.3116 21.8118 78.2989 21.8935C78.1149 22.9729 77.8982 24.0464 77.6492 25.1124L77.0445 23.6227C77.0138 23.5469 76.9686 23.4781 76.9116 23.42C76.8546 23.3619 76.7869 23.3158 76.7123 23.2843C76.6377 23.2528 76.5577 23.2365 76.4769 23.2363C76.3961 23.2361 76.3161 23.2521 76.2414 23.2833C76.1667 23.3145 76.0988 23.3603 76.0415 23.4181C75.9842 23.4759 75.9388 23.5446 75.9077 23.6202C75.8449 23.7729 75.8446 23.9447 75.9067 24.0977L77.1376 27.1303C77.1123 27.2228 77.0878 27.3158 77.0619 27.408C77.0122 27.5856 76.9614 27.763 76.9094 27.9401L76.9067 27.9497C76.7749 28.402 76.6369 28.8528 76.4928 29.3022H75.0917C75.0446 28.561 74.8103 27.8445 74.4113 27.2217C74.0123 26.5989 73.462 26.0907 72.8133 25.7459C72.8457 25.6557 72.8751 25.5644 72.9014 25.4722C73.2383 24.2763 72.985 23.2905 72.7816 22.4984C72.5814 21.7186 72.4904 21.2934 72.7791 20.8987L72.7792 20.8987ZM70.8374 26.4997C71.5948 26.5007 72.3244 26.7887 72.8832 27.3072C73.4419 27.8257 73.7894 28.5373 73.8574 29.3022H68.9393C68.9035 28.7188 68.7511 28.1489 68.4912 27.6271C68.775 27.2741 69.1328 26.9896 69.5387 26.7946C69.9446 26.5996 70.3882 26.4988 70.8374 26.4997ZM62.2632 16.5317C62.6625 16.8305 62.8189 17.1812 63.0169 17.6252C63.263 18.1767 63.5692 18.8632 64.429 19.353C64.8631 19.5989 65.3495 19.7345 65.8466 19.7483C66.1552 19.7706 66.2499 19.7825 66.3768 19.9042C66.5772 20.0967 66.5745 20.3224 66.5161 20.9185C66.4556 21.5365 66.3802 22.3055 66.7976 23.1784C67.2183 24.0572 67.8377 24.4036 68.3841 24.7091C68.7706 24.9253 69.114 25.1176 69.4029 25.5041C68.7803 25.7285 68.218 26.0976 67.7612 26.5818C67.364 26.1603 66.8866 25.8251 66.3578 25.5965C65.829 25.3679 65.2599 25.2507 64.685 25.2519C64.6421 25.2519 64.5996 25.2539 64.5569 25.2552C64.4589 24.8594 64.3151 24.4767 64.1285 24.1151C63.5131 22.9303 62.7092 22.4647 61.9998 22.0541C61.3677 21.6881 60.8684 21.399 60.5153 20.6237C60.1418 19.8038 60.2168 19.0469 60.2893 18.3149C60.363 17.572 60.4451 16.7425 59.944 16.0244C60.6394 15.9182 61.6143 16.0466 62.2632 16.5317ZM67.7044 29.3022H61.6649C61.7314 28.5366 62.0783 27.8239 62.6373 27.3048C63.1963 26.7857 63.9267 26.4978 64.6847 26.4978C65.4426 26.4978 66.1731 26.7857 66.7321 27.3048C67.291 27.8239 67.6379 28.5366 67.7044 29.3022ZM49.1262 20.9569C48.6028 20.5386 48.3883 20.3364 48.3742 20.016C48.3616 19.7344 48.51 19.5716 48.9373 19.1783C49.3646 18.7848 49.8965 18.2951 50.1973 17.4266C50.7235 15.9051 50.0732 14.5924 49.5508 13.5377C49.1463 12.7213 48.9144 12.2018 49.1053 11.8732C49.2472 11.6286 49.643 11.4211 50.1641 11.3181C51.2783 11.0978 52.6205 11.3817 53.428 12.0088C53.9921 12.4468 54.2156 12.9739 54.4745 13.5843C54.7975 14.3455 55.1635 15.2084 56.2345 15.8396C56.9724 16.2744 57.5787 16.3168 58.0214 16.3478C58.4544 16.3781 58.6147 16.3992 58.8245 16.6089C59.1699 16.954 59.1446 17.3884 59.0651 18.1901C58.9844 19.0045 58.884 20.0179 59.3983 21.147C59.9164 22.2847 60.6992 22.7379 61.3898 23.1377C62.0348 23.5112 62.5916 23.8335 63.0398 24.6965C63.1675 24.9437 63.2687 25.204 63.3417 25.4731C62.5362 25.7456 61.8291 26.2555 61.3107 26.9375C60.7923 27.6196 60.4861 28.4428 60.4312 29.3022H58.4808C58.1168 28.7092 57.7655 28.1088 57.427 27.5011L58.1855 24.3036C58.2237 24.1427 58.1973 23.9731 58.1121 23.8319C58.0269 23.6908 57.8899 23.5898 57.7313 23.551C57.5726 23.5123 57.4053 23.5391 57.2662 23.6255C57.127 23.7119 57.0274 23.8508 56.9892 24.0117L56.5517 25.856C56.1173 25.0009 55.7075 24.1315 55.3223 23.2479L56.0079 20.8369C56.0302 20.7581 56.0371 20.6757 56.0281 20.5943C56.0191 20.5129 55.9943 20.434 55.9552 20.3623C55.9162 20.2906 55.8636 20.2274 55.8004 20.1763C55.7373 20.1252 55.6648 20.0872 55.5872 20.0645C55.5095 20.0418 55.4282 20.0348 55.348 20.044C55.2677 20.0531 55.1899 20.0782 55.1192 20.1179C55.0485 20.1575 54.9862 20.2108 54.9358 20.2749C54.8854 20.3389 54.8479 20.4124 54.8255 20.4911L54.5645 21.4092C54.1865 20.4369 53.8399 19.4543 53.5248 18.4613C53.5005 18.3827 53.4612 18.3098 53.409 18.2467C53.3568 18.1836 53.2929 18.1316 53.2208 18.0937C53.1487 18.0558 53.0699 18.0327 52.989 18.0259C52.9081 18.019 52.8266 18.0284 52.7493 18.0536C52.672 18.0788 52.6004 18.1193 52.5386 18.1727C52.4768 18.2261 52.426 18.2913 52.3892 18.3647C52.3524 18.4381 52.3303 18.5182 52.3241 18.6003C52.318 18.6824 52.3279 18.7649 52.3534 18.8431C52.8577 20.4318 53.44 21.994 54.0982 23.5237C54.1027 23.5352 54.1075 23.5465 54.1126 23.5577C54.1271 23.5914 54.1413 23.6251 54.1558 23.6587L52.9496 23.2015C52.7969 23.1443 52.6281 23.1508 52.4801 23.2195C52.3322 23.2882 52.2171 23.4136 52.1601 23.5682C52.1031 23.7228 52.1088 23.894 52.176 24.0443C52.2432 24.1946 52.3664 24.3118 52.5187 24.3702L54.8878 25.2683C55.0819 25.6762 55.2811 26.0811 55.4853 26.483C55.6219 26.7512 55.7612 27.0183 55.9033 27.2841L54.4439 26.7309C54.3682 26.7019 54.2875 26.6882 54.2065 26.6909C54.1256 26.6935 54.0459 26.7123 53.9722 26.7462C53.8984 26.7801 53.832 26.8285 53.7767 26.8885C53.7214 26.9485 53.6783 27.019 53.6499 27.096C53.6216 27.1729 53.6085 27.2548 53.6114 27.3368C53.6143 27.4189 53.6331 27.4996 53.6669 27.5743C53.7006 27.649 53.7485 27.7162 53.8079 27.772C53.8674 27.8279 53.937 27.8712 54.013 27.8997L56.8456 28.9735C56.9095 29.0833 56.9745 29.1928 57.0392 29.3022H51.4061C50.8843 28.5199 50.5746 27.7065 50.5294 26.9859C50.4951 26.4379 50.6116 25.994 50.735 25.5239C50.9212 24.8145 51.1322 24.0103 50.733 22.9506C50.3512 21.9363 49.672 21.3932 49.1262 20.9569ZM75.0194 46.6701C75.0185 47.4873 74.698 48.2707 74.1282 48.8485C73.5584 49.4263 72.7859 49.7513 71.9801 49.7522H60.0199C59.2141 49.7513 58.4416 49.4262 57.8718 48.8484C57.3021 48.2706 56.9816 47.4872 56.9807 46.6701V45.2349C58.1342 45.5071 59.3147 45.6442 60.499 45.6436H71.501C72.6852 45.6441 73.8655 45.5081 75.0193 45.2382L75.0194 46.6701ZM81.5908 40.1579C79.8999 41.8796 77.8067 43.1394 75.5064 43.8198C75.48 43.8256 75.454 43.8333 75.4286 43.8426C74.151 44.2107 72.8292 44.3968 71.5011 44.3958H60.499C52.8373 44.3958 46.5667 38.2405 46.2436 30.5501H85.7566C85.6125 34.1708 84.1245 37.6026 81.5908 40.1579Z" fill="#A8A8A8"/>
<path d="M47.4004 65.5918H49.1055C49.1445 65.9355 49.3262 66.2148 49.6504 66.4297C49.9785 66.6406 50.3789 66.7461 50.8516 66.7461C51.3203 66.7461 51.7012 66.6465 51.9941 66.4473C52.291 66.2441 52.4395 65.9863 52.4395 65.6738C52.4395 65.4004 52.3301 65.1797 52.1113 65.0117C51.8926 64.8438 51.5273 64.7031 51.0156 64.5898L49.9141 64.3496C48.3633 64.0176 47.5879 63.2305 47.5879 61.9883C47.5879 61.2148 47.8887 60.5898 48.4902 60.1133C49.0957 59.6367 49.873 59.3984 50.8223 59.3984C51.7988 59.3984 52.5781 59.6309 53.1602 60.0957C53.7422 60.5566 54.041 61.1719 54.0566 61.9414H52.3984C52.3711 61.5859 52.2129 61.3066 51.9238 61.1035C51.6387 60.8965 51.2734 60.793 50.8281 60.793C50.3906 60.793 50.0371 60.8887 49.7676 61.0801C49.502 61.2715 49.3691 61.5234 49.3691 61.8359C49.3691 62.0938 49.4766 62.3027 49.6914 62.4629C49.9102 62.623 50.2637 62.7598 50.752 62.873L51.7773 63.0898C52.625 63.2695 53.2422 63.5508 53.6289 63.9336C54.0156 64.3125 54.209 64.8242 54.209 65.4688C54.209 66.2891 53.9004 66.9414 53.2832 67.4258C52.666 67.9062 51.832 68.1465 50.7812 68.1465C49.7617 68.1465 48.9492 67.9199 48.3438 67.4668C47.7422 67.0098 47.4277 66.3848 47.4004 65.5918ZM57.5781 66.8633C57.957 66.8633 58.2773 66.7539 58.5391 66.5352C58.8047 66.3125 58.9375 66.0332 58.9375 65.6973V65.2402L57.6133 65.3223C57.293 65.3457 57.0449 65.4258 56.8691 65.5625C56.6973 65.6992 56.6113 65.8789 56.6113 66.1016C56.6113 66.3359 56.6992 66.5215 56.875 66.6582C57.0508 66.7949 57.2852 66.8633 57.5781 66.8633ZM57.0156 68.0996C56.4102 68.0996 55.9082 67.9219 55.5098 67.5664C55.1113 67.2109 54.9121 66.7539 54.9121 66.1953C54.9121 65.625 55.123 65.1777 55.5449 64.8535C55.9668 64.5293 56.5703 64.3438 57.3555 64.2969L58.9375 64.2031V63.7871C58.9375 63.498 58.8418 63.2715 58.6504 63.1074C58.4629 62.9434 58.207 62.8613 57.8828 62.8613C57.5703 62.8613 57.3145 62.9316 57.1152 63.0723C56.9199 63.2129 56.8008 63.4023 56.7578 63.6406H55.1934C55.2246 63.0234 55.4883 62.5273 55.9844 62.1523C56.4805 61.7734 57.1387 61.584 57.959 61.584C58.7637 61.584 59.4082 61.7754 59.8926 62.1582C60.377 62.541 60.6191 63.0488 60.6191 63.6816V68H58.9668V67.0391H58.9316C58.7598 67.3672 58.498 67.627 58.1465 67.8184C57.7949 68.0059 57.418 68.0996 57.0156 68.0996ZM61.7676 68V59.5449H63.4785V68H61.7676ZM67.0586 66.8633C67.4375 66.8633 67.7578 66.7539 68.0195 66.5352C68.2852 66.3125 68.418 66.0332 68.418 65.6973V65.2402L67.0938 65.3223C66.7734 65.3457 66.5254 65.4258 66.3496 65.5625C66.1777 65.6992 66.0918 65.8789 66.0918 66.1016C66.0918 66.3359 66.1797 66.5215 66.3555 66.6582C66.5312 66.7949 66.7656 66.8633 67.0586 66.8633ZM66.4961 68.0996C65.8906 68.0996 65.3887 67.9219 64.9902 67.5664C64.5918 67.2109 64.3926 66.7539 64.3926 66.1953C64.3926 65.625 64.6035 65.1777 65.0254 64.8535C65.4473 64.5293 66.0508 64.3438 66.8359 64.2969L68.418 64.2031V63.7871C68.418 63.498 68.3223 63.2715 68.1309 63.1074C67.9434 62.9434 67.6875 62.8613 67.3633 62.8613C67.0508 62.8613 66.7949 62.9316 66.5957 63.0723C66.4004 63.2129 66.2812 63.4023 66.2383 63.6406H64.6738C64.7051 63.0234 64.9688 62.5273 65.4648 62.1523C65.9609 61.7734 66.6191 61.584 67.4395 61.584C68.2441 61.584 68.8887 61.7754 69.373 62.1582C69.8574 62.541 70.0996 63.0488 70.0996 63.6816V68H68.4473V67.0391H68.4121C68.2402 67.3672 67.9785 67.627 67.627 67.8184C67.2754 68.0059 66.8984 68.0996 66.4961 68.0996ZM73.5391 68.0996C72.7539 68.0996 72.1309 67.8086 71.6699 67.2266C71.209 66.6445 70.9785 65.8516 70.9785 64.8477C70.9785 63.8516 71.209 63.0645 71.6699 62.4863C72.1348 61.9082 72.7617 61.6191 73.5508 61.6191C73.9961 61.6191 74.3867 61.7266 74.7227 61.9414C75.0625 62.1562 75.3105 62.4414 75.4668 62.7969H75.502V59.5449H77.2129V68H75.5254V66.9219H75.4961C75.3398 67.2773 75.0879 67.5625 74.7402 67.7773C74.3926 67.9922 73.9922 68.0996 73.5391 68.0996ZM74.1191 62.9902C73.6895 62.9902 73.3496 63.1582 73.0996 63.4941C72.8535 63.8301 72.7305 64.2852 72.7305 64.8594C72.7305 65.4375 72.8535 65.8926 73.0996 66.2246C73.3496 66.5566 73.6895 66.7227 74.1191 66.7227C74.5449 66.7227 74.8828 66.5566 75.1328 66.2246C75.3867 65.8887 75.5137 65.4336 75.5137 64.8594C75.5137 64.2891 75.3867 63.8359 75.1328 63.5C74.8828 63.1602 74.5449 62.9902 74.1191 62.9902ZM78.25 63.5645C78.25 62.9668 78.4902 62.4883 78.9707 62.1289C79.4512 61.7656 80.0938 61.584 80.8984 61.584C81.6836 61.584 82.3145 61.7676 82.791 62.1348C83.2676 62.502 83.5117 62.9902 83.5234 63.5996H81.9473C81.9277 63.3457 81.8223 63.1465 81.6309 63.002C81.4434 62.8574 81.1914 62.7852 80.875 62.7852C80.5781 62.7852 80.3398 62.8477 80.1602 62.9727C79.9844 63.0938 79.8965 63.2559 79.8965 63.459C79.8965 63.7637 80.1699 63.9805 80.7168 64.1094L81.918 64.3672C82.5469 64.5078 82.998 64.7129 83.2715 64.9824C83.5488 65.248 83.6875 65.6152 83.6875 66.084C83.6875 66.7012 83.4297 67.1973 82.9141 67.5723C82.3984 67.9473 81.7246 68.1348 80.8926 68.1348C80.0645 68.1348 79.4023 67.9512 78.9062 67.584C78.4102 67.2168 78.1387 66.7227 78.0918 66.1016H79.7617C79.8047 66.3672 79.9258 66.5723 80.125 66.7168C80.3281 66.8613 80.5996 66.9336 80.9395 66.9336C81.2637 66.9336 81.5176 66.875 81.7012 66.7578C81.8887 66.6367 81.9824 66.4727 81.9824 66.2656C81.9824 66.1055 81.9238 65.9785 81.8066 65.8848C81.6895 65.7871 81.4902 65.7051 81.209 65.6387L80.0488 65.3809C78.8496 65.1074 78.25 64.502 78.25 63.5645Z" fill="#A8A8A8"/>
<defs>
<filter id="filter0_d_57_495" x="0" y="0" width="132" height="95" filterUnits="userSpaceOnUse" color-interpolation-filters="sRGB">
<feFlood flood-opacity="0" result="BackgroundImageFix"/>
<feColorMatrix in="SourceAlpha" type="matrix" values="0 0 0 0 0 0 0 0 0 0 0 0 0 0 0 0 0 0 127 0" result="hardAlpha"/>
<feOffset dy="4"/>
<feGaussianBlur stdDeviation="2"/>
<feComposite in2="hardAlpha" operator="out"/>
<feColorMatrix type="matrix" values="0 0 0 0 0.5125 0 0 0 0 0.5125 0 0 0 0 0.5125 0 0 0 0.15 0"/>
<feBlend mode="normal" in2="BackgroundImageFix" result="effect1_dropShadow_57_495"/>
<feBlend mode="normal" in="SourceGraphic" in2="effect1_dropShadow_57_495" result="shape"/>
</filter>
</defs>
</svg>
