<svg width="132" height="95" viewBox="0 0 132 95" fill="none" xmlns="http://www.w3.org/2000/svg">
<g filter="url(#filter0_d_57_414)">
<rect x="4" width="124" height="87" rx="25" fill="white"/>
</g>
<path d="M88.2581 40.387V32.5573C88.2124 31.8379 87.8845 31.1656 87.3456 30.6866C86.8068 30.2077 86.1007 29.9609 85.3808 29.9999C84.838 29.9975 84.3037 30.1358 83.8302 30.4013L79.3645 32.9313L78.1818 30.8435C77.7987 30.1368 77.1547 29.6078 76.3871 29.3692V24.3982C76.342 23.6784 76.0143 23.0055 75.4754 22.5261C74.9365 22.0467 74.2301 21.7996 73.5099 21.8385C72.967 21.8362 72.4328 21.9745 71.9592 22.2399L66 25.6165V21.5358C65.9492 20.7834 65.6036 20.0814 65.0382 19.5824C64.4727 19.0834 63.7332 18.8276 62.9803 18.8708C62.4109 18.8686 61.8505 19.0124 61.3525 19.2885L54.3138 23.2482C53.9995 23.4262 53.7145 23.6514 53.4687 23.916C53.0093 23.5359 52.4327 23.3262 51.8365 23.3224C51.3972 23.3293 50.9664 23.4436 50.5815 23.6553C50.1966 23.867 49.8694 24.1697 49.6285 24.537L45.4914 30.2143C45.3277 30.2793 45.1706 30.3601 45.0225 30.4554C44.6198 30.7338 44.2924 31.1077 44.0697 31.5437C43.847 31.9797 43.7359 32.4641 43.7464 32.9535L43.7419 40.387C43.5452 40.387 43.3564 40.4652 43.2173 40.6043C43.0782 40.7435 43 40.9322 43 41.129V44.8387C43.0026 47.0024 43.8632 49.0768 45.3932 50.6068C46.9232 52.1368 48.9976 52.9974 51.1613 53H80.8387C83.0024 52.9974 85.0768 52.1368 86.6068 50.6068C88.1368 49.0768 88.9974 47.0024 89 44.8387V41.129C89 40.9322 88.9218 40.7435 88.7827 40.6043C88.6436 40.4652 88.4548 40.387 88.2581 40.387ZM84.5617 31.6922C84.8113 31.5537 85.0924 31.4819 85.3779 31.4838C85.7037 31.4507 86.0298 31.5434 86.2894 31.743C86.549 31.9426 86.7225 32.234 86.7742 32.5573V40.387H81.9887C82.2192 39.9282 82.3336 39.4199 82.3218 38.9066C82.31 38.3933 82.1725 37.8908 81.9212 37.443L80.0968 34.2223L84.5617 31.6922ZM87.5161 44.0967H44.4839V41.8709H87.5161V44.0967ZM50.4194 39.0575C50.4168 38.7519 50.5029 38.4522 50.6672 38.1946L55.1188 31.4578C55.2439 31.2472 55.4198 31.0713 55.6304 30.9462C55.841 30.8211 56.0796 30.7509 56.3244 30.7418C56.5921 30.7547 56.8515 30.8388 57.0758 30.9854C57.3001 31.132 57.4813 31.3358 57.6005 31.5758L58.1199 32.4972C57.8678 32.9326 57.6588 33.3916 57.4959 33.8676L57.3038 34.4515H57.0968C56.9 34.4515 56.7113 34.5297 56.5721 34.6688C56.433 34.808 56.3548 34.9967 56.3548 35.1935V38.1612C56.3548 38.358 56.433 38.5467 56.5721 38.6858C56.7113 38.825 56.9 38.9031 57.0968 38.9031V40.387H51.438C51.1309 40.3367 50.8546 40.1711 50.6653 39.9241C50.476 39.677 50.3881 39.3671 50.4194 39.0575ZM64.9242 29.9999H67.0758C68.4071 30 69.7047 30.419 70.7847 31.1974C71.8647 31.9758 72.6725 33.0743 73.0936 34.3373L73.1315 34.4515H58.8685L58.9064 34.3373C59.3275 33.0743 60.1353 31.9758 61.2153 31.1974C62.2953 30.419 63.5929 30 64.9242 29.9999ZM58.5806 40.387V38.9031H73.4194V40.387H58.5806ZM74.1613 35.9354V37.4193H57.8387V35.9354H74.1613ZM76.8909 31.5758L80.6302 38.1746C80.7687 38.4242 80.8406 38.7053 80.8387 38.9907C80.8718 39.3165 80.779 39.6426 80.5794 39.9022C80.3798 40.1618 80.0885 40.3353 79.7651 40.387H74.9032V38.9031C75.1 38.9031 75.2887 38.825 75.4279 38.6858C75.567 38.5467 75.6452 38.358 75.6452 38.1612V35.1935C75.6452 34.9967 75.567 34.808 75.4279 34.6688C75.2887 34.5297 75.1 34.4515 74.9032 34.4515H74.6962L74.5011 33.8683C74.3243 33.3457 74.092 32.8435 73.8081 32.3704L74.4113 31.4578C74.5362 31.2475 74.7118 31.0718 74.922 30.9467C75.1322 30.8217 75.3703 30.7512 75.6147 30.7418C75.8824 30.7547 76.1418 30.8388 76.3661 30.9854C76.5904 31.132 76.7716 31.3358 76.8909 31.5758ZM72.6908 23.5309C72.9404 23.3924 73.2215 23.3206 73.5069 23.3224C73.8327 23.2893 74.1588 23.3821 74.4184 23.5817C74.678 23.7813 74.8515 24.0726 74.9032 24.396V29.3544C74.1901 29.5591 73.5755 30.0157 73.1738 30.6394L72.8674 31.1031C72.1391 30.2878 71.2466 29.6358 70.2484 29.1899C69.2502 28.744 68.169 28.5143 67.0758 28.516H65.2625C65.2807 28.2542 65.3667 28.0016 65.5121 27.7832C65.6576 27.5648 65.8574 27.388 66.092 27.2703L72.6908 23.5309ZM55.0409 24.5422L62.0804 20.5824C62.3558 20.4305 62.6658 20.3521 62.9803 20.3547C63.3387 20.3179 63.6975 20.4198 63.9831 20.6393C64.2687 20.8588 64.4594 21.1794 64.5161 21.5351V26.6611C64.0439 27.1757 63.7796 27.8473 63.7742 28.5457C63.7742 28.565 63.7794 28.5835 63.7794 28.6028C61.9545 28.866 60.2849 29.7759 59.0748 31.1669L58.8915 30.8427C58.6792 30.4477 58.3818 30.1047 58.0207 29.8388C57.6596 29.5728 57.2439 29.3903 56.8037 29.3047L54.3917 25.1253C54.5607 24.8839 54.7828 24.6844 55.0409 24.5422ZM50.84 25.388C50.9445 25.2165 51.0898 25.0736 51.2631 24.972C51.4363 24.8705 51.6321 24.8136 51.8327 24.8063C52.0524 24.8162 52.2655 24.8842 52.4504 25.0031C52.6353 25.1221 52.7855 25.2879 52.8855 25.4837L55.2056 29.505C54.666 29.7498 54.2073 30.1433 53.8835 30.6394L52.548 32.6634L48.0407 30.3634C47.8354 30.2603 47.6201 30.1783 47.3982 30.1186L50.84 25.388ZM45.2303 32.9558C45.2184 32.7113 45.268 32.4678 45.3745 32.2474C45.481 32.0271 45.6411 31.837 45.8401 31.6945C46.0706 31.5581 46.3332 31.4854 46.601 31.484C46.8688 31.4826 47.1321 31.5524 47.3641 31.6863L51.7222 33.9121L49.4296 37.3792C49.1421 37.8221 48.974 38.3319 48.9419 38.859C48.9098 39.3861 49.0147 39.9125 49.2464 40.387H45.2258L45.2303 32.9558ZM80.8387 51.5161H51.1613C49.5197 51.5137 47.9364 50.9075 46.7131 49.8129C45.4897 48.7183 44.7118 47.2118 44.5276 45.5806H87.4724C87.2882 47.2118 86.5103 48.7183 85.2869 49.8129C84.0636 50.9075 82.4803 51.5137 80.8387 51.5161ZM52.2742 21.8385C52.7644 21.8397 53.2462 21.7117 53.6713 21.4676L59.3901 18.1682C59.802 17.9551 60.1502 17.6368 60.3992 17.2455C60.6482 16.8543 60.7892 16.4041 60.8078 15.9407C60.8264 15.4773 60.722 15.0173 60.5052 14.6073C60.2884 14.1974 59.9669 13.8521 59.5734 13.6067L53.7351 9.67444C53.2835 9.37859 52.7547 9.22245 52.2148 9.22557C51.5745 9.19586 50.9485 9.42051 50.4731 9.85053C49.9978 10.2806 49.7118 10.8811 49.6774 11.5211V19.4948C49.7129 20.1492 50.0059 20.763 50.4925 21.2022C50.979 21.6413 51.6195 21.8701 52.2742 21.8385ZM51.1613 11.5211C51.2004 11.277 51.3312 11.0571 51.527 10.9062C51.7228 10.7554 51.9689 10.685 52.2148 10.7094C52.4589 10.7074 52.6981 10.7773 52.9026 10.9105L58.7409 14.8428C58.912 14.947 59.0547 15.0919 59.1561 15.2646C59.2576 15.4372 59.3148 15.6324 59.3226 15.8325C59.3126 16.0522 59.2447 16.2653 59.1257 16.4502C59.0068 16.6351 58.841 16.7853 58.6452 16.8854L52.9256 20.1848C52.7271 20.2974 52.5025 20.3559 52.2742 20.3547C52.0139 20.3808 51.7536 20.3062 51.5466 20.1462C51.3396 19.9863 51.2017 19.7532 51.1613 19.4948V11.5211ZM66.8117 18.1288H74.7853C75.439 18.0933 76.0523 17.8008 76.4913 17.3151C76.9303 16.8294 77.1596 16.1898 77.129 15.5358C77.1302 15.0456 77.0022 14.5637 76.7581 14.1387L73.4609 8.41982C73.2478 8.0079 72.9295 7.65974 72.5383 7.41073C72.147 7.16171 71.6969 7.02073 71.2335 7.00212C70.7701 6.9835 70.31 7.08791 69.9001 7.30473C69.4901 7.52156 69.1449 7.84306 68.8995 8.23656L64.9672 14.0749C64.6713 14.5252 64.5144 15.0526 64.5161 15.5914C64.4864 16.2317 64.7111 16.8578 65.1411 17.3331C65.5711 17.8084 66.1716 18.0945 66.8117 18.1288ZM66.2011 14.9036L70.1333 9.06531C70.2375 8.89421 70.3824 8.75156 70.5551 8.65006C70.7278 8.54857 70.9229 8.49139 71.1231 8.48363C71.3427 8.49358 71.5558 8.56149 71.7407 8.68046C71.9257 8.79944 72.0758 8.96524 72.1759 9.16102L75.4753 14.8806C75.5885 15.0803 75.6471 15.3062 75.6452 15.5358C75.6703 15.7954 75.5952 16.0549 75.4354 16.261C75.2755 16.4672 75.043 16.6046 74.7853 16.645H66.8117C66.5676 16.6059 66.3476 16.4751 66.1968 16.2793C66.0459 16.0834 65.9755 15.8374 66 15.5914C65.998 15.3474 66.0679 15.1081 66.2011 14.9036ZM86.4069 15.903C85.9168 15.9019 85.4349 16.0298 85.0099 16.274L79.291 19.5734C78.8791 19.7865 78.531 20.1048 78.2819 20.496C78.0329 20.8873 77.892 21.3375 77.8733 21.8008C77.8547 22.2642 77.9591 22.7243 78.176 23.1342C78.3928 23.5442 78.7143 23.8894 79.1078 24.1348L84.9461 28.0671C85.3966 28.3623 85.924 28.5184 86.4626 28.516C87.1029 28.5457 87.7289 28.3211 88.2043 27.891C88.6796 27.461 88.9656 26.8605 89 26.2204V18.2468C88.9645 17.593 88.672 16.9798 88.1863 16.5408C87.7005 16.1017 87.061 15.8725 86.4069 15.903ZM87.5161 26.2204C87.4771 26.4645 87.3462 26.6845 87.1504 26.8353C86.9546 26.9862 86.7086 27.0566 86.4626 27.0321C86.2185 27.0342 85.9793 26.9642 85.7748 26.8311L79.9365 22.8988C79.7659 22.7949 79.6236 22.6506 79.5221 22.4786C79.4207 22.3066 79.3632 22.1123 79.3548 21.9127C79.3648 21.6931 79.4327 21.48 79.5517 21.2951C79.6706 21.1101 79.8364 20.96 80.0322 20.8599L85.7518 17.5605C85.9511 17.446 86.1771 17.3861 86.4069 17.3869C86.6666 17.3618 86.926 17.4369 87.1322 17.5967C87.3384 17.7565 87.4757 17.9891 87.5161 18.2468V26.2204Z" fill="#A8A8A8"/>
<path d="M58.5806 25.5482H57.0968V27.0321H58.5806V25.5482Z" fill="#A8A8A8"/>
<path d="M62.2903 26.2902H60.8065V27.7741H62.2903V26.2902Z" fill="#A8A8A8"/>
<path d="M85.2903 36.6773H83.8065V38.1612H85.2903V36.6773Z" fill="#A8A8A8"/>
<path d="M85.2903 33.7096H83.8065V35.1935H85.2903V33.7096Z" fill="#A8A8A8"/>
<path d="M72.6774 26.2902H71.1935V27.7741H72.6774V26.2902Z" fill="#A8A8A8"/>
<path d="M78.6129 37.4193H77.129V38.9031H78.6129V37.4193Z" fill="#A8A8A8"/>
<path d="M86.0323 23.3224H84.5484V24.8063H86.0323V23.3224Z" fill="#A8A8A8"/>
<path d="M86.0323 20.3547H84.5484V21.8385H86.0323V20.3547Z" fill="#A8A8A8"/>
<path d="M83.0645 21.0966H81.5806V22.5805H83.0645V21.0966Z" fill="#A8A8A8"/>
<path d="M73.4194 13.6772H71.9355V15.1611H73.4194V13.6772Z" fill="#A8A8A8"/>
<path d="M71.9355 10.7094H70.4516V12.1933H71.9355V10.7094Z" fill="#A8A8A8"/>
<path d="M69.7097 13.6772H68.2258V15.1611H69.7097V13.6772Z" fill="#A8A8A8"/>
<path d="M57.0968 15.1611H55.6129V16.645H57.0968V15.1611Z" fill="#A8A8A8"/>
<path d="M54.129 13.6772H52.6452V15.1611H54.129V13.6772Z" fill="#A8A8A8"/>
<path d="M54.129 16.645H52.6452V18.1288H54.129V16.645Z" fill="#A8A8A8"/>
<path d="M63.0323 22.5805H61.5484V24.0644H63.0323V22.5805Z" fill="#A8A8A8"/>
<path d="M54.871 36.6773H53.3871V38.1612H54.871V36.6773Z" fill="#A8A8A8"/>
<path d="M48.1935 35.1935H46.7097V36.6773H48.1935V35.1935Z" fill="#A8A8A8"/>
<path d="M51.9032 27.7741H50.4194V29.2579H51.9032V27.7741Z" fill="#A8A8A8"/>
<path d="M47.0781 68H45.3848V59.5449H46.8613L50.8105 65.0527H50.8574V59.5449H52.5508V68H51.0859L47.1309 62.4629H47.0781V68ZM56.1016 66.8633C56.4805 66.8633 56.8008 66.7539 57.0625 66.5352C57.3281 66.3125 57.4609 66.0332 57.4609 65.6973V65.2402L56.1367 65.3223C55.8164 65.3457 55.5684 65.4258 55.3926 65.5625C55.2207 65.6992 55.1348 65.8789 55.1348 66.1016C55.1348 66.3359 55.2227 66.5215 55.3984 66.6582C55.5742 66.7949 55.8086 66.8633 56.1016 66.8633ZM55.5391 68.0996C54.9336 68.0996 54.4316 67.9219 54.0332 67.5664C53.6348 67.2109 53.4355 66.7539 53.4355 66.1953C53.4355 65.625 53.6465 65.1777 54.0684 64.8535C54.4902 64.5293 55.0938 64.3438 55.8789 64.2969L57.4609 64.2031V63.7871C57.4609 63.498 57.3652 63.2715 57.1738 63.1074C56.9863 62.9434 56.7305 62.8613 56.4062 62.8613C56.0938 62.8613 55.8379 62.9316 55.6387 63.0723C55.4434 63.2129 55.3242 63.4023 55.2812 63.6406H53.7168C53.748 63.0234 54.0117 62.5273 54.5078 62.1523C55.0039 61.7734 55.6621 61.584 56.4824 61.584C57.2871 61.584 57.9316 61.7754 58.416 62.1582C58.9004 62.541 59.1426 63.0488 59.1426 63.6816V68H57.4902V67.0391H57.4551C57.2832 67.3672 57.0215 67.627 56.6699 67.8184C56.3184 68.0059 55.9414 68.0996 55.5391 68.0996ZM65.957 64.0566H64.3691C64.3184 63.7168 64.1836 63.4434 63.9648 63.2363C63.75 63.0293 63.4707 62.9258 63.127 62.9258C62.7012 62.9258 62.3652 63.0977 62.1191 63.4414C61.877 63.7812 61.7559 64.252 61.7559 64.8535C61.7559 65.4668 61.877 65.9434 62.1191 66.2832C62.3652 66.623 62.7031 66.793 63.1328 66.793C63.4727 66.793 63.75 66.6973 63.9648 66.5059C64.1797 66.3105 64.3145 66.041 64.3691 65.6973H65.9629C65.9199 66.4395 65.6406 67.0312 65.125 67.4727C64.6094 67.9141 63.9395 68.1348 63.1152 68.1348C62.1621 68.1348 61.4082 67.8438 60.8535 67.2617C60.2988 66.6758 60.0215 65.873 60.0215 64.8535C60.0215 63.8496 60.2988 63.0547 60.8535 62.4688C61.4121 61.8789 62.1621 61.584 63.1035 61.584C63.9395 61.584 64.6133 61.8145 65.125 62.2754C65.6406 62.7363 65.918 63.3301 65.957 64.0566ZM66.8301 68V59.5449H68.5117V62.8379H68.5469C68.7148 62.4395 68.9668 62.1348 69.3027 61.9238C69.6426 61.709 70.0488 61.6016 70.5215 61.6016C71.2129 61.6016 71.75 61.8125 72.1328 62.2344C72.5195 62.6523 72.7129 63.2266 72.7129 63.957V68H71.002V64.3203C71.002 63.9102 70.9004 63.5918 70.6973 63.3652C70.498 63.1348 70.207 63.0195 69.8242 63.0195C69.4258 63.0195 69.1113 63.1484 68.8809 63.4062C68.6543 63.6602 68.541 63.9961 68.541 64.4141V68H66.8301ZM78.9648 67.2676C78.4062 67.8457 77.6484 68.1348 76.6914 68.1348C75.7344 68.1348 74.9766 67.8438 74.418 67.2617C73.8594 66.6797 73.5801 65.877 73.5801 64.8535C73.5801 63.8418 73.8613 63.0449 74.4238 62.4629C74.9902 61.877 75.7461 61.584 76.6914 61.584C77.6406 61.584 78.3965 61.877 78.959 62.4629C79.5215 63.0449 79.8027 63.8418 79.8027 64.8535C79.8027 65.8809 79.5234 66.6855 78.9648 67.2676ZM76.6914 66.8281C77.1133 66.8281 77.4473 66.6562 77.6934 66.3125C77.9395 65.9688 78.0625 65.4844 78.0625 64.8594C78.0625 64.2422 77.9395 63.7598 77.6934 63.4121C77.4473 63.0645 77.1133 62.8906 76.6914 62.8906C76.2695 62.8906 75.9336 63.0645 75.6836 63.4121C75.4375 63.7598 75.3145 64.2422 75.3145 64.8594C75.3145 65.4844 75.4375 65.9688 75.6836 66.3125C75.9297 66.6562 76.2656 66.8281 76.6914 66.8281ZM80.582 63.5645C80.582 62.9668 80.8223 62.4883 81.3027 62.1289C81.7832 61.7656 82.4258 61.584 83.2305 61.584C84.0156 61.584 84.6465 61.7676 85.123 62.1348C85.5996 62.502 85.8438 62.9902 85.8555 63.5996H84.2793C84.2598 63.3457 84.1543 63.1465 83.9629 63.002C83.7754 62.8574 83.5234 62.7852 83.207 62.7852C82.9102 62.7852 82.6719 62.8477 82.4922 62.9727C82.3164 63.0938 82.2285 63.2559 82.2285 63.459C82.2285 63.7637 82.502 63.9805 83.0488 64.1094L84.25 64.3672C84.8789 64.5078 85.3301 64.7129 85.6035 64.9824C85.8809 65.248 86.0195 65.6152 86.0195 66.084C86.0195 66.7012 85.7617 67.1973 85.2461 67.5723C84.7305 67.9473 84.0566 68.1348 83.2246 68.1348C82.3965 68.1348 81.7344 67.9512 81.2383 67.584C80.7422 67.2168 80.4707 66.7227 80.4238 66.1016H82.0938C82.1367 66.3672 82.2578 66.5723 82.457 66.7168C82.6602 66.8613 82.9316 66.9336 83.2715 66.9336C83.5957 66.9336 83.8496 66.875 84.0332 66.7578C84.2207 66.6367 84.3145 66.4727 84.3145 66.2656C84.3145 66.1055 84.2559 65.9785 84.1387 65.8848C84.0215 65.7871 83.8223 65.7051 83.541 65.6387L82.3809 65.3809C81.1816 65.1074 80.582 64.502 80.582 63.5645Z" fill="#A8A8A8"/>
<defs>
<filter id="filter0_d_57_414" x="0" y="0" width="132" height="95" filterUnits="userSpaceOnUse" color-interpolation-filters="sRGB">
<feFlood flood-opacity="0" result="BackgroundImageFix"/>
<feColorMatrix in="SourceAlpha" type="matrix" values="0 0 0 0 0 0 0 0 0 0 0 0 0 0 0 0 0 0 127 0" result="hardAlpha"/>
<feOffset dy="4"/>
<feGaussianBlur stdDeviation="2"/>
<feComposite in2="hardAlpha" operator="out"/>
<feColorMatrix type="matrix" values="0 0 0 0 0.5125 0 0 0 0 0.5125 0 0 0 0 0.5125 0 0 0 0.15 0"/>
<feBlend mode="normal" in2="BackgroundImageFix" result="effect1_dropShadow_57_414"/>
<feBlend mode="normal" in="SourceGraphic" in2="effect1_dropShadow_57_414" result="shape"/>
</filter>
</defs>
</svg>
