<svg width="154" height="117" viewBox="0 0 154 117" fill="none" xmlns="http://www.w3.org/2000/svg">
<g filter="url(#filter0_dd_57_282)">
<rect x="15" y="15" width="124" height="87" rx="25" fill="white"/>
<rect x="16" y="16" width="122" height="85" rx="24" stroke="#FF0036" stroke-width="2"/>
</g>
<path d="M77 25C72.8466 25 68.7865 26.2316 65.333 28.5391C61.8796 30.8466 59.188 34.1264 57.5985 37.9636C56.0091 41.8009 55.5932 46.0233 56.4035 50.0969C57.2138 54.1705 59.2139 57.9123 62.1508 60.8492C65.0877 63.7861 68.8295 65.7862 72.9031 66.5965C76.9767 67.4068 81.1991 66.9909 85.0364 65.4015C88.8736 63.812 92.1534 61.1204 94.4609 57.667C96.7684 54.2135 98 50.1534 98 46C97.9939 40.4323 95.7795 35.0944 91.8425 31.1575C87.9056 27.2205 82.5677 25.0061 77 25ZM77 65.6452C73.1146 65.6452 69.3164 64.493 66.0857 62.3343C62.8551 60.1757 60.3371 57.1076 58.8502 53.5179C57.3634 49.9282 56.9743 45.9782 57.7323 42.1674C58.4903 38.3566 60.3614 34.8562 63.1088 32.1088C65.8562 29.3613 69.3566 27.4903 73.1674 26.7323C76.9782 25.9743 80.9282 26.3633 84.5179 27.8502C88.1076 29.3371 91.1757 31.8551 93.3344 35.0857C95.493 38.3164 96.6452 42.1145 96.6452 46C96.6391 51.2083 94.5674 56.2016 90.8845 59.8845C87.2016 63.5673 82.2084 65.6391 77 65.6452Z" fill="#FF0036"/>
<path d="M86.4839 43.9677C85.546 43.9677 84.6292 44.2458 83.8494 44.7669C83.0696 45.2879 82.4618 46.0285 82.1029 46.895C81.744 47.7615 81.6501 48.7149 81.8331 49.6348C82.016 50.5546 82.4676 51.3996 83.1308 52.0627C83.794 52.7259 84.6389 53.1775 85.5588 53.3605C86.4786 53.5435 87.4321 53.4496 88.2985 53.0906C89.165 52.7317 89.9056 52.124 90.4266 51.3441C90.9477 50.5643 91.2258 49.6475 91.2258 48.7097C91.2242 47.4525 90.7241 46.2473 89.8351 45.3584C88.9462 44.4695 87.741 43.9694 86.4839 43.9677ZM86.4839 52.0968C85.814 52.0968 85.1591 51.8981 84.6021 51.5259C84.0451 51.1538 83.611 50.6248 83.3546 50.0059C83.0982 49.3869 83.0312 48.7059 83.1619 48.0489C83.2926 47.3918 83.6151 46.7883 84.0888 46.3146C84.5625 45.8409 85.1661 45.5183 85.8231 45.3877C86.4801 45.257 87.1611 45.324 87.7801 45.5804C88.399 45.8368 88.928 46.2709 89.3001 46.8279C89.6723 47.3849 89.871 48.0398 89.871 48.7097C89.8699 49.6077 89.5127 50.4686 88.8777 51.1035C88.2428 51.7385 87.3819 52.0957 86.4839 52.0968Z" fill="#FF0036"/>
<path d="M78.0663 27.7774C77.9505 27.8319 77.8525 27.9181 77.7837 28.026C77.7149 28.1339 77.678 28.2591 77.6774 28.3871V29.7616C75.2542 29.664 72.8398 30.1083 70.61 31.062C68.3803 32.0157 66.3914 33.4548 64.7882 35.2744C64.3464 35.3952 63.9435 35.6286 63.6189 35.9518L63.4381 36.1341C60.843 38.7611 59.3878 42.305 59.3878 45.9976C59.3878 49.6903 60.843 53.2341 63.4381 55.8612L63.6196 56.0448C63.9438 56.3677 64.3462 56.6011 64.7875 56.7222C66.2046 58.3375 67.928 59.6556 69.8579 60.6003C71.7879 61.545 73.886 62.0974 76.031 62.2257C78.1759 62.354 80.325 62.0555 82.3538 61.3476C84.3825 60.6396 86.2508 59.5363 87.8502 58.1014C87.9695 58.0371 88.09 57.9761 88.2066 57.9077L89.9265 56.8915C91.3341 56.0994 92.5083 54.9505 93.331 53.5605C94.1537 52.1705 94.5958 50.5883 94.6129 48.9732C94.6018 47.6191 94.2885 46.2846 93.6958 45.067C93.1031 43.8494 92.2461 42.7796 91.1872 41.9355H93.9355C94.075 41.9355 94.211 41.8925 94.3252 41.8123C94.4393 41.7321 94.5258 41.6186 94.573 41.4873C94.6202 41.3561 94.6258 41.2135 94.5889 41.079C94.552 40.9444 94.4745 40.8246 94.367 40.7358L78.7864 27.8648C78.687 27.7835 78.5665 27.7321 78.439 27.7166C78.3115 27.7011 78.1822 27.7222 78.0663 27.7774ZM77.6774 31.1259V41.2581C77.6774 41.4377 77.7488 41.61 77.8758 41.7371C78.0029 41.8641 78.1752 41.9355 78.3548 41.9355H79.9867C79.3713 42.7332 79.0358 43.7115 79.0323 44.719C79.03 45.1782 78.9316 45.6319 78.7436 46.0508C78.5555 46.4697 78.2819 46.8447 77.9403 47.1516L76.1871 48.7774C75.4906 49.4224 74.9589 50.225 74.6365 51.1179C73.4861 49.5477 72.8981 47.6359 72.9673 45.6906C73.0365 43.7454 73.7589 41.8802 75.0179 40.3957L75.6838 39.6126C76.1191 39.0945 76.3459 38.4328 76.32 37.7565C76.2941 37.0802 76.0173 36.4378 75.5436 35.9545C75.296 35.7024 75.0004 35.5023 74.6743 35.366C74.3482 35.2298 73.9982 35.1602 73.6447 35.1613C73.2917 35.1605 72.9421 35.2302 72.6164 35.3663C72.2907 35.5024 71.9955 35.7021 71.748 35.9539L71.5989 36.1036C71.5569 36.0541 71.5224 35.9999 71.4763 35.9532C71.2289 35.7016 70.9338 35.5019 70.6082 35.3659C70.2826 35.2299 69.9331 35.1604 69.5802 35.1613C69.2272 35.1605 68.8776 35.2302 68.5519 35.3663C68.2262 35.5024 67.9309 35.7021 67.6835 35.9539L67.5344 36.1036C67.4924 36.0541 67.4579 35.9999 67.4118 35.9532C67.1677 35.7064 66.8778 35.5097 66.5583 35.374C69.3426 32.6332 73.093 31.0969 77 31.0968C77.2249 31.0968 77.4512 31.1157 77.6774 31.1259ZM71.6152 52.3901L70.95 51.607C69.622 50.0405 68.8932 48.0536 68.8932 46C68.8932 43.9464 69.622 41.9595 70.95 40.393L71.6159 39.6099C71.8659 39.3112 72.0485 38.962 72.151 38.5863C72.2536 38.2105 72.2737 37.817 72.21 37.4327C72.3157 37.3175 72.4186 37.201 72.529 37.0899L72.7099 36.907C72.8318 36.783 72.9772 36.6846 73.1376 36.6175C73.298 36.5504 73.4702 36.5159 73.6441 36.5161C73.8178 36.516 73.9899 36.5505 74.1502 36.6176C74.3104 36.6847 74.4557 36.7831 74.5776 36.907C74.8134 37.1486 74.951 37.4693 74.9635 37.8068C74.976 38.1442 74.8626 38.4742 74.6453 38.7326L73.9807 39.5157C72.4442 41.3273 71.6007 43.6256 71.6007 46.001C71.6007 48.3765 72.4442 50.6747 73.9807 52.4863L74.2957 52.8541C74.2957 52.909 74.2869 52.9632 74.2869 53.0181C74.2907 53.6896 74.4151 54.355 74.6541 54.9826C74.6256 55.0178 74.6067 55.0591 74.5748 55.0916C74.4535 55.2154 74.3088 55.3138 74.1492 55.3811C73.9895 55.4485 73.818 55.4834 73.6447 55.4839C73.471 55.4841 73.299 55.4497 73.1387 55.3827C72.9785 55.3157 72.8331 55.2175 72.7113 55.0937L72.529 54.9087C72.4193 54.7983 72.3163 54.6818 72.2107 54.57C72.2746 54.1852 72.2545 53.7911 72.1517 53.4148C72.049 53.0385 71.8659 52.6889 71.6152 52.3901ZM67.5507 52.3901L66.8855 51.607C65.5575 50.0405 64.8287 48.0536 64.8287 46C64.8287 43.9464 65.5575 41.9595 66.8855 40.393L67.5514 39.6099C67.8014 39.3112 67.984 38.962 68.0865 38.5863C68.1891 38.2105 68.2092 37.817 68.1455 37.4327C68.2511 37.3175 68.3541 37.201 68.4645 37.0899L68.6454 36.907C68.7673 36.783 68.9127 36.6846 69.0731 36.6175C69.2335 36.5504 69.4057 36.5159 69.5796 36.5161C69.7533 36.516 69.9254 36.5505 70.0856 36.6176C70.2459 36.6847 70.3912 36.7831 70.513 36.907C70.7489 37.1486 70.8865 37.4693 70.899 37.8068C70.9115 38.1442 70.7981 38.4742 70.5808 38.7326L69.9162 39.5157C68.3802 41.3271 67.5371 43.625 67.5371 46C67.5371 48.375 68.3802 50.6729 69.9162 52.4843L70.5801 53.2673C70.7985 53.5259 70.9126 53.8567 70.9001 54.195C70.8876 54.5332 70.7493 54.8547 70.5124 55.0964C70.3904 55.2195 70.2452 55.3172 70.0852 55.3837C69.9252 55.4502 69.7535 55.4843 69.5802 55.4839C69.4065 55.4841 69.2345 55.4497 69.0742 55.3827C68.9139 55.3157 68.7686 55.2175 68.6467 55.0937L68.4645 54.9087C68.3548 54.7983 68.2518 54.6818 68.1461 54.57C68.2101 54.1852 68.19 53.7911 68.0872 53.4148C67.9844 53.0385 67.8014 52.6889 67.5507 52.3901ZM64.4 54.9094C62.0575 52.5363 60.744 49.3359 60.744 46.0013C60.744 42.6668 62.0575 39.4664 64.4 37.0933L64.5809 36.9104C64.7025 36.7858 64.8478 36.6868 65.0082 36.6191C65.1686 36.5514 65.3409 36.5164 65.515 36.5161C65.6888 36.516 65.8609 36.5505 66.0211 36.6176C66.1814 36.6847 66.3267 36.7831 66.4485 36.907C66.6844 37.1486 66.822 37.4693 66.8345 37.8068C66.847 38.1442 66.7336 38.4742 66.5163 38.7326L65.8517 39.5157C64.3157 41.3271 63.4726 43.625 63.4726 46C63.4726 48.375 64.3157 50.6729 65.8517 52.4843L66.5156 53.2673C66.734 53.5259 66.8481 53.8567 66.8356 54.195C66.8231 54.5332 66.6848 54.8547 66.4478 55.0964C66.3259 55.2195 66.1807 55.3172 66.0207 55.3837C65.8607 55.4502 65.689 55.4843 65.5157 55.4839C65.342 55.4841 65.17 55.4497 65.0097 55.3827C64.8494 55.3157 64.7041 55.2175 64.5822 55.0937L64.4 54.9094ZM77 60.9032C73.0927 60.9032 69.3421 59.367 66.5576 56.626C66.8771 56.4903 67.167 56.2936 67.4111 56.0468C67.4572 56.0001 67.4917 55.9452 67.5344 55.8957L67.6835 56.0468C67.9309 56.2984 68.2261 56.498 68.5517 56.634C68.8772 56.7699 69.2267 56.8395 69.5796 56.8387C69.9325 56.8397 70.2821 56.7702 70.6079 56.6342C70.9336 56.4982 71.2289 56.2985 71.4763 56.0468C71.5224 56.0001 71.5569 55.9452 71.5996 55.8957L71.7486 56.0468C71.996 56.2983 72.2911 56.4978 72.6165 56.6338C72.942 56.7698 73.2913 56.8395 73.6441 56.8387C74.2511 56.8363 74.8388 56.6246 75.3078 56.2392C75.56 56.6115 75.8533 56.9542 76.1824 57.2607C77.8069 58.7483 79.9343 59.5656 82.1369 59.5484C82.5366 59.5484 82.9335 59.522 83.3285 59.4806C81.3494 60.4149 79.1885 60.9006 77 60.9032ZM93.2581 48.9732C93.2404 50.3534 92.8596 51.7046 92.1538 52.8908C91.448 54.0771 90.4422 55.0565 89.2376 55.7304L87.5176 56.7466C85.8852 57.7001 84.0274 58.1997 82.1369 58.1935C80.2776 58.2001 78.4827 57.5132 77.103 56.267C76.6443 55.859 76.2771 55.3586 76.0257 54.7985C75.7743 54.2385 75.6444 53.6316 75.6444 53.0177C75.6444 52.4039 75.7743 51.7969 76.0257 51.2369C76.2771 50.6769 76.6443 50.1764 77.103 49.7685L78.8595 48.1427C79.3356 47.7075 79.7169 47.1789 79.9797 46.5898C80.2425 46.0008 80.3812 45.364 80.3871 44.719C80.4344 43.7581 80.8597 42.8549 81.5705 42.2065C82.2812 41.5581 83.2195 41.2172 84.1806 41.2581H85.4406C87.4966 41.2572 89.47 42.0665 90.9333 43.5107C92.3966 44.9548 93.2319 46.9174 93.2581 48.9732ZM79.0323 29.8253L92.0523 40.5806H88.8996C87.8008 40.1347 86.6264 39.9047 85.4406 39.9032H84.1806C83.264 39.9021 82.3623 40.1353 81.5611 40.5806H79.0323V29.8253Z" fill="#FF0036"/>
<path d="M81.7419 33.8064H80.3871V35.1613H81.7419V33.8064Z" fill="#FF0036"/>
<path d="M84.4516 36.5161H83.0968V37.871H84.4516V36.5161Z" fill="#FF0036"/>
<path d="M81.7419 37.871H80.3871V39.2258H81.7419V37.871Z" fill="#FF0036"/>
<path d="M54.6914 83H50.9473V74.5449H54.627C55.4199 74.5449 56.0488 74.7344 56.5137 75.1133C56.9785 75.4922 57.2109 76.0059 57.2109 76.6543C57.2109 77.1152 57.0586 77.5195 56.7539 77.8672C56.4531 78.2148 56.0762 78.4219 55.623 78.4883V78.5352C56.2012 78.5781 56.6777 78.791 57.0527 79.1738C57.4277 79.5566 57.6152 80.0254 57.6152 80.5801C57.6152 81.3262 57.3535 81.916 56.8301 82.3496C56.3066 82.7832 55.5938 83 54.6914 83ZM52.7168 75.8633V78.0605H53.9883C54.4609 78.0605 54.8262 77.9629 55.084 77.7676C55.3418 77.5684 55.4707 77.2891 55.4707 76.9297C55.4707 76.5898 55.3574 76.3281 55.1309 76.1445C54.9043 75.957 54.584 75.8633 54.1699 75.8633H52.7168ZM52.7168 81.6816H54.2402C54.752 81.6816 55.1406 81.5762 55.4062 81.3652C55.6758 81.1504 55.8105 80.8418 55.8105 80.4395C55.8105 80.0449 55.6719 79.7441 55.3945 79.5371C55.1211 79.3301 54.7227 79.2266 54.1992 79.2266H52.7168V81.6816ZM58.4766 83V76.7188H60.1289V77.8496H60.1641C60.2734 77.4512 60.457 77.1465 60.7148 76.9355C60.9727 76.7246 61.2871 76.6191 61.6582 76.6191C61.8379 76.6191 62 76.6406 62.1445 76.6836V78.1895C61.9844 78.123 61.7773 78.0898 61.5234 78.0898C61.1016 78.0898 60.7734 78.2129 60.5391 78.459C60.3047 78.7051 60.1875 79.0488 60.1875 79.4902V83H58.4766ZM65.4551 77.8496C65.084 77.8496 64.7734 77.9766 64.5234 78.2305C64.2773 78.4844 64.1387 78.8086 64.1074 79.2031H66.7734C66.7539 78.8008 66.623 78.4746 66.3809 78.2246C66.1426 77.9746 65.834 77.8496 65.4551 77.8496ZM66.7969 81.0781H68.3672C68.2734 81.6953 67.9648 82.1934 67.4414 82.5723C66.9219 82.9473 66.2754 83.1348 65.502 83.1348C64.5371 83.1348 63.7793 82.8457 63.2285 82.2676C62.6816 81.6895 62.4082 80.8965 62.4082 79.8887C62.4082 78.8848 62.6816 78.084 63.2285 77.4863C63.7754 76.8848 64.5117 76.584 65.4375 76.584C66.3477 76.584 67.0723 76.8691 67.6113 77.4395C68.1504 78.0098 68.4199 78.7734 68.4199 79.7305V80.252H64.0898V80.3574C64.0898 80.8066 64.2207 81.1719 64.4824 81.4531C64.748 81.7305 65.0977 81.8691 65.5312 81.8691C65.8438 81.8691 66.1133 81.7988 66.3398 81.6582C66.5664 81.5137 66.7188 81.3203 66.7969 81.0781ZM71.7305 81.8633C72.1094 81.8633 72.4297 81.7539 72.6914 81.5352C72.957 81.3125 73.0898 81.0332 73.0898 80.6973V80.2402L71.7656 80.3223C71.4453 80.3457 71.1973 80.4258 71.0215 80.5625C70.8496 80.6992 70.7637 80.8789 70.7637 81.1016C70.7637 81.3359 70.8516 81.5215 71.0273 81.6582C71.2031 81.7949 71.4375 81.8633 71.7305 81.8633ZM71.168 83.0996C70.5625 83.0996 70.0605 82.9219 69.6621 82.5664C69.2637 82.2109 69.0645 81.7539 69.0645 81.1953C69.0645 80.625 69.2754 80.1777 69.6973 79.8535C70.1191 79.5293 70.7227 79.3438 71.5078 79.2969L73.0898 79.2031V78.7871C73.0898 78.498 72.9941 78.2715 72.8027 78.1074C72.6152 77.9434 72.3594 77.8613 72.0352 77.8613C71.7227 77.8613 71.4668 77.9316 71.2676 78.0723C71.0723 78.2129 70.9531 78.4023 70.9102 78.6406H69.3457C69.377 78.0234 69.6406 77.5273 70.1367 77.1523C70.6328 76.7734 71.291 76.584 72.1113 76.584C72.916 76.584 73.5605 76.7754 74.0449 77.1582C74.5293 77.541 74.7715 78.0488 74.7715 78.6816V83H73.1191V82.0391H73.084C72.9121 82.3672 72.6504 82.627 72.2988 82.8184C71.9473 83.0059 71.5703 83.0996 71.168 83.0996ZM77.6543 79.2383L79.7871 76.7188H81.7266L79.3301 79.4141L81.8438 83H79.875L78.0762 80.4453L77.6309 80.9258V83H75.9199V74.5449H77.6309V79.2383H77.6543ZM82.793 83V78.0078H81.9375V76.748H82.793V76.2734C82.793 75.6484 82.9531 75.1914 83.2734 74.9023C83.5977 74.6133 84.127 74.4688 84.8613 74.4688C85.1973 74.4688 85.4883 74.4941 85.7344 74.5449V75.6758C85.6094 75.6523 85.4551 75.6406 85.2715 75.6406C84.7324 75.6406 84.4629 75.8711 84.4629 76.332V76.748H85.7109V78.0078H84.5039V83H82.793ZM88.7109 81.8633C89.0898 81.8633 89.4102 81.7539 89.6719 81.5352C89.9375 81.3125 90.0703 81.0332 90.0703 80.6973V80.2402L88.7461 80.3223C88.4258 80.3457 88.1777 80.4258 88.002 80.5625C87.8301 80.6992 87.7441 80.8789 87.7441 81.1016C87.7441 81.3359 87.832 81.5215 88.0078 81.6582C88.1836 81.7949 88.418 81.8633 88.7109 81.8633ZM88.1484 83.0996C87.543 83.0996 87.041 82.9219 86.6426 82.5664C86.2441 82.2109 86.0449 81.7539 86.0449 81.1953C86.0449 80.625 86.2559 80.1777 86.6777 79.8535C87.0996 79.5293 87.7031 79.3438 88.4883 79.2969L90.0703 79.2031V78.7871C90.0703 78.498 89.9746 78.2715 89.7832 78.1074C89.5957 77.9434 89.3398 77.8613 89.0156 77.8613C88.7031 77.8613 88.4473 77.9316 88.248 78.0723C88.0527 78.2129 87.9336 78.4023 87.8906 78.6406H86.3262C86.3574 78.0234 86.6211 77.5273 87.1172 77.1523C87.6133 76.7734 88.2715 76.584 89.0918 76.584C89.8965 76.584 90.541 76.7754 91.0254 77.1582C91.5098 77.541 91.752 78.0488 91.752 78.6816V83H90.0996V82.0391H90.0645C89.8926 82.3672 89.6309 82.627 89.2793 82.8184C88.9277 83.0059 88.5508 83.0996 88.1484 83.0996ZM92.7539 78.5645C92.7539 77.9668 92.9941 77.4883 93.4746 77.1289C93.9551 76.7656 94.5977 76.584 95.4023 76.584C96.1875 76.584 96.8184 76.7676 97.2949 77.1348C97.7715 77.502 98.0156 77.9902 98.0273 78.5996H96.4512C96.4316 78.3457 96.3262 78.1465 96.1348 78.002C95.9473 77.8574 95.6953 77.7852 95.3789 77.7852C95.082 77.7852 94.8438 77.8477 94.6641 77.9727C94.4883 78.0938 94.4004 78.2559 94.4004 78.459C94.4004 78.7637 94.6738 78.9805 95.2207 79.1094L96.4219 79.3672C97.0508 79.5078 97.502 79.7129 97.7754 79.9824C98.0527 80.248 98.1914 80.6152 98.1914 81.084C98.1914 81.7012 97.9336 82.1973 97.418 82.5723C96.9023 82.9473 96.2285 83.1348 95.3965 83.1348C94.5684 83.1348 93.9062 82.9512 93.4102 82.584C92.9141 82.2168 92.6426 81.7227 92.5957 81.1016H94.2656C94.3086 81.3672 94.4297 81.5723 94.6289 81.7168C94.832 81.8613 95.1035 81.9336 95.4434 81.9336C95.7676 81.9336 96.0215 81.875 96.2051 81.7578C96.3926 81.6367 96.4863 81.4727 96.4863 81.2656C96.4863 81.1055 96.4277 80.9785 96.3105 80.8848C96.1934 80.7871 95.9941 80.7051 95.7129 80.6387L94.5527 80.3809C93.3535 80.1074 92.7539 79.502 92.7539 78.5645ZM99.5039 75.2715H101.215V76.7188H102.375V78.0078H101.215V81.0137C101.215 81.4863 101.461 81.7227 101.953 81.7227C102.113 81.7227 102.252 81.7129 102.369 81.6934V82.9531C102.17 83 101.898 83.0234 101.555 83.0234C100.816 83.0234 100.289 82.8906 99.9727 82.625C99.6602 82.3594 99.5039 81.9199 99.5039 81.3066V78.0078H98.6191V76.7188H99.5039V75.2715Z" fill="#FF0036"/>
<defs>
<filter id="filter0_dd_57_282" x="0" y="0" width="154" height="117" filterUnits="userSpaceOnUse" color-interpolation-filters="sRGB">
<feFlood flood-opacity="0" result="BackgroundImageFix"/>
<feColorMatrix in="SourceAlpha" type="matrix" values="0 0 0 0 0 0 0 0 0 0 0 0 0 0 0 0 0 0 127 0" result="hardAlpha"/>
<feOffset/>
<feGaussianBlur stdDeviation="7.5"/>
<feComposite in2="hardAlpha" operator="out"/>
<feColorMatrix type="matrix" values="0 0 0 0 1 0 0 0 0 0 0 0 0 0 0.211765 0 0 0 0.2 0"/>
<feBlend mode="normal" in2="BackgroundImageFix" result="effect1_dropShadow_57_282"/>
<feColorMatrix in="SourceAlpha" type="matrix" values="0 0 0 0 0 0 0 0 0 0 0 0 0 0 0 0 0 0 127 0" result="hardAlpha"/>
<feOffset dy="4"/>
<feGaussianBlur stdDeviation="2"/>
<feComposite in2="hardAlpha" operator="out"/>
<feColorMatrix type="matrix" values="0 0 0 0 0.513726 0 0 0 0 0.513726 0 0 0 0 0.513726 0 0 0 0.25 0"/>
<feBlend mode="normal" in2="effect1_dropShadow_57_282" result="effect2_dropShadow_57_282"/>
<feBlend mode="normal" in="SourceGraphic" in2="effect2_dropShadow_57_282" result="shape"/>
</filter>
</defs>
</svg>
