<svg width="144" height="107" viewBox="0 0 144 107" fill="none" xmlns="http://www.w3.org/2000/svg">
<g filter="url(#filter0_dd_57_499)">
<rect x="10" y="10" width="124" height="87" rx="25" fill="white"/>
<rect x="11" y="11" width="122" height="85" rx="24" stroke="#FF0036" stroke-width="2"/>
</g>
<path d="M93.3848 39.3022H90.711C90.6095 38.8327 90.4552 38.3765 90.2511 37.9427C89.9828 37.325 89.7891 36.8786 89.9398 36.1633C90.0924 35.4387 90.5147 34.9778 90.923 34.532C91.4021 34.0091 91.9451 33.4163 91.8454 32.4987C91.7496 31.6104 91.1475 31.2082 90.6163 30.8533C90.1937 30.571 89.7945 30.3043 89.513 29.7714C89.0089 28.817 89.3341 27.7912 89.6488 26.7993C89.9677 25.7939 90.2974 24.7542 89.6172 23.9123C89.208 23.4059 88.485 23.1078 87.5812 23.0729C86.3462 23.0252 84.6133 23.4942 83.5244 24.6495C82.8119 25.4057 82.6078 26.2103 82.4277 26.9201C82.2415 27.654 82.0944 28.2337 81.4475 28.7652C81.007 29.127 80.6447 29.2104 80.2611 29.2987C79.7859 29.4081 79.2473 29.5321 78.7912 30.155C78.1376 31.0481 78.3784 31.9858 78.5909 32.8131C78.7738 33.5251 78.9629 34.2613 78.7183 35.1295C78.6984 35.2 78.6762 35.2667 78.6527 35.332C78.3841 35.2789 78.1111 35.252 77.8374 35.2519C77.79 35.2519 77.743 35.2548 77.6959 35.2563C77.687 35.2341 77.6769 35.2124 77.6655 35.1914C77.1708 34.2834 76.5096 33.9136 75.9783 33.6165C75.5001 33.349 75.1546 33.1559 74.9047 32.6337C74.6391 32.0783 74.6884 31.5749 74.7406 31.042C74.8023 30.4123 74.8792 29.6286 74.2226 28.9979C73.7702 28.564 73.3066 28.5306 72.934 28.5037C72.637 28.4823 72.3806 28.4638 72.0315 28.265C71.5238 27.9759 71.3621 27.613 71.1381 27.1109C70.9099 26.5994 70.6514 26.0196 69.9936 25.5275C68.7956 24.632 66.7656 24.4968 65.6781 25.17C65.4891 25.1347 65.298 25.1123 65.1061 25.1029C64.7135 25.0755 64.3427 25.0495 63.8526 24.7608C63.1332 24.3367 62.9 23.7871 62.6048 23.0911C62.319 22.4176 61.9953 21.6543 61.176 21.0182C59.9249 20.0464 58.1414 19.8535 56.9284 20.0934C56.041 20.2689 55.372 20.6763 55.0448 21.2401C54.5001 22.1781 54.9836 23.1541 55.4511 24.0978C55.9124 25.029 56.3894 25.992 56.0363 27.0134C55.8387 27.5836 55.4848 27.9093 55.1101 28.2544C54.6389 28.6881 54.1049 29.1798 54.145 30.072C54.1855 30.9946 54.8118 31.4952 55.3643 31.9369C55.8355 32.3135 56.3226 32.703 56.5834 33.3957C56.8408 34.079 56.7171 34.5504 56.5458 35.203C56.4092 35.7236 56.2543 36.3137 56.3014 37.065C56.3649 37.8504 56.5925 38.613 56.9692 39.3022H52.6152C52.4521 39.3022 52.2956 39.368 52.1802 39.485C52.0648 39.602 52 39.7607 52 39.9262C52 46.9135 56.5199 52.8495 62.7502 54.8879V56.6701C62.7515 57.8181 63.2018 58.9186 64.0022 59.7303C64.8027 60.5421 65.8879 60.9987 67.0199 61H78.9801C80.1121 60.9987 81.1973 60.5421 81.9978 59.7303C82.7982 58.9186 83.2485 57.8181 83.2498 56.6701V54.8946C86.3718 53.8722 89.094 51.8727 91.0255 49.1834C92.9569 46.494 93.9983 43.2532 94 39.9262C94 39.7607 93.9352 39.602 93.8198 39.485C93.7044 39.368 93.5479 39.3022 93.3848 39.3022ZM79.7792 30.8987C79.9548 30.6588 80.1101 30.6129 80.5334 30.5155C80.9662 30.4158 81.559 30.2794 82.222 29.7346C83.1848 28.9438 83.4156 28.0338 83.6194 27.231C83.7826 26.5876 83.9236 26.0321 84.414 25.5115C85.1167 24.7659 86.3991 24.2756 87.5344 24.3197C88.0651 24.3403 88.488 24.4836 88.6654 24.703C88.9036 24.9979 88.7533 25.5473 88.4774 26.4171C88.1211 27.5408 87.6776 28.9392 88.4284 30.3604C88.8571 31.1722 89.4572 31.5731 89.9394 31.8952C90.4209 32.2169 90.5921 32.3544 90.6224 32.6348C90.657 32.9536 90.4755 33.1871 90.0215 33.6827C89.5486 34.199 88.96 34.8414 88.7365 35.9025C88.5027 37.0123 88.8333 37.7736 89.125 38.4454C89.2532 38.7226 89.3612 39.009 89.4482 39.3022H84.7849C84.8644 39.0467 84.9423 38.7907 85.0186 38.5343L87.0696 37.3654C87.2118 37.2843 87.3165 37.1493 87.3605 36.9899C87.4046 36.8306 87.3844 36.66 87.3044 36.5158C87.2245 36.3716 87.0913 36.2654 86.9342 36.2208C86.7771 36.1761 86.6089 36.1966 86.4667 36.2776L85.4922 36.833C85.8989 35.276 86.242 33.6904 86.5114 32.1056C86.5264 32.0243 86.5254 31.9408 86.5083 31.86C86.4913 31.7791 86.4585 31.7024 86.412 31.6345C86.3654 31.5666 86.3061 31.5087 86.2373 31.4643C86.1685 31.4198 86.0917 31.3897 86.0113 31.3757C85.9309 31.3616 85.8486 31.3639 85.7691 31.3824C85.6896 31.4009 85.6145 31.4352 85.5483 31.4834C85.482 31.5316 85.4258 31.5927 85.383 31.6631C85.3402 31.7335 85.3116 31.8118 85.2989 31.8935C85.1149 32.9729 84.8982 34.0464 84.6492 35.1124L84.0445 33.6227C84.0138 33.547 83.9686 33.4781 83.9116 33.42C83.8546 33.3619 83.7869 33.3158 83.7123 33.2843C83.6377 33.2528 83.5577 33.2365 83.4769 33.2363C83.3961 33.2361 83.3161 33.2521 83.2414 33.2833C83.1667 33.3145 83.0988 33.3603 83.0415 33.4181C82.9842 33.4759 82.9388 33.5446 82.9077 33.6202C82.8449 33.7729 82.8446 33.9447 82.9067 34.0977L84.1376 37.1303C84.1123 37.2228 84.0878 37.3158 84.0619 37.408C84.0122 37.5856 83.9614 37.763 83.9094 37.9401L83.9067 37.9497C83.7749 38.402 83.6369 38.8528 83.4928 39.3022H82.0917C82.0446 38.561 81.8103 37.8445 81.4113 37.2217C81.0123 36.5989 80.462 36.0907 79.8133 35.7459C79.8457 35.6557 79.8751 35.5644 79.9014 35.4722C80.2383 34.2763 79.985 33.2905 79.7816 32.4984C79.5814 31.7186 79.4904 31.2934 79.7791 30.8987L79.7792 30.8987ZM77.8374 36.4997C78.5948 36.5007 79.3244 36.7887 79.8832 37.3072C80.4419 37.8257 80.7894 38.5373 80.8574 39.3022H75.9393C75.9035 38.7188 75.7511 38.1489 75.4912 37.6271C75.775 37.2741 76.1328 36.9896 76.5387 36.7946C76.9446 36.5996 77.3882 36.4988 77.8374 36.4997ZM69.2632 26.5317C69.6625 26.8305 69.8189 27.1812 70.0169 27.6252C70.263 28.1767 70.5692 28.8632 71.429 29.353C71.8631 29.5989 72.3495 29.7345 72.8466 29.7483C73.1552 29.7706 73.2499 29.7825 73.3768 29.9042C73.5772 30.0967 73.5745 30.3224 73.5161 30.9185C73.4556 31.5365 73.3802 32.3055 73.7976 33.1784C74.2183 34.0572 74.8377 34.4036 75.3841 34.7091C75.7706 34.9253 76.114 35.1176 76.4029 35.5041C75.7803 35.7285 75.218 36.0976 74.7612 36.5818C74.364 36.1603 73.8866 35.8251 73.3578 35.5965C72.829 35.3679 72.2599 35.2507 71.685 35.2519C71.6421 35.2519 71.5996 35.2539 71.5569 35.2552C71.4589 34.8594 71.3151 34.4767 71.1285 34.1151C70.5131 32.9303 69.7092 32.4647 68.9998 32.0541C68.3677 31.6881 67.8684 31.399 67.5153 30.6237C67.1418 29.8038 67.2168 29.0469 67.2893 28.3149C67.363 27.572 67.4451 26.7425 66.944 26.0244C67.6394 25.9182 68.6143 26.0466 69.2632 26.5317ZM74.7044 39.3022H68.6649C68.7314 38.5366 69.0783 37.8239 69.6373 37.3048C70.1963 36.7857 70.9267 36.4978 71.6847 36.4978C72.4426 36.4978 73.1731 36.7857 73.732 37.3048C74.291 37.8239 74.6379 38.5366 74.7044 39.3022ZM56.1262 30.9569C55.6028 30.5386 55.3883 30.3364 55.3742 30.016C55.3616 29.7344 55.51 29.5716 55.9373 29.1783C56.3646 28.7848 56.8965 28.2951 57.1973 27.4266C57.7235 25.9051 57.0732 24.5924 56.5508 23.5377C56.1463 22.7213 55.9144 22.2018 56.1053 21.8732C56.2472 21.6286 56.643 21.4211 57.1641 21.3181C58.2783 21.0978 59.6205 21.3817 60.428 22.0088C60.9921 22.4468 61.2156 22.9739 61.4745 23.5843C61.7975 24.3455 62.1635 25.2084 63.2345 25.8396C63.9724 26.2744 64.5787 26.3168 65.0214 26.3478C65.4544 26.3781 65.6147 26.3992 65.8245 26.6089C66.1699 26.954 66.1446 27.3884 66.0651 28.1901C65.9844 29.0045 65.884 30.0179 66.3983 31.147C66.9164 32.2847 67.6992 32.7379 68.3898 33.1377C69.0348 33.5112 69.5916 33.8335 70.0398 34.6965C70.1675 34.9437 70.2687 35.204 70.3417 35.4731C69.5362 35.7456 68.8291 36.2555 68.3107 36.9375C67.7923 37.6196 67.4861 38.4428 67.4312 39.3022H65.4808C65.1168 38.7092 64.7655 38.1088 64.427 37.5011L65.1855 34.3036C65.2237 34.1427 65.1973 33.9731 65.1121 33.8319C65.0269 33.6908 64.8899 33.5898 64.7313 33.5511C64.5726 33.5123 64.4053 33.5391 64.2662 33.6255C64.127 33.7119 64.0274 33.8508 63.9892 34.0117L63.5517 35.856C63.1173 35.0009 62.7075 34.1315 62.3223 33.2479L63.0079 30.8369C63.0302 30.7581 63.0371 30.6757 63.0281 30.5943C63.0191 30.5129 62.9943 30.434 62.9552 30.3623C62.9162 30.2906 62.8636 30.2274 62.8004 30.1763C62.7373 30.1252 62.6648 30.0872 62.5872 30.0645C62.5095 30.0418 62.4282 30.0348 62.348 30.044C62.2677 30.0531 62.1899 30.0782 62.1192 30.1179C62.0485 30.1575 61.9862 30.2108 61.9358 30.2749C61.8854 30.3389 61.8479 30.4124 61.8255 30.4911L61.5645 31.4092C61.1865 30.4369 60.8399 29.4543 60.5248 28.4613C60.5005 28.3827 60.4612 28.3098 60.409 28.2467C60.3568 28.1836 60.2929 28.1316 60.2208 28.0937C60.1487 28.0558 60.0699 28.0327 59.989 28.0259C59.9081 28.019 59.8266 28.0284 59.7493 28.0536C59.672 28.0788 59.6004 28.1193 59.5386 28.1727C59.4768 28.2261 59.426 28.2913 59.3892 28.3647C59.3524 28.4381 59.3303 28.5182 59.3241 28.6003C59.318 28.6824 59.3279 28.7649 59.3534 28.8431C59.8577 30.4318 60.44 31.994 61.0982 33.5237C61.1027 33.5352 61.1075 33.5465 61.1126 33.5577C61.1271 33.5914 61.1413 33.6251 61.1558 33.6587L59.9496 33.2015C59.7969 33.1443 59.6281 33.1508 59.4801 33.2195C59.3322 33.2882 59.2171 33.4136 59.1601 33.5682C59.1031 33.7228 59.1088 33.894 59.176 34.0443C59.2432 34.1946 59.3664 34.3118 59.5187 34.3702L61.8878 35.2683C62.0819 35.6762 62.2811 36.0811 62.4853 36.483C62.6219 36.7512 62.7612 37.0183 62.9033 37.2841L61.4439 36.7309C61.3682 36.7019 61.2875 36.6882 61.2065 36.6909C61.1256 36.6935 61.0459 36.7123 60.9722 36.7462C60.8984 36.7801 60.832 36.8285 60.7767 36.8885C60.7214 36.9485 60.6783 37.019 60.6499 37.096C60.6216 37.1729 60.6085 37.2548 60.6114 37.3368C60.6143 37.4189 60.6331 37.4996 60.6669 37.5743C60.7006 37.649 60.7485 37.7162 60.8079 37.772C60.8674 37.8279 60.937 37.8712 61.013 37.8997L63.8456 38.9735C63.9095 39.0833 63.9745 39.1928 64.0392 39.3022H58.4061C57.8843 38.5199 57.5746 37.7065 57.5294 36.9859C57.4951 36.4379 57.6116 35.994 57.735 35.5239C57.9212 34.8145 58.1322 34.0103 57.733 32.9506C57.3512 31.9363 56.672 31.3932 56.1262 30.9569ZM82.0194 56.6701C82.0185 57.4873 81.698 58.2707 81.1282 58.8485C80.5584 59.4263 79.7859 59.7513 78.9801 59.7522H67.0199C66.2141 59.7513 65.4416 59.4262 64.8718 58.8484C64.3021 58.2706 63.9816 57.4872 63.9807 56.6701V55.2349C65.1342 55.5071 66.3147 55.6442 67.499 55.6436H78.501C79.6852 55.6441 80.8655 55.5081 82.0193 55.2382L82.0194 56.6701ZM88.5908 50.1579C86.8999 51.8796 84.8067 53.1394 82.5064 53.8198C82.48 53.8256 82.454 53.8333 82.4286 53.8426C81.151 54.2107 79.8292 54.3968 78.5011 54.3958H67.499C59.8373 54.3958 53.5667 48.2405 53.2436 40.5501H92.7566C92.6125 44.1708 91.1245 47.6026 88.5908 50.1579Z" fill="#FF0036"/>
<path d="M53.4004 75.5918H55.1055C55.1445 75.9355 55.3262 76.2148 55.6504 76.4297C55.9785 76.6406 56.3789 76.7461 56.8516 76.7461C57.3203 76.7461 57.7012 76.6465 57.9941 76.4473C58.291 76.2441 58.4395 75.9863 58.4395 75.6738C58.4395 75.4004 58.3301 75.1797 58.1113 75.0117C57.8926 74.8438 57.5273 74.7031 57.0156 74.5898L55.9141 74.3496C54.3633 74.0176 53.5879 73.2305 53.5879 71.9883C53.5879 71.2148 53.8887 70.5898 54.4902 70.1133C55.0957 69.6367 55.873 69.3984 56.8223 69.3984C57.7988 69.3984 58.5781 69.6309 59.1602 70.0957C59.7422 70.5566 60.041 71.1719 60.0566 71.9414H58.3984C58.3711 71.5859 58.2129 71.3066 57.9238 71.1035C57.6387 70.8965 57.2734 70.793 56.8281 70.793C56.3906 70.793 56.0371 70.8887 55.7676 71.0801C55.502 71.2715 55.3691 71.5234 55.3691 71.8359C55.3691 72.0938 55.4766 72.3027 55.6914 72.4629C55.9102 72.623 56.2637 72.7598 56.752 72.873L57.7773 73.0898C58.625 73.2695 59.2422 73.5508 59.6289 73.9336C60.0156 74.3125 60.209 74.8242 60.209 75.4688C60.209 76.2891 59.9004 76.9414 59.2832 77.4258C58.666 77.9062 57.832 78.1465 56.7812 78.1465C55.7617 78.1465 54.9492 77.9199 54.3438 77.4668C53.7422 77.0098 53.4277 76.3848 53.4004 75.5918ZM63.5781 76.8633C63.957 76.8633 64.2773 76.7539 64.5391 76.5352C64.8047 76.3125 64.9375 76.0332 64.9375 75.6973V75.2402L63.6133 75.3223C63.293 75.3457 63.0449 75.4258 62.8691 75.5625C62.6973 75.6992 62.6113 75.8789 62.6113 76.1016C62.6113 76.3359 62.6992 76.5215 62.875 76.6582C63.0508 76.7949 63.2852 76.8633 63.5781 76.8633ZM63.0156 78.0996C62.4102 78.0996 61.9082 77.9219 61.5098 77.5664C61.1113 77.2109 60.9121 76.7539 60.9121 76.1953C60.9121 75.625 61.123 75.1777 61.5449 74.8535C61.9668 74.5293 62.5703 74.3438 63.3555 74.2969L64.9375 74.2031V73.7871C64.9375 73.498 64.8418 73.2715 64.6504 73.1074C64.4629 72.9434 64.207 72.8613 63.8828 72.8613C63.5703 72.8613 63.3145 72.9316 63.1152 73.0723C62.9199 73.2129 62.8008 73.4023 62.7578 73.6406H61.1934C61.2246 73.0234 61.4883 72.5273 61.9844 72.1523C62.4805 71.7734 63.1387 71.584 63.959 71.584C64.7637 71.584 65.4082 71.7754 65.8926 72.1582C66.377 72.541 66.6191 73.0488 66.6191 73.6816V78H64.9668V77.0391H64.9316C64.7598 77.3672 64.498 77.627 64.1465 77.8184C63.7949 78.0059 63.418 78.0996 63.0156 78.0996ZM67.7676 78V69.5449H69.4785V78H67.7676ZM73.0586 76.8633C73.4375 76.8633 73.7578 76.7539 74.0195 76.5352C74.2852 76.3125 74.418 76.0332 74.418 75.6973V75.2402L73.0938 75.3223C72.7734 75.3457 72.5254 75.4258 72.3496 75.5625C72.1777 75.6992 72.0918 75.8789 72.0918 76.1016C72.0918 76.3359 72.1797 76.5215 72.3555 76.6582C72.5312 76.7949 72.7656 76.8633 73.0586 76.8633ZM72.4961 78.0996C71.8906 78.0996 71.3887 77.9219 70.9902 77.5664C70.5918 77.2109 70.3926 76.7539 70.3926 76.1953C70.3926 75.625 70.6035 75.1777 71.0254 74.8535C71.4473 74.5293 72.0508 74.3438 72.8359 74.2969L74.418 74.2031V73.7871C74.418 73.498 74.3223 73.2715 74.1309 73.1074C73.9434 72.9434 73.6875 72.8613 73.3633 72.8613C73.0508 72.8613 72.7949 72.9316 72.5957 73.0723C72.4004 73.2129 72.2812 73.4023 72.2383 73.6406H70.6738C70.7051 73.0234 70.9688 72.5273 71.4648 72.1523C71.9609 71.7734 72.6191 71.584 73.4395 71.584C74.2441 71.584 74.8887 71.7754 75.373 72.1582C75.8574 72.541 76.0996 73.0488 76.0996 73.6816V78H74.4473V77.0391H74.4121C74.2402 77.3672 73.9785 77.627 73.627 77.8184C73.2754 78.0059 72.8984 78.0996 72.4961 78.0996ZM79.5391 78.0996C78.7539 78.0996 78.1309 77.8086 77.6699 77.2266C77.209 76.6445 76.9785 75.8516 76.9785 74.8477C76.9785 73.8516 77.209 73.0645 77.6699 72.4863C78.1348 71.9082 78.7617 71.6191 79.5508 71.6191C79.9961 71.6191 80.3867 71.7266 80.7227 71.9414C81.0625 72.1562 81.3105 72.4414 81.4668 72.7969H81.502V69.5449H83.2129V78H81.5254V76.9219H81.4961C81.3398 77.2773 81.0879 77.5625 80.7402 77.7773C80.3926 77.9922 79.9922 78.0996 79.5391 78.0996ZM80.1191 72.9902C79.6895 72.9902 79.3496 73.1582 79.0996 73.4941C78.8535 73.8301 78.7305 74.2852 78.7305 74.8594C78.7305 75.4375 78.8535 75.8926 79.0996 76.2246C79.3496 76.5566 79.6895 76.7227 80.1191 76.7227C80.5449 76.7227 80.8828 76.5566 81.1328 76.2246C81.3867 75.8887 81.5137 75.4336 81.5137 74.8594C81.5137 74.2891 81.3867 73.8359 81.1328 73.5C80.8828 73.1602 80.5449 72.9902 80.1191 72.9902ZM84.25 73.5645C84.25 72.9668 84.4902 72.4883 84.9707 72.1289C85.4512 71.7656 86.0938 71.584 86.8984 71.584C87.6836 71.584 88.3145 71.7676 88.791 72.1348C89.2676 72.502 89.5117 72.9902 89.5234 73.5996H87.9473C87.9277 73.3457 87.8223 73.1465 87.6309 73.002C87.4434 72.8574 87.1914 72.7852 86.875 72.7852C86.5781 72.7852 86.3398 72.8477 86.1602 72.9727C85.9844 73.0938 85.8965 73.2559 85.8965 73.459C85.8965 73.7637 86.1699 73.9805 86.7168 74.1094L87.918 74.3672C88.5469 74.5078 88.998 74.7129 89.2715 74.9824C89.5488 75.248 89.6875 75.6152 89.6875 76.084C89.6875 76.7012 89.4297 77.1973 88.9141 77.5723C88.3984 77.9473 87.7246 78.1348 86.8926 78.1348C86.0645 78.1348 85.4023 77.9512 84.9062 77.584C84.4102 77.2168 84.1387 76.7227 84.0918 76.1016H85.7617C85.8047 76.3672 85.9258 76.5723 86.125 76.7168C86.3281 76.8613 86.5996 76.9336 86.9395 76.9336C87.2637 76.9336 87.5176 76.875 87.7012 76.7578C87.8887 76.6367 87.9824 76.4727 87.9824 76.2656C87.9824 76.1055 87.9238 75.9785 87.8066 75.8848C87.6895 75.7871 87.4902 75.7051 87.209 75.6387L86.0488 75.3809C84.8496 75.1074 84.25 74.502 84.25 73.5645Z" fill="#FF0036"/>
<defs>
<filter id="filter0_dd_57_499" x="0" y="0" width="144" height="107" filterUnits="userSpaceOnUse" color-interpolation-filters="sRGB">
<feFlood flood-opacity="0" result="BackgroundImageFix"/>
<feColorMatrix in="SourceAlpha" type="matrix" values="0 0 0 0 0 0 0 0 0 0 0 0 0 0 0 0 0 0 127 0" result="hardAlpha"/>
<feOffset dy="4"/>
<feGaussianBlur stdDeviation="2"/>
<feComposite in2="hardAlpha" operator="out"/>
<feColorMatrix type="matrix" values="0 0 0 0 0.5125 0 0 0 0 0.5125 0 0 0 0 0.5125 0 0 0 0.15 0"/>
<feBlend mode="normal" in2="BackgroundImageFix" result="effect1_dropShadow_57_499"/>
<feColorMatrix in="SourceAlpha" type="matrix" values="0 0 0 0 0 0 0 0 0 0 0 0 0 0 0 0 0 0 127 0" result="hardAlpha"/>
<feOffset/>
<feGaussianBlur stdDeviation="5"/>
<feComposite in2="hardAlpha" operator="out"/>
<feColorMatrix type="matrix" values="0 0 0 0 1 0 0 0 0 0 0 0 0 0 0.211765 0 0 0 0.2 0"/>
<feBlend mode="normal" in2="effect1_dropShadow_57_499" result="effect2_dropShadow_57_499"/>
<feBlend mode="normal" in="SourceGraphic" in2="effect2_dropShadow_57_499" result="shape"/>
</filter>
</defs>
</svg>
