<svg width="144" height="107" viewBox="0 0 144 107" fill="none" xmlns="http://www.w3.org/2000/svg">
<g filter="url(#filter0_dd_57_481)">
<rect x="10" y="10" width="124" height="87" rx="25" fill="white"/>
<rect x="11" y="11" width="122" height="85" rx="24" stroke="#FF0036" stroke-width="2"/>
</g>
<path d="M54.0425 61.9999H63.395C63.9301 62.005 64.4455 61.7979 64.8283 61.4239C65.2111 61.0499 65.4301 60.5396 65.4375 60.0044V36.5292C65.4386 35.6334 65.2436 34.7483 64.8664 33.9358C63.6604 31.3289 63.1095 29.1856 63.1363 27.1935C63.1386 27.0028 63.1026 26.8136 63.0305 26.637C62.9584 26.4604 62.8516 26.3001 62.7164 26.1656C62.4572 25.9031 62.1104 25.7452 61.7422 25.7221V24.2071C61.7372 23.9464 61.6637 23.6916 61.529 23.4684C61.3943 23.2451 61.2032 23.0613 60.9749 22.9354L60.2971 20.186C60.2186 19.8467 60.0268 19.5443 59.7533 19.3287C59.4798 19.1131 59.141 18.9972 58.7927 19.0001C58.4445 18.9972 58.1054 19.1131 57.8319 19.3287C57.5584 19.5443 57.3665 19.8467 57.2879 20.186L56.6308 22.8517C56.3601 22.9624 56.1275 23.1495 55.9614 23.3902C55.7953 23.6309 55.7028 23.9147 55.6953 24.2071V25.7221C55.3271 25.7452 54.9803 25.9031 54.7211 26.1656C54.5859 26.3001 54.4791 26.4604 54.407 26.637C54.3349 26.8136 54.2989 27.0028 54.3012 27.1935C54.3281 29.1856 53.7771 31.3289 52.5711 33.9358C52.1939 34.7483 51.999 35.6334 52 36.5292V60.0044C52.0074 60.5396 52.2264 61.0499 52.6092 61.4239C52.992 61.7979 53.5074 62.005 54.0425 61.9999ZM58.5926 20.5075C58.6019 20.4613 58.6269 20.4198 58.6633 20.3899C58.6997 20.3601 58.7454 20.3438 58.7925 20.3438C58.8396 20.3438 58.8852 20.3601 58.9217 20.3899C58.9581 20.4198 58.9831 20.4613 58.9924 20.5075L59.5318 22.6954H58.0533L58.5926 20.5075ZM57.0391 24.2071C57.0391 24.1466 57.1566 24.0391 57.3481 24.0391H60.0894C60.2809 24.0391 60.3984 24.1466 60.3984 24.2071V25.7188H57.0391V24.2071ZM53.3438 36.5292C53.3436 35.8284 53.4961 35.136 53.7906 34.5002C54.4605 33.0969 54.975 31.6246 55.325 30.1096H59.7689C59.9471 30.1096 60.118 30.0388 60.244 29.9128C60.37 29.7868 60.4408 29.6159 60.4408 29.4377C60.4408 29.2595 60.37 29.0886 60.244 28.9626C60.118 28.8366 59.9471 28.7658 59.7689 28.7658H55.5566C55.6205 28.2386 55.65 27.7078 55.6449 27.1767C55.6449 27.164 55.6475 27.1515 55.6528 27.1399C55.658 27.1283 55.6656 27.1179 55.6752 27.1096C55.7051 27.0809 55.7446 27.0642 55.786 27.0625H61.6515C61.6929 27.0642 61.7324 27.0809 61.7623 27.1096C61.7719 27.1179 61.7795 27.1283 61.7848 27.1399C61.79 27.1515 61.7926 27.164 61.7926 27.1767C61.7657 29.3771 62.3536 31.7018 63.647 34.5002C63.9415 35.136 64.0939 35.8284 64.0938 36.5292V53.2656H53.3438V36.5292ZM53.3438 54.6093H64.0938V55.9531H53.3438V54.6093ZM53.3438 57.2968H64.0938V60.0044C64.0873 60.1834 64.0101 60.3526 63.8791 60.4748C63.7481 60.5969 63.574 60.6622 63.395 60.6562H54.0425C53.8635 60.6622 53.6894 60.5969 53.5584 60.4748C53.4274 60.3526 53.3502 60.1834 53.3438 60.0044V57.2968Z" fill="#FF0036"/>
<path d="M58.7188 33.7813C57.9214 33.7813 57.142 34.0177 56.4791 34.4606C55.8162 34.9036 55.2995 35.5332 54.9944 36.2698C54.6892 37.0064 54.6094 37.817 54.765 38.5989C54.9205 39.3809 55.3044 40.0992 55.8682 40.663C56.432 41.2268 57.1503 41.6107 57.9323 41.7663C58.7143 41.9218 59.5248 41.842 60.2614 41.5369C60.9981 41.2318 61.6277 40.7151 62.0706 40.0521C62.5136 39.3892 62.75 38.6098 62.75 37.8125C62.7488 36.7437 62.3237 35.719 61.568 34.9633C60.8122 34.2075 59.7875 33.7824 58.7188 33.7813ZM58.7188 40.5C58.1872 40.5 57.6676 40.3424 57.2257 40.0471C56.7837 39.7518 56.4392 39.332 56.2358 38.8409C56.0324 38.3499 55.9792 37.8095 56.0829 37.2882C56.1866 36.7669 56.4426 36.288 56.8184 35.9121C57.1943 35.5363 57.6731 35.2803 58.1944 35.1766C58.7158 35.0729 59.2561 35.1262 59.7472 35.3296C60.2383 35.533 60.658 35.8774 60.9533 36.3194C61.2486 36.7614 61.4063 37.281 61.4063 37.8125C61.4054 38.525 61.122 39.2081 60.6182 39.7119C60.1144 40.2158 59.4313 40.4992 58.7188 40.5ZM94.3281 47.8906H91.881C91.8216 47.4015 91.6099 46.9434 91.2758 46.5813C90.9168 46.2117 90.4569 45.9559 89.9536 45.8458C89.9028 45.032 89.5486 44.267 88.9608 43.7019C88.3574 43.175 87.6008 42.8557 86.8024 42.7912C86.7005 42.1974 86.2837 41.4113 84.9762 40.7418C83.7302 40.104 84.2064 38.8784 84.3127 38.6431C84.3634 38.5349 84.3843 38.4151 84.3732 38.2961C84.3621 38.177 84.3195 38.0631 84.2498 37.9661C84.18 37.869 84.0856 37.7924 83.9763 37.744C83.867 37.6956 83.7468 37.6772 83.628 37.6908C82.6856 37.7855 81.7913 38.1531 81.0547 38.7487C80.3182 39.3443 79.7715 40.1418 79.4816 41.0436C78.8482 40.8598 78.172 40.8893 77.557 41.1276C76.6765 41.5272 75.9628 42.2212 75.5384 43.09C73.5984 43.3666 72.2783 44.0897 71.6117 45.2425C71.171 46.0509 71.0366 46.9911 71.2329 47.8906H68.125C67.9468 47.8906 67.7759 47.9614 67.6499 48.0874C67.5239 48.2134 67.4531 48.3843 67.4531 48.5625C67.4531 55.7867 73.6319 61.664 81.2266 61.664C88.8212 61.664 95 55.7867 95 48.5625C95 48.3843 94.9292 48.2134 94.8032 48.0874C94.6772 47.9614 94.5063 47.8906 94.3281 47.8906ZM82.8009 39.2619C82.7518 39.8149 82.8758 40.3695 83.1557 40.849C83.4357 41.3284 83.8579 41.709 84.3637 41.9379C84.7735 42.1165 85.1271 42.4033 85.3865 42.7674C82.4929 42.7093 81.2076 42.0962 80.6864 41.7174C80.8217 41.171 81.0836 40.6641 81.4509 40.2376C81.8182 39.811 82.2807 39.4768 82.8009 39.2619ZM78.0461 42.3791C78.2811 42.2961 78.5304 42.2615 78.779 42.2772C79.0277 42.2929 79.2706 42.3587 79.4932 42.4706C80.1022 43.1071 81.7142 44.1162 85.819 44.1162C85.9864 44.1162 86.1588 44.1146 86.3348 44.1113C86.3425 44.1111 86.3495 44.109 86.357 44.1086C86.9697 44.0965 87.5671 44.3004 88.0444 44.6847C88.3619 44.9995 88.559 45.4157 88.6013 45.8607C82.3323 46.457 78.1837 44.3054 76.8588 43.485C77.128 43.0003 77.5436 42.6132 78.0461 42.3791ZM72.7748 45.9153C73.2331 45.1227 74.2596 44.6203 75.8143 44.413C76.7659 45.0667 80.4681 47.3132 86.3972 47.3132C87.4165 47.3114 88.4346 47.2465 89.4459 47.1189C89.7635 47.1478 90.0624 47.2819 90.2952 47.4999C90.3965 47.6115 90.47 47.7453 90.51 47.8906H72.6096C72.4073 47.2356 72.4665 46.5276 72.7748 45.9153ZM81.2266 60.3202C75.8695 60.3202 71.294 57.0972 69.5507 52.5937H92.9024C91.1591 57.0972 86.5837 60.3202 81.2266 60.3202ZM93.3251 51.2499H69.1281C68.9628 50.589 68.8586 49.9143 68.8169 49.2343H93.6362C93.5945 49.9143 93.4903 50.589 93.3251 51.2499Z" fill="#FF0036"/>
<path d="M77.6138 58.4089C77.7832 58.4639 77.9676 58.4492 78.1262 58.3683C78.2849 58.2873 78.405 58.1467 78.46 57.9773C78.515 57.8078 78.5005 57.6235 78.4196 57.4647C78.3388 57.306 78.1982 57.1859 78.0288 57.1308C76.201 56.5487 74.5861 55.439 73.3875 53.9414C73.3326 53.8723 73.2647 53.8146 73.1876 53.7718C73.1105 53.7289 73.0257 53.7017 72.938 53.6916C72.8504 53.6815 72.7616 53.6888 72.6768 53.713C72.592 53.7372 72.5127 53.7779 72.4436 53.8328C72.3745 53.8876 72.3169 53.9555 72.274 54.0327C72.2312 54.1098 72.2039 54.1946 72.1939 54.2822C72.1838 54.3699 72.191 54.4586 72.2153 54.5435C72.2395 54.6283 72.2802 54.7075 72.335 54.7766C73.6977 56.4817 75.5343 57.7455 77.6138 58.4089Z" fill="#FF0036"/>
<path d="M39.7715 75.5918H41.4766C41.5156 75.9355 41.6973 76.2148 42.0215 76.4297C42.3496 76.6406 42.75 76.7461 43.2227 76.7461C43.6914 76.7461 44.0723 76.6465 44.3652 76.4473C44.6621 76.2441 44.8105 75.9863 44.8105 75.6738C44.8105 75.4004 44.7012 75.1797 44.4824 75.0117C44.2637 74.8438 43.8984 74.7031 43.3867 74.5898L42.2852 74.3496C40.7344 74.0176 39.959 73.2305 39.959 71.9883C39.959 71.2148 40.2598 70.5898 40.8613 70.1133C41.4668 69.6367 42.2441 69.3984 43.1934 69.3984C44.1699 69.3984 44.9492 69.6309 45.5312 70.0957C46.1133 70.5566 46.4121 71.1719 46.4277 71.9414H44.7695C44.7422 71.5859 44.584 71.3066 44.2949 71.1035C44.0098 70.8965 43.6445 70.793 43.1992 70.793C42.7617 70.793 42.4082 70.8887 42.1387 71.0801C41.873 71.2715 41.7402 71.5234 41.7402 71.8359C41.7402 72.0938 41.8477 72.3027 42.0625 72.4629C42.2812 72.623 42.6348 72.7598 43.123 72.873L44.1484 73.0898C44.9961 73.2695 45.6133 73.5508 46 73.9336C46.3867 74.3125 46.5801 74.8242 46.5801 75.4688C46.5801 76.2891 46.2715 76.9414 45.6543 77.4258C45.0371 77.9062 44.2031 78.1465 43.1523 78.1465C42.1328 78.1465 41.3203 77.9199 40.7148 77.4668C40.1133 77.0098 39.7988 76.3848 39.7715 75.5918ZM47.5527 78V71.7188H49.2637V78H47.5527ZM49.0586 70.7695C48.8828 70.9414 48.666 71.0273 48.4082 71.0273C48.1504 71.0273 47.9336 70.9414 47.7578 70.7695C47.582 70.5977 47.4941 70.3887 47.4941 70.1426C47.4941 69.8926 47.582 69.6836 47.7578 69.5156C47.9336 69.3438 48.1504 69.2578 48.4082 69.2578C48.666 69.2578 48.8828 69.3438 49.0586 69.5156C49.2344 69.6836 49.3223 69.8926 49.3223 70.1426C49.3223 70.3887 49.2344 70.5977 49.0586 70.7695ZM52.7383 78.0996C51.9531 78.0996 51.3301 77.8086 50.8691 77.2266C50.4082 76.6445 50.1777 75.8516 50.1777 74.8477C50.1777 73.8516 50.4082 73.0645 50.8691 72.4863C51.334 71.9082 51.9609 71.6191 52.75 71.6191C53.1953 71.6191 53.5859 71.7266 53.9219 71.9414C54.2617 72.1562 54.5098 72.4414 54.666 72.7969H54.7012V69.5449H56.4121V78H54.7246V76.9219H54.6953C54.5391 77.2773 54.2871 77.5625 53.9395 77.7773C53.5918 77.9922 53.1914 78.0996 52.7383 78.0996ZM53.3184 72.9902C52.8887 72.9902 52.5488 73.1582 52.2988 73.4941C52.0527 73.8301 51.9297 74.2852 51.9297 74.8594C51.9297 75.4375 52.0527 75.8926 52.2988 76.2246C52.5488 76.5566 52.8887 76.7227 53.3184 76.7227C53.7441 76.7227 54.082 76.5566 54.332 76.2246C54.5859 75.8887 54.7129 75.4336 54.7129 74.8594C54.7129 74.2891 54.5859 73.8359 54.332 73.5C54.082 73.1602 53.7441 72.9902 53.3184 72.9902ZM60.373 72.8496C60.002 72.8496 59.6914 72.9766 59.4414 73.2305C59.1953 73.4844 59.0566 73.8086 59.0254 74.2031H61.6914C61.6719 73.8008 61.541 73.4746 61.2988 73.2246C61.0605 72.9746 60.752 72.8496 60.373 72.8496ZM61.7148 76.0781H63.2852C63.1914 76.6953 62.8828 77.1934 62.3594 77.5723C61.8398 77.9473 61.1934 78.1348 60.4199 78.1348C59.4551 78.1348 58.6973 77.8457 58.1465 77.2676C57.5996 76.6895 57.3262 75.8965 57.3262 74.8887C57.3262 73.8848 57.5996 73.084 58.1465 72.4863C58.6934 71.8848 59.4297 71.584 60.3555 71.584C61.2656 71.584 61.9902 71.8691 62.5293 72.4395C63.0684 73.0098 63.3379 73.7734 63.3379 74.7305V75.252H59.0078V75.3574C59.0078 75.8066 59.1387 76.1719 59.4004 76.4531C59.666 76.7305 60.0156 76.8691 60.4492 76.8691C60.7617 76.8691 61.0312 76.7988 61.2578 76.6582C61.4844 76.5137 61.6367 76.3203 61.7148 76.0781ZM67.5801 70.5762C68.3145 69.791 69.3086 69.3984 70.5625 69.3984C71.8164 69.3984 72.8086 69.791 73.5391 70.5762C74.2734 71.3613 74.6406 72.4277 74.6406 73.7754C74.6406 75.1191 74.2734 76.1836 73.5391 76.9688C72.8047 77.7539 71.8125 78.1465 70.5625 78.1465C69.3086 78.1465 68.3145 77.7539 67.5801 76.9688C66.8496 76.1836 66.4844 75.1191 66.4844 73.7754C66.4844 72.4277 66.8496 71.3613 67.5801 70.5762ZM72.2148 71.6602C71.8047 71.1367 71.2539 70.875 70.5625 70.875C69.8711 70.875 69.3184 71.1367 68.9043 71.6602C68.4941 72.1836 68.2891 72.8887 68.2891 73.7754C68.2891 74.6582 68.4941 75.3613 68.9043 75.8848C69.3145 76.4043 69.8672 76.6641 70.5625 76.6641C71.2539 76.6641 71.8047 76.4043 72.2148 75.8848C72.625 75.3613 72.8301 74.6582 72.8301 73.7754C72.8301 72.8887 72.625 72.1836 72.2148 71.6602ZM75.6367 78V71.7188H77.2891V72.8496H77.3242C77.4336 72.4512 77.6172 72.1465 77.875 71.9355C78.1328 71.7246 78.4473 71.6191 78.8184 71.6191C78.998 71.6191 79.1602 71.6406 79.3047 71.6836V73.1895C79.1445 73.123 78.9375 73.0898 78.6836 73.0898C78.2617 73.0898 77.9336 73.2129 77.6992 73.459C77.4648 73.7051 77.3477 74.0488 77.3477 74.4902V78H75.6367ZM82.1289 78.0996C81.3438 78.0996 80.7207 77.8086 80.2598 77.2266C79.7988 76.6445 79.5684 75.8516 79.5684 74.8477C79.5684 73.8516 79.7988 73.0645 80.2598 72.4863C80.7246 71.9082 81.3516 71.6191 82.1406 71.6191C82.5859 71.6191 82.9766 71.7266 83.3125 71.9414C83.6523 72.1562 83.9004 72.4414 84.0566 72.7969H84.0918V69.5449H85.8027V78H84.1152V76.9219H84.0859C83.9297 77.2773 83.6777 77.5625 83.3301 77.7773C82.9824 77.9922 82.582 78.0996 82.1289 78.0996ZM82.709 72.9902C82.2793 72.9902 81.9395 73.1582 81.6895 73.4941C81.4434 73.8301 81.3203 74.2852 81.3203 74.8594C81.3203 75.4375 81.4434 75.8926 81.6895 76.2246C81.9395 76.5566 82.2793 76.7227 82.709 76.7227C83.1348 76.7227 83.4727 76.5566 83.7227 76.2246C83.9766 75.8887 84.1035 75.4336 84.1035 74.8594C84.1035 74.2891 83.9766 73.8359 83.7227 73.5C83.4727 73.1602 83.1348 72.9902 82.709 72.9902ZM89.7637 72.8496C89.3926 72.8496 89.082 72.9766 88.832 73.2305C88.5859 73.4844 88.4473 73.8086 88.416 74.2031H91.082C91.0625 73.8008 90.9316 73.4746 90.6895 73.2246C90.4512 72.9746 90.1426 72.8496 89.7637 72.8496ZM91.1055 76.0781H92.6758C92.582 76.6953 92.2734 77.1934 91.75 77.5723C91.2305 77.9473 90.584 78.1348 89.8105 78.1348C88.8457 78.1348 88.0879 77.8457 87.5371 77.2676C86.9902 76.6895 86.7168 75.8965 86.7168 74.8887C86.7168 73.8848 86.9902 73.084 87.5371 72.4863C88.084 71.8848 88.8203 71.584 89.7461 71.584C90.6562 71.584 91.3809 71.8691 91.9199 72.4395C92.459 73.0098 92.7285 73.7734 92.7285 74.7305V75.252H88.3984V75.3574C88.3984 75.8066 88.5293 76.1719 88.791 76.4531C89.0566 76.7305 89.4062 76.8691 89.8398 76.8691C90.1523 76.8691 90.4219 76.7988 90.6484 76.6582C90.875 76.5137 91.0273 76.3203 91.1055 76.0781ZM93.6133 78V71.7188H95.2656V72.8496H95.3008C95.4102 72.4512 95.5938 72.1465 95.8516 71.9355C96.1094 71.7246 96.4238 71.6191 96.7949 71.6191C96.9746 71.6191 97.1367 71.6406 97.2812 71.6836V73.1895C97.1211 73.123 96.9141 73.0898 96.6602 73.0898C96.2383 73.0898 95.9102 73.2129 95.6758 73.459C95.4414 73.7051 95.3242 74.0488 95.3242 74.4902V78H93.6133ZM97.8789 73.5645C97.8789 72.9668 98.1191 72.4883 98.5996 72.1289C99.0801 71.7656 99.7227 71.584 100.527 71.584C101.312 71.584 101.943 71.7676 102.42 72.1348C102.896 72.502 103.141 72.9902 103.152 73.5996H101.576C101.557 73.3457 101.451 73.1465 101.26 73.002C101.072 72.8574 100.82 72.7852 100.504 72.7852C100.207 72.7852 99.9688 72.8477 99.7891 72.9727C99.6133 73.0938 99.5254 73.2559 99.5254 73.459C99.5254 73.7637 99.7988 73.9805 100.346 74.1094L101.547 74.3672C102.176 74.5078 102.627 74.7129 102.9 74.9824C103.178 75.248 103.316 75.6152 103.316 76.084C103.316 76.7012 103.059 77.1973 102.543 77.5723C102.027 77.9473 101.354 78.1348 100.521 78.1348C99.6934 78.1348 99.0312 77.9512 98.5352 77.584C98.0391 77.2168 97.7676 76.7227 97.7207 76.1016H99.3906C99.4336 76.3672 99.5547 76.5723 99.7539 76.7168C99.957 76.8613 100.229 76.9336 100.568 76.9336C100.893 76.9336 101.146 76.875 101.33 76.7578C101.518 76.6367 101.611 76.4727 101.611 76.2656C101.611 76.1055 101.553 75.9785 101.436 75.8848C101.318 75.7871 101.119 75.7051 100.838 75.6387L99.6777 75.3809C98.4785 75.1074 97.8789 74.502 97.8789 73.5645Z" fill="#FF0036"/>
<defs>
<filter id="filter0_dd_57_481" x="0" y="0" width="144" height="107" filterUnits="userSpaceOnUse" color-interpolation-filters="sRGB">
<feFlood flood-opacity="0" result="BackgroundImageFix"/>
<feColorMatrix in="SourceAlpha" type="matrix" values="0 0 0 0 0 0 0 0 0 0 0 0 0 0 0 0 0 0 127 0" result="hardAlpha"/>
<feOffset dy="4"/>
<feGaussianBlur stdDeviation="2"/>
<feComposite in2="hardAlpha" operator="out"/>
<feColorMatrix type="matrix" values="0 0 0 0 0.5125 0 0 0 0 0.5125 0 0 0 0 0.5125 0 0 0 0.15 0"/>
<feBlend mode="normal" in2="BackgroundImageFix" result="effect1_dropShadow_57_481"/>
<feColorMatrix in="SourceAlpha" type="matrix" values="0 0 0 0 0 0 0 0 0 0 0 0 0 0 0 0 0 0 127 0" result="hardAlpha"/>
<feOffset/>
<feGaussianBlur stdDeviation="5"/>
<feComposite in2="hardAlpha" operator="out"/>
<feColorMatrix type="matrix" values="0 0 0 0 1 0 0 0 0 0 0 0 0 0 0.211765 0 0 0 0.2 0"/>
<feBlend mode="normal" in2="effect1_dropShadow_57_481" result="effect2_dropShadow_57_481"/>
<feBlend mode="normal" in="SourceGraphic" in2="effect2_dropShadow_57_481" result="shape"/>
</filter>
</defs>
</svg>
