<svg width="144" height="107" viewBox="0 0 144 107" fill="none" xmlns="http://www.w3.org/2000/svg">
<g filter="url(#filter0_dd_57_374)">
<rect x="10" y="10" width="124" height="87" rx="25" fill="white"/>
<rect x="11" y="11" width="122" height="85" rx="24" stroke="#FF0036" stroke-width="2"/>
</g>
<path d="M54.6543 71.5449H57.8828C59.1562 71.5449 60.1465 71.9102 60.8535 72.6406C61.5605 73.3711 61.9141 74.4043 61.9141 75.7402C61.9141 77.0801 61.5586 78.125 60.8477 78.875C60.1406 79.625 59.1523 80 57.8828 80H54.6543V71.5449ZM56.4238 73.0039V78.5352H57.6719C58.4648 78.5352 59.0684 78.2988 59.4824 77.8262C59.9004 77.3496 60.1094 76.6562 60.1094 75.7461C60.1094 74.8633 59.8984 74.1855 59.4766 73.7129C59.0547 73.2402 58.4531 73.0039 57.6719 73.0039H56.4238ZM62.9102 80V73.7188H64.5625V74.8496H64.5977C64.707 74.4512 64.8906 74.1465 65.1484 73.9355C65.4062 73.7246 65.7207 73.6191 66.0918 73.6191C66.2715 73.6191 66.4336 73.6406 66.5781 73.6836V75.1895C66.418 75.123 66.2109 75.0898 65.957 75.0898C65.5352 75.0898 65.207 75.2129 64.9727 75.459C64.7383 75.7051 64.6211 76.0488 64.6211 76.4902V80H62.9102ZM67.3105 80V73.7188H69.0215V80H67.3105ZM68.8164 72.7695C68.6406 72.9414 68.4238 73.0273 68.166 73.0273C67.9082 73.0273 67.6914 72.9414 67.5156 72.7695C67.3398 72.5977 67.252 72.3887 67.252 72.1426C67.252 71.8926 67.3398 71.6836 67.5156 71.5156C67.6914 71.3438 67.9082 71.2578 68.166 71.2578C68.4238 71.2578 68.6406 71.3438 68.8164 71.5156C68.9922 71.6836 69.0801 71.8926 69.0801 72.1426C69.0801 72.3887 68.9922 72.5977 68.8164 72.7695ZM70.1641 80V73.7188H71.8164V74.8379H71.8516C72.0234 74.4395 72.2734 74.1348 72.6016 73.9238C72.9336 73.709 73.3379 73.6016 73.8145 73.6016C74.5098 73.6016 75.0469 73.8086 75.4258 74.2227C75.8047 74.6367 75.9941 75.2129 75.9941 75.9512V80H74.2832V76.3086C74.2832 75.8945 74.1855 75.5762 73.9902 75.3535C73.7949 75.1309 73.5078 75.0195 73.1289 75.0195C72.75 75.0195 72.4453 75.1465 72.2148 75.4004C71.9883 75.6543 71.875 75.9863 71.875 76.3965V80H70.1641ZM78.8535 76.2383L80.9863 73.7188H82.9258L80.5293 76.4141L83.043 80H81.0742L79.2754 77.4453L78.8301 77.9258V80H77.1191V71.5449H78.8301V76.2383H78.8535ZM83.3125 75.5645C83.3125 74.9668 83.5527 74.4883 84.0332 74.1289C84.5137 73.7656 85.1562 73.584 85.9609 73.584C86.7461 73.584 87.377 73.7676 87.8535 74.1348C88.3301 74.502 88.5742 74.9902 88.5859 75.5996H87.0098C86.9902 75.3457 86.8848 75.1465 86.6934 75.002C86.5059 74.8574 86.2539 74.7852 85.9375 74.7852C85.6406 74.7852 85.4023 74.8477 85.2227 74.9727C85.0469 75.0938 84.959 75.2559 84.959 75.459C84.959 75.7637 85.2324 75.9805 85.7793 76.1094L86.9805 76.3672C87.6094 76.5078 88.0605 76.7129 88.334 76.9824C88.6113 77.248 88.75 77.6152 88.75 78.084C88.75 78.7012 88.4922 79.1973 87.9766 79.5723C87.4609 79.9473 86.7871 80.1348 85.9551 80.1348C85.127 80.1348 84.4648 79.9512 83.9688 79.584C83.4727 79.2168 83.2012 78.7227 83.1543 78.1016H84.8242C84.8672 78.3672 84.9883 78.5723 85.1875 78.7168C85.3906 78.8613 85.6621 78.9336 86.002 78.9336C86.3262 78.9336 86.5801 78.875 86.7637 78.7578C86.9512 78.6367 87.0449 78.4727 87.0449 78.2656C87.0449 78.1055 86.9863 77.9785 86.8691 77.8848C86.752 77.7871 86.5527 77.7051 86.2715 77.6387L85.1113 77.3809C83.9121 77.1074 83.3125 76.502 83.3125 75.5645Z" fill="#FF0036"/>
<path d="M83.6182 32.4221H83.4708C83.005 29.9929 81.5093 27.7815 79.253 26.186C76.9967 24.5905 74.1281 23.7158 71.1636 23.7194C70.0271 23.7194 68.9259 23.8507 67.8752 24.0867L67.3813 21.8239C66.8271 19.1156 63.7912 18.3135 62.4112 18.372L53.7576 18.002C53.3681 17.9743 53.0215 18.2385 53.001 18.5681C52.9961 18.6465 53.0098 18.7249 53.0414 18.7989C53.0731 18.8729 53.122 18.941 53.1853 18.9993C53.2487 19.0576 53.3253 19.105 53.4107 19.1387C53.4961 19.1724 53.5888 19.1919 53.6833 19.1959L62.3735 19.5674C62.3984 19.5685 62.4253 19.568 62.4529 19.5674C63.2639 19.5222 65.5536 20.0395 65.961 22.0312L66.494 24.4705C64.5016 25.1358 62.7509 26.2178 61.4123 27.6113C60.0737 29.0048 59.1929 30.6622 58.8557 32.4221H58.7109C58.3448 32.4227 57.9939 32.5436 57.735 32.7584C57.4762 32.9732 57.3304 33.2644 57.3297 33.5681V36.7474C57.3304 37.0512 57.4762 37.3423 57.735 37.5571C57.9939 37.7719 58.3448 37.8929 58.7109 37.8934H58.9313L61.0973 53.8981C61.0883 53.9353 61.0704 53.9699 61.0704 54.0092C61.0704 54.1028 61.1012 54.1884 61.1473 54.267L62.1915 61.981C62.2292 62.2613 62.3902 62.5203 62.6436 62.7083C62.897 62.8963 63.2251 63.0002 63.565 63H78.6987C79.4028 63 79.9928 62.562 80.0716 61.981L83.3331 37.8934H83.6188C83.9849 37.8929 84.3358 37.7719 84.5947 37.5571C84.8536 37.3423 84.9993 37.0512 85 36.7474V33.5681C84.9993 33.2643 84.8535 32.973 84.5945 32.7582C84.3355 32.5434 83.9844 32.4225 83.6182 32.4221ZM71.1636 24.9154C76.5436 24.9154 81.0787 28.0984 82.0223 32.4221H69.6972L68.134 25.2673C69.1194 25.0341 70.139 24.9157 71.1636 24.9154ZM66.7579 25.6788L68.2314 32.4221H60.3036C60.973 29.355 63.4548 26.8689 66.7579 25.6788ZM79.7808 53.4117H62.4824L60.9807 42.3197H81.0101C81.1088 42.3197 81.203 42.3032 81.2888 42.2729L79.7808 53.4117ZM78.6443 61.8045H63.6176L62.6438 54.6078H79.6187L78.6443 61.8045ZM83.5579 36.698H82.688C82.3215 36.698 82.0127 36.9271 81.9717 37.229L81.4272 41.2476C81.3078 41.1702 81.1615 41.127 81.0101 41.1242H60.8302C60.8263 41.1242 60.8231 41.1258 60.8193 41.1258L60.3817 37.8945H80.2843C80.4754 37.8945 80.6588 37.8315 80.7939 37.7193C80.9291 37.6072 81.005 37.4551 81.005 37.2965C81.005 37.1379 80.9291 36.9858 80.7939 36.8736C80.6588 36.7615 80.4754 36.6985 80.2843 36.6985H58.7712V33.6186H83.5586L83.5579 36.698Z" fill="#FF0036"/>
<path d="M73.6192 27.477C75.2161 27.8455 76.5717 28.7245 77.3887 29.9211C77.4825 30.0593 77.6386 30.161 77.8227 30.2037C78.0068 30.2464 78.2039 30.2267 78.3705 30.1489C78.5371 30.0711 78.6596 29.9415 78.711 29.7888C78.7625 29.636 78.7388 29.4725 78.645 29.3343C77.6385 27.8605 75.969 26.7779 74.0023 26.3235C73.8217 26.2906 73.6327 26.3164 73.4744 26.3957C73.316 26.4749 73.2004 26.6015 73.1513 26.7495C73.1021 26.8974 73.1233 27.0553 73.2103 27.1907C73.2974 27.326 73.4437 27.4285 73.6192 27.477ZM78.2196 30.5473C78.1203 30.6311 78.0529 30.7373 78.0258 30.8527C77.9986 30.968 78.0128 31.0875 78.0667 31.1962C78.1206 31.3049 78.2118 31.398 78.329 31.4641C78.4461 31.5302 78.5841 31.5663 78.7257 31.5679C78.9167 31.568 79.1 31.5055 79.2357 31.394C79.3715 31.2825 79.4486 31.131 79.4502 30.9725C79.4502 30.8131 79.3734 30.6589 79.2388 30.5473C78.9698 30.324 78.4893 30.324 78.2196 30.5473Z" fill="#FF0036"/>
<defs>
<filter id="filter0_dd_57_374" x="0" y="0" width="144" height="107" filterUnits="userSpaceOnUse" color-interpolation-filters="sRGB">
<feFlood flood-opacity="0" result="BackgroundImageFix"/>
<feColorMatrix in="SourceAlpha" type="matrix" values="0 0 0 0 0 0 0 0 0 0 0 0 0 0 0 0 0 0 127 0" result="hardAlpha"/>
<feOffset dy="4"/>
<feGaussianBlur stdDeviation="2"/>
<feComposite in2="hardAlpha" operator="out"/>
<feColorMatrix type="matrix" values="0 0 0 0 0.5125 0 0 0 0 0.5125 0 0 0 0 0.5125 0 0 0 0.15 0"/>
<feBlend mode="normal" in2="BackgroundImageFix" result="effect1_dropShadow_57_374"/>
<feColorMatrix in="SourceAlpha" type="matrix" values="0 0 0 0 0 0 0 0 0 0 0 0 0 0 0 0 0 0 127 0" result="hardAlpha"/>
<feOffset/>
<feGaussianBlur stdDeviation="5"/>
<feComposite in2="hardAlpha" operator="out"/>
<feColorMatrix type="matrix" values="0 0 0 0 1 0 0 0 0 0 0 0 0 0 0.211765 0 0 0 0.2 0"/>
<feBlend mode="normal" in2="effect1_dropShadow_57_374" result="effect2_dropShadow_57_374"/>
<feBlend mode="normal" in="SourceGraphic" in2="effect2_dropShadow_57_374" result="shape"/>
</filter>
</defs>
</svg>
