<svg width="144" height="107" viewBox="0 0 144 107" fill="none" xmlns="http://www.w3.org/2000/svg">
<g filter="url(#filter0_dd_57_418)">
<rect x="10" y="10" width="124" height="87" rx="25" fill="white"/>
<rect x="11" y="11" width="122" height="85" rx="24" stroke="#FF0036" stroke-width="2"/>
</g>
<path d="M94.2581 50.387V42.5573C94.2124 41.8379 93.8845 41.1656 93.3456 40.6866C92.8068 40.2077 92.1007 39.9609 91.3808 39.9999C90.838 39.9975 90.3037 40.1358 89.8302 40.4013L85.3645 42.9313L84.1818 40.8435C83.7987 40.1368 83.1547 39.6078 82.3871 39.3692V34.3982C82.342 33.6784 82.0143 33.0055 81.4754 32.5261C80.9365 32.0467 80.2301 31.7996 79.5099 31.8385C78.967 31.8362 78.4328 31.9745 77.9592 32.2399L72 35.6165V31.5358C71.9492 30.7834 71.6036 30.0814 71.0382 29.5824C70.4727 29.0834 69.7332 28.8276 68.9803 28.8708C68.4109 28.8686 67.8505 29.0124 67.3525 29.2885L60.3138 33.2482C59.9995 33.4262 59.7145 33.6514 59.4687 33.916C59.0093 33.5359 58.4327 33.3262 57.8365 33.3224C57.3972 33.3293 56.9664 33.4436 56.5815 33.6553C56.1966 33.867 55.8694 34.1697 55.6285 34.537L51.4914 40.2143C51.3277 40.2793 51.1706 40.3601 51.0225 40.4554C50.6198 40.7338 50.2924 41.1077 50.0697 41.5437C49.847 41.9797 49.7359 42.4641 49.7464 42.9535L49.7419 50.387C49.5452 50.387 49.3564 50.4652 49.2173 50.6043C49.0782 50.7435 49 50.9322 49 51.129V54.8387C49.0026 57.0024 49.8632 59.0768 51.3932 60.6068C52.9232 62.1368 54.9976 62.9974 57.1613 63H86.8387C89.0024 62.9974 91.0768 62.1368 92.6068 60.6068C94.1368 59.0768 94.9974 57.0024 95 54.8387V51.129C95 50.9322 94.9218 50.7435 94.7827 50.6043C94.6436 50.4652 94.4548 50.387 94.2581 50.387ZM90.5617 41.6922C90.8113 41.5537 91.0924 41.4819 91.3779 41.4838C91.7037 41.4507 92.0298 41.5434 92.2894 41.743C92.549 41.9426 92.7225 42.234 92.7742 42.5573V50.387H87.9887C88.2192 49.9282 88.3336 49.4199 88.3218 48.9066C88.31 48.3933 88.1725 47.8908 87.9212 47.443L86.0968 44.2223L90.5617 41.6922ZM93.5161 54.0967H50.4839V51.8709H93.5161V54.0967ZM56.4194 49.0575C56.4168 48.7519 56.5029 48.4522 56.6672 48.1946L61.1188 41.4578C61.2439 41.2472 61.4198 41.0713 61.6304 40.9462C61.841 40.8211 62.0796 40.7509 62.3244 40.7418C62.5921 40.7547 62.8515 40.8388 63.0758 40.9854C63.3001 41.132 63.4813 41.3358 63.6005 41.5758L64.1199 42.4972C63.8678 42.9326 63.6588 43.3916 63.4959 43.8676L63.3038 44.4515H63.0968C62.9 44.4515 62.7113 44.5297 62.5721 44.6688C62.433 44.808 62.3548 44.9967 62.3548 45.1935V48.1612C62.3548 48.358 62.433 48.5467 62.5721 48.6858C62.7113 48.825 62.9 48.9031 63.0968 48.9031V50.387H57.438C57.1309 50.3367 56.8546 50.1711 56.6653 49.9241C56.476 49.677 56.3881 49.3671 56.4194 49.0575ZM70.9242 39.9999H73.0758C74.4071 40 75.7047 40.419 76.7847 41.1974C77.8647 41.9758 78.6725 43.0743 79.0936 44.3373L79.1315 44.4515H64.8685L64.9064 44.3373C65.3275 43.0743 66.1353 41.9758 67.2153 41.1974C68.2953 40.419 69.5929 40 70.9242 39.9999ZM64.5806 50.387V48.9031H79.4194V50.387H64.5806ZM80.1613 45.9354V47.4193H63.8387V45.9354H80.1613ZM82.8909 41.5758L86.6302 48.1746C86.7687 48.4242 86.8406 48.7053 86.8387 48.9907C86.8718 49.3165 86.779 49.6426 86.5794 49.9022C86.3798 50.1618 86.0885 50.3353 85.7651 50.387H80.9032V48.9031C81.1 48.9031 81.2887 48.825 81.4279 48.6858C81.567 48.5467 81.6452 48.358 81.6452 48.1612V45.1935C81.6452 44.9967 81.567 44.808 81.4279 44.6688C81.2887 44.5297 81.1 44.4515 80.9032 44.4515H80.6962L80.5011 43.8683C80.3243 43.3457 80.092 42.8435 79.8081 42.3704L80.4113 41.4578C80.5362 41.2475 80.7118 41.0718 80.922 40.9467C81.1322 40.8217 81.3703 40.7512 81.6147 40.7418C81.8824 40.7547 82.1418 40.8388 82.3661 40.9854C82.5904 41.132 82.7716 41.3358 82.8909 41.5758ZM78.6908 33.5309C78.9404 33.3924 79.2215 33.3206 79.5069 33.3224C79.8327 33.2893 80.1588 33.3821 80.4184 33.5817C80.678 33.7813 80.8515 34.0726 80.9032 34.396V39.3544C80.1901 39.5591 79.5755 40.0157 79.1738 40.6394L78.8674 41.1031C78.1391 40.2878 77.2466 39.6358 76.2484 39.1899C75.2502 38.744 74.169 38.5143 73.0758 38.516H71.2625C71.2807 38.2542 71.3667 38.0016 71.5121 37.7832C71.6576 37.5648 71.8574 37.388 72.092 37.2703L78.6908 33.5309ZM61.0409 34.5422L68.0804 30.5824C68.3558 30.4305 68.6658 30.3521 68.9803 30.3547C69.3387 30.3179 69.6975 30.4198 69.9831 30.6393C70.2687 30.8588 70.4594 31.1794 70.5161 31.5351V36.6611C70.0439 37.1757 69.7796 37.8473 69.7742 38.5457C69.7742 38.565 69.7794 38.5835 69.7794 38.6028C67.9545 38.866 66.2849 39.7759 65.0748 41.1669L64.8915 40.8427C64.6792 40.4477 64.3818 40.1047 64.0207 39.8388C63.6596 39.5728 63.2439 39.3903 62.8037 39.3047L60.3917 35.1253C60.5607 34.8839 60.7828 34.6844 61.0409 34.5422ZM56.84 35.388C56.9445 35.2165 57.0898 35.0736 57.2631 34.972C57.4363 34.8705 57.6321 34.8136 57.8327 34.8063C58.0524 34.8162 58.2655 34.8842 58.4504 35.0031C58.6353 35.1221 58.7855 35.2879 58.8855 35.4837L61.2056 39.505C60.666 39.7498 60.2073 40.1433 59.8835 40.6394L58.548 42.6634L54.0407 40.3634C53.8354 40.2603 53.6201 40.1783 53.3982 40.1186L56.84 35.388ZM51.2303 42.9558C51.2184 42.7113 51.268 42.4678 51.3745 42.2474C51.481 42.0271 51.6411 41.837 51.8401 41.6945C52.0706 41.5581 52.3332 41.4854 52.601 41.484C52.8688 41.4826 53.1321 41.5524 53.3641 41.6863L57.7222 43.9121L55.4296 47.3792C55.1421 47.8221 54.974 48.3319 54.9419 48.859C54.9098 49.3861 55.0147 49.9125 55.2464 50.387H51.2258L51.2303 42.9558ZM86.8387 61.5161H57.1613C55.5197 61.5137 53.9364 60.9075 52.7131 59.8129C51.4897 58.7183 50.7118 57.2118 50.5276 55.5806H93.4724C93.2882 57.2118 92.5103 58.7183 91.2869 59.8129C90.0636 60.9075 88.4803 61.5137 86.8387 61.5161ZM58.2742 31.8385C58.7644 31.8397 59.2462 31.7117 59.6713 31.4676L65.3901 28.1682C65.802 27.9551 66.1502 27.6368 66.3992 27.2455C66.6482 26.8543 66.7892 26.4041 66.8078 25.9407C66.8264 25.4773 66.722 25.0173 66.5052 24.6073C66.2884 24.1974 65.9669 23.8521 65.5734 23.6067L59.7351 19.6744C59.2835 19.3786 58.7547 19.2225 58.2148 19.2256C57.5745 19.1959 56.9485 19.4205 56.4731 19.8505C55.9978 20.2806 55.7118 20.8811 55.6774 21.5211V29.4948C55.7129 30.1492 56.0059 30.763 56.4925 31.2022C56.979 31.6413 57.6195 31.8701 58.2742 31.8385ZM57.1613 21.5211C57.2004 21.277 57.3312 21.0571 57.527 20.9062C57.7228 20.7554 57.9689 20.685 58.2148 20.7094C58.4589 20.7074 58.6981 20.7773 58.9026 20.9105L64.7409 24.8428C64.912 24.947 65.0547 25.0919 65.1561 25.2646C65.2576 25.4372 65.3148 25.6324 65.3226 25.8325C65.3126 26.0522 65.2447 26.2653 65.1257 26.4502C65.0068 26.6351 64.841 26.7853 64.6452 26.8854L58.9256 30.1848C58.7271 30.2974 58.5025 30.3559 58.2742 30.3547C58.0139 30.3808 57.7536 30.3062 57.5466 30.1462C57.3396 29.9863 57.2017 29.7532 57.1613 29.4948V21.5211ZM72.8117 28.1288H80.7853C81.439 28.0933 82.0523 27.8008 82.4913 27.3151C82.9303 26.8294 83.1596 26.1898 83.129 25.5358C83.1302 25.0456 83.0022 24.5637 82.7581 24.1387L79.4609 18.4198C79.2478 18.0079 78.9295 17.6597 78.5383 17.4107C78.147 17.1617 77.6969 17.0207 77.2335 17.0021C76.7701 16.9835 76.31 17.0879 75.9001 17.3047C75.4901 17.5216 75.1449 17.8431 74.8995 18.2366L70.9672 24.0749C70.6713 24.5252 70.5144 25.0526 70.5161 25.5914C70.4864 26.2317 70.7111 26.8578 71.1411 27.3331C71.5711 27.8084 72.1716 28.0945 72.8117 28.1288ZM72.2011 24.9036L76.1333 19.0653C76.2375 18.8942 76.3824 18.7516 76.5551 18.6501C76.7278 18.5486 76.9229 18.4914 77.1231 18.4836C77.3427 18.4936 77.5558 18.5615 77.7407 18.6805C77.9257 18.7994 78.0758 18.9652 78.1759 19.161L81.4753 24.8806C81.5885 25.0803 81.6471 25.3062 81.6452 25.5358C81.6703 25.7954 81.5952 26.0549 81.4354 26.261C81.2755 26.4672 81.043 26.6046 80.7853 26.645H72.8117C72.5676 26.6059 72.3476 26.4751 72.1968 26.2793C72.0459 26.0834 71.9755 25.8374 72 25.5914C71.998 25.3474 72.0679 25.1081 72.2011 24.9036ZM92.4069 25.903C91.9168 25.9019 91.4349 26.0298 91.0099 26.274L85.291 29.5734C84.8791 29.7865 84.531 30.1048 84.2819 30.496C84.0329 30.8873 83.892 31.3375 83.8733 31.8008C83.8547 32.2642 83.9591 32.7243 84.176 33.1342C84.3928 33.5442 84.7143 33.8894 85.1078 34.1348L90.9461 38.0671C91.3966 38.3623 91.924 38.5184 92.4626 38.516C93.1029 38.5457 93.7289 38.3211 94.2043 37.891C94.6796 37.461 94.9656 36.8605 95 36.2204V28.2468C94.9645 27.593 94.672 26.9798 94.1863 26.5408C93.7005 26.1017 93.061 25.8725 92.4069 25.903ZM93.5161 36.2204C93.4771 36.4645 93.3462 36.6845 93.1504 36.8353C92.9546 36.9862 92.7086 37.0566 92.4626 37.0321C92.2185 37.0342 91.9793 36.9642 91.7748 36.8311L85.9365 32.8988C85.7659 32.7949 85.6236 32.6506 85.5221 32.4786C85.4207 32.3066 85.3632 32.1123 85.3548 31.9127C85.3648 31.6931 85.4327 31.48 85.5517 31.2951C85.6706 31.1101 85.8364 30.96 86.0322 30.8599L91.7518 27.5605C91.9511 27.446 92.1771 27.3861 92.4069 27.3869C92.6666 27.3618 92.926 27.4369 93.1322 27.5967C93.3384 27.7565 93.4757 27.9891 93.5161 28.2468V36.2204Z" fill="#FF0036"/>
<path d="M64.5806 35.5482H63.0968V37.0321H64.5806V35.5482Z" fill="#FF0036"/>
<path d="M68.2903 36.2902H66.8065V37.7741H68.2903V36.2902Z" fill="#FF0036"/>
<path d="M91.2903 46.6773H89.8065V48.1612H91.2903V46.6773Z" fill="#FF0036"/>
<path d="M91.2903 43.7096H89.8065V45.1935H91.2903V43.7096Z" fill="#FF0036"/>
<path d="M78.6774 36.2902H77.1935V37.7741H78.6774V36.2902Z" fill="#FF0036"/>
<path d="M84.6129 47.4193H83.129V48.9031H84.6129V47.4193Z" fill="#FF0036"/>
<path d="M92.0323 33.3224H90.5484V34.8063H92.0323V33.3224Z" fill="#FF0036"/>
<path d="M92.0323 30.3547H90.5484V31.8385H92.0323V30.3547Z" fill="#FF0036"/>
<path d="M89.0645 31.0966H87.5806V32.5805H89.0645V31.0966Z" fill="#FF0036"/>
<path d="M79.4194 23.6772H77.9355V25.1611H79.4194V23.6772Z" fill="#FF0036"/>
<path d="M77.9355 20.7094H76.4516V22.1933H77.9355V20.7094Z" fill="#FF0036"/>
<path d="M75.7097 23.6772H74.2258V25.1611H75.7097V23.6772Z" fill="#FF0036"/>
<path d="M63.0968 25.1611H61.6129V26.645H63.0968V25.1611Z" fill="#FF0036"/>
<path d="M60.129 23.6772H58.6452V25.1611H60.129V23.6772Z" fill="#FF0036"/>
<path d="M60.129 26.645H58.6452V28.1288H60.129V26.645Z" fill="#FF0036"/>
<path d="M69.0323 32.5805H67.5484V34.0644H69.0323V32.5805Z" fill="#FF0036"/>
<path d="M60.871 46.6773H59.3871V48.1612H60.871V46.6773Z" fill="#FF0036"/>
<path d="M54.1935 45.1935H52.7097V46.6773H54.1935V45.1935Z" fill="#FF0036"/>
<path d="M57.9032 37.7741H56.4194V39.2579H57.9032V37.7741Z" fill="#FF0036"/>
<path d="M53.0781 78H51.3848V69.5449H52.8613L56.8105 75.0527H56.8574V69.5449H58.5508V78H57.0859L53.1309 72.4629H53.0781V78ZM62.1016 76.8633C62.4805 76.8633 62.8008 76.7539 63.0625 76.5352C63.3281 76.3125 63.4609 76.0332 63.4609 75.6973V75.2402L62.1367 75.3223C61.8164 75.3457 61.5684 75.4258 61.3926 75.5625C61.2207 75.6992 61.1348 75.8789 61.1348 76.1016C61.1348 76.3359 61.2227 76.5215 61.3984 76.6582C61.5742 76.7949 61.8086 76.8633 62.1016 76.8633ZM61.5391 78.0996C60.9336 78.0996 60.4316 77.9219 60.0332 77.5664C59.6348 77.2109 59.4355 76.7539 59.4355 76.1953C59.4355 75.625 59.6465 75.1777 60.0684 74.8535C60.4902 74.5293 61.0938 74.3438 61.8789 74.2969L63.4609 74.2031V73.7871C63.4609 73.498 63.3652 73.2715 63.1738 73.1074C62.9863 72.9434 62.7305 72.8613 62.4062 72.8613C62.0938 72.8613 61.8379 72.9316 61.6387 73.0723C61.4434 73.2129 61.3242 73.4023 61.2812 73.6406H59.7168C59.748 73.0234 60.0117 72.5273 60.5078 72.1523C61.0039 71.7734 61.6621 71.584 62.4824 71.584C63.2871 71.584 63.9316 71.7754 64.416 72.1582C64.9004 72.541 65.1426 73.0488 65.1426 73.6816V78H63.4902V77.0391H63.4551C63.2832 77.3672 63.0215 77.627 62.6699 77.8184C62.3184 78.0059 61.9414 78.0996 61.5391 78.0996ZM71.957 74.0566H70.3691C70.3184 73.7168 70.1836 73.4434 69.9648 73.2363C69.75 73.0293 69.4707 72.9258 69.127 72.9258C68.7012 72.9258 68.3652 73.0977 68.1191 73.4414C67.877 73.7812 67.7559 74.252 67.7559 74.8535C67.7559 75.4668 67.877 75.9434 68.1191 76.2832C68.3652 76.623 68.7031 76.793 69.1328 76.793C69.4727 76.793 69.75 76.6973 69.9648 76.5059C70.1797 76.3105 70.3145 76.041 70.3691 75.6973H71.9629C71.9199 76.4395 71.6406 77.0312 71.125 77.4727C70.6094 77.9141 69.9395 78.1348 69.1152 78.1348C68.1621 78.1348 67.4082 77.8438 66.8535 77.2617C66.2988 76.6758 66.0215 75.873 66.0215 74.8535C66.0215 73.8496 66.2988 73.0547 66.8535 72.4688C67.4121 71.8789 68.1621 71.584 69.1035 71.584C69.9395 71.584 70.6133 71.8145 71.125 72.2754C71.6406 72.7363 71.918 73.3301 71.957 74.0566ZM72.8301 78V69.5449H74.5117V72.8379H74.5469C74.7148 72.4395 74.9668 72.1348 75.3027 71.9238C75.6426 71.709 76.0488 71.6016 76.5215 71.6016C77.2129 71.6016 77.75 71.8125 78.1328 72.2344C78.5195 72.6523 78.7129 73.2266 78.7129 73.957V78H77.002V74.3203C77.002 73.9102 76.9004 73.5918 76.6973 73.3652C76.498 73.1348 76.207 73.0195 75.8242 73.0195C75.4258 73.0195 75.1113 73.1484 74.8809 73.4062C74.6543 73.6602 74.541 73.9961 74.541 74.4141V78H72.8301ZM84.9648 77.2676C84.4062 77.8457 83.6484 78.1348 82.6914 78.1348C81.7344 78.1348 80.9766 77.8438 80.418 77.2617C79.8594 76.6797 79.5801 75.877 79.5801 74.8535C79.5801 73.8418 79.8613 73.0449 80.4238 72.4629C80.9902 71.877 81.7461 71.584 82.6914 71.584C83.6406 71.584 84.3965 71.877 84.959 72.4629C85.5215 73.0449 85.8027 73.8418 85.8027 74.8535C85.8027 75.8809 85.5234 76.6855 84.9648 77.2676ZM82.6914 76.8281C83.1133 76.8281 83.4473 76.6562 83.6934 76.3125C83.9395 75.9688 84.0625 75.4844 84.0625 74.8594C84.0625 74.2422 83.9395 73.7598 83.6934 73.4121C83.4473 73.0645 83.1133 72.8906 82.6914 72.8906C82.2695 72.8906 81.9336 73.0645 81.6836 73.4121C81.4375 73.7598 81.3145 74.2422 81.3145 74.8594C81.3145 75.4844 81.4375 75.9688 81.6836 76.3125C81.9297 76.6562 82.2656 76.8281 82.6914 76.8281ZM86.582 73.5645C86.582 72.9668 86.8223 72.4883 87.3027 72.1289C87.7832 71.7656 88.4258 71.584 89.2305 71.584C90.0156 71.584 90.6465 71.7676 91.123 72.1348C91.5996 72.502 91.8438 72.9902 91.8555 73.5996H90.2793C90.2598 73.3457 90.1543 73.1465 89.9629 73.002C89.7754 72.8574 89.5234 72.7852 89.207 72.7852C88.9102 72.7852 88.6719 72.8477 88.4922 72.9727C88.3164 73.0938 88.2285 73.2559 88.2285 73.459C88.2285 73.7637 88.502 73.9805 89.0488 74.1094L90.25 74.3672C90.8789 74.5078 91.3301 74.7129 91.6035 74.9824C91.8809 75.248 92.0195 75.6152 92.0195 76.084C92.0195 76.7012 91.7617 77.1973 91.2461 77.5723C90.7305 77.9473 90.0566 78.1348 89.2246 78.1348C88.3965 78.1348 87.7344 77.9512 87.2383 77.584C86.7422 77.2168 86.4707 76.7227 86.4238 76.1016H88.0938C88.1367 76.3672 88.2578 76.5723 88.457 76.7168C88.6602 76.8613 88.9316 76.9336 89.2715 76.9336C89.5957 76.9336 89.8496 76.875 90.0332 76.7578C90.2207 76.6367 90.3145 76.4727 90.3145 76.2656C90.3145 76.1055 90.2559 75.9785 90.1387 75.8848C90.0215 75.7871 89.8223 75.7051 89.541 75.6387L88.3809 75.3809C87.1816 75.1074 86.582 74.502 86.582 73.5645Z" fill="#FF0036"/>
<defs>
<filter id="filter0_dd_57_418" x="0" y="0" width="144" height="107" filterUnits="userSpaceOnUse" color-interpolation-filters="sRGB">
<feFlood flood-opacity="0" result="BackgroundImageFix"/>
<feColorMatrix in="SourceAlpha" type="matrix" values="0 0 0 0 0 0 0 0 0 0 0 0 0 0 0 0 0 0 127 0" result="hardAlpha"/>
<feOffset dy="4"/>
<feGaussianBlur stdDeviation="2"/>
<feComposite in2="hardAlpha" operator="out"/>
<feColorMatrix type="matrix" values="0 0 0 0 0.5125 0 0 0 0 0.5125 0 0 0 0 0.5125 0 0 0 0.15 0"/>
<feBlend mode="normal" in2="BackgroundImageFix" result="effect1_dropShadow_57_418"/>
<feColorMatrix in="SourceAlpha" type="matrix" values="0 0 0 0 0 0 0 0 0 0 0 0 0 0 0 0 0 0 127 0" result="hardAlpha"/>
<feOffset/>
<feGaussianBlur stdDeviation="5"/>
<feComposite in2="hardAlpha" operator="out"/>
<feColorMatrix type="matrix" values="0 0 0 0 1 0 0 0 0 0 0 0 0 0 0.211765 0 0 0 0.2 0"/>
<feBlend mode="normal" in2="effect1_dropShadow_57_418" result="effect2_dropShadow_57_418"/>
<feBlend mode="normal" in="SourceGraphic" in2="effect2_dropShadow_57_418" result="shape"/>
</filter>
</defs>
</svg>
