<svg width="144" height="107" viewBox="0 0 144 107" fill="none" xmlns="http://www.w3.org/2000/svg">
<g filter="url(#filter0_dd_57_507)">
<rect x="10" y="10" width="124" height="87" rx="25" fill="white"/>
<rect x="11" y="11" width="122" height="85" rx="24" stroke="#FF0036" stroke-width="2"/>
</g>
<path d="M90.2885 23.75H90.159C90.4975 22.7739 90.4804 21.7079 90.1106 20.7435C90.0748 20.6511 90.0204 20.5672 89.951 20.4971C89.8816 20.427 89.7986 20.3721 89.7071 20.3359C88.8511 19.9994 87.9104 19.9505 87.0246 20.1965C86.5857 19.2457 85.8205 18.4878 84.8708 18.0632C84.7808 18.0235 84.6837 18.0029 84.5855 18.0029C84.4873 18.0029 84.3901 18.0235 84.3002 18.0632C83.3545 18.4807 82.5905 19.2298 82.1492 20.1721C81.3029 19.9628 80.4136 20.0199 79.6004 20.3359C79.4154 20.4093 79.2696 20.5566 79.197 20.7435C78.8274 21.708 78.8105 22.774 79.1493 23.75H61.2598L58.0949 21.0094C58.234 20.6814 58.2905 20.3236 58.2592 19.9681C58.228 19.6126 58.11 19.2705 57.9158 18.9723C57.7216 18.6742 57.4572 18.4293 57.1464 18.2596C56.8356 18.0899 56.4879 18.0007 56.1346 18C54.9577 18 54 18.9674 54 20.1562C54 21.3451 54.9577 22.3125 56.1346 22.3125C56.4925 22.3125 56.8298 22.2227 57.1265 22.0645L59.0733 23.75H57.5577C57.369 23.75 57.188 23.8257 57.0546 23.9605C56.9211 24.0953 56.8462 24.2781 56.8462 24.4688V25.6899C56.8462 27.8512 57.737 29.9435 59.2903 31.4291L70.5874 42.2406C70.7196 42.3671 70.8948 42.4376 71.0769 42.4375H71.252L72.5277 46.9477C72.5702 47.0977 72.66 47.2298 72.7833 47.3238C72.9067 47.4178 73.057 47.4687 73.2115 47.4688V59.6875H68.9423C66.9806 59.6875 65.3846 61.2997 65.3846 63.2812C65.3846 63.4719 65.4596 63.6547 65.593 63.7895C65.7265 63.9243 65.9074 64 66.0962 64H81.75C81.9387 64 82.1197 63.9243 82.2531 63.7895C82.3866 63.6547 82.4615 63.4719 82.4615 63.2812C82.4615 61.2997 80.8656 59.6875 78.9038 59.6875H74.6346V47.4688C74.7892 47.4687 74.9395 47.4178 75.0628 47.3238C75.1862 47.2298 75.2759 47.0977 75.3184 46.9477L76.5942 42.4375H76.7692C76.9513 42.4376 77.1266 42.3671 77.2588 42.2406L88.5559 31.4291C89.3264 30.6893 89.9404 29.7992 90.3605 28.8127C90.7806 27.8262 90.9982 26.7638 91 25.6899V24.4688C91 24.2781 90.925 24.0953 90.7916 23.9605C90.6582 23.8257 90.4772 23.75 90.2885 23.75ZM55.4231 20.1562C55.4231 19.7602 55.7426 19.4375 56.1346 19.4375C56.5267 19.4375 56.8462 19.7602 56.8462 20.1562C56.8462 20.5523 56.5267 20.875 56.1346 20.875C55.7426 20.875 55.4231 20.5523 55.4231 20.1562ZM80.9168 62.5625H66.9294C67.0771 62.1424 67.3498 61.7787 67.7102 61.5214C68.0706 61.264 68.501 61.1255 68.9423 61.125H78.9038C79.8317 61.125 80.6229 61.7259 80.9168 62.5625ZM88.8846 21.5743C89.0756 22.3089 88.9745 23.0898 88.6028 23.75H85.3767L85.3867 23.7033L85.3924 23.6781C85.4052 23.6206 85.4222 23.5638 85.4386 23.5078L85.4592 23.4402L85.4721 23.3993C85.4804 23.3711 85.4899 23.3433 85.5005 23.3159L85.5012 23.3137C85.5261 23.249 85.5553 23.1858 85.6073 23.0744C85.6243 23.037 85.6407 22.9996 85.6606 22.9637C85.7005 22.8904 85.7474 22.8207 85.7944 22.7495L85.7958 22.7473L85.8719 22.628L85.8727 22.6273C85.9536 22.5171 86.0423 22.4128 86.1381 22.3154L86.1402 22.3132L86.2099 22.2449L86.2391 22.2183L86.2818 22.181L86.3537 22.1213L86.3579 22.1177C86.3995 22.0844 86.442 22.0523 86.4853 22.0214L86.496 22.0135L86.523 21.9962L86.6105 21.938L86.6525 21.9122L86.6995 21.8834L86.7486 21.8554L86.7912 21.8317L86.8411 21.8051C86.8617 21.7943 86.8816 21.7835 86.903 21.7734L86.9215 21.7641C87.5329 21.4679 88.2286 21.4006 88.8846 21.5743ZM84.5848 19.5266C85.0845 19.8227 85.4841 20.2644 85.7311 20.7938L85.6734 20.8333C85.3091 21.0911 84.9881 21.4063 84.7228 21.767C84.6788 21.828 84.6373 21.8909 84.5983 21.9553C84.5286 22.0585 84.4631 22.1645 84.4019 22.273C84.3594 22.3543 84.3195 22.437 84.2824 22.5209C84.2386 22.6133 84.1982 22.7073 84.1614 22.8027C84.1261 22.8975 84.0946 22.9936 84.0668 23.0909C84.0003 23.3061 83.952 23.5266 83.9223 23.75H83.7608C83.3799 23.2523 83.1732 22.6411 83.1731 22.0121C83.1731 21.7727 83.2072 21.5291 83.2777 21.2646C83.2892 21.2213 83.2965 21.177 83.2997 21.1323C83.5167 20.4549 83.9745 19.8828 84.5848 19.5266ZM80.423 21.5751C80.862 21.461 81.3216 21.4546 81.7635 21.5564C81.6836 22.3049 81.8012 23.0615 82.1043 23.7493H80.7047C80.3331 23.0896 80.232 22.3091 80.423 21.5751ZM74.0981 46.0312H73.7487L72.732 42.4375H75.1149L74.0981 46.0312ZM89.5769 25.6899C89.5762 26.5022 89.4239 27.3072 89.1279 28.0625H85.3077V29.5H88.346C88.1183 29.817 87.8614 30.1138 87.5768 30.3855L76.486 41H71.3608L60.2687 30.3855C59.986 30.1147 59.7285 29.8183 59.4995 29.5H62.5385V28.0625H58.7182C58.4223 27.3072 58.27 26.5022 58.2692 25.6899V25.1875H60.7333L65.7496 29.5302C65.51 29.9597 65.3843 30.4445 65.3846 30.9375C65.3851 31.3762 65.4849 31.8091 65.6764 32.2029C65.8679 32.5967 66.146 32.9411 66.4894 33.2097C66.8328 33.4783 67.2325 33.664 67.6579 33.7527C68.0833 33.8413 68.5231 33.8306 68.9437 33.7212L68.9423 33.8125C68.9423 35.3981 70.2188 36.6875 71.7885 36.6875C72.3812 36.6875 72.9319 36.5035 73.3887 36.1887L76.311 38.6748L77.2275 37.5752L74.3287 35.1091C74.5743 34.6156 74.6741 34.061 74.6162 33.5117C74.5583 32.9624 74.3451 32.4416 74.0021 32.0113C73.6591 31.5811 73.2008 31.2597 72.6818 31.0855C72.1629 30.9112 71.6052 30.8916 71.0755 31.0288L71.0769 30.9375C71.0769 29.3519 69.8004 28.0625 68.2308 28.0625C67.6829 28.0625 67.1713 28.2199 66.7365 28.4916L62.9206 25.1875H89.5769V25.6899ZM71.7885 35.25C71.0036 35.25 70.3654 34.6053 70.3654 33.8125C70.3654 33.0197 71.0036 32.375 71.7885 32.375C72.5733 32.375 73.2115 33.0197 73.2115 33.8125C73.2115 34.6053 72.5733 35.25 71.7885 35.25ZM68.2308 32.375C67.4459 32.375 66.8077 31.7303 66.8077 30.9375C66.8077 30.1447 67.4459 29.5 68.2308 29.5C69.0156 29.5 69.6538 30.1447 69.6538 30.9375C69.6538 31.7303 69.0156 32.375 68.2308 32.375Z" fill="#FF0036"/>
<path d="M71.7885 28.0625H83.8846V29.5H71.7885V28.0625ZM76.7692 30.9375H78.1923V32.375H76.7692V30.9375ZM79.6154 33.0938H81.0385V34.5312H79.6154V33.0938ZM82.4615 30.9375H83.8846V32.375H82.4615V30.9375Z" fill="#FF0036"/>
<path d="M50.3477 78.1465C49.1133 78.1465 48.1367 77.7578 47.418 76.9805C46.7031 76.1992 46.3457 75.1289 46.3457 73.7695C46.3457 72.4141 46.7051 71.3477 47.4238 70.5703C48.1426 69.7891 49.1172 69.3984 50.3477 69.3984C51.0195 69.3984 51.6289 69.5312 52.1758 69.7969C52.7266 70.0625 53.168 70.4375 53.5 70.9219C53.832 71.4062 54.0195 71.959 54.0625 72.5801H52.3398C52.2578 72.0605 52.0332 71.6445 51.666 71.332C51.3027 71.0195 50.8633 70.8633 50.3477 70.8633C49.6797 70.8633 49.1465 71.125 48.748 71.6484C48.3496 72.1719 48.1504 72.877 48.1504 73.7637C48.1504 74.666 48.3477 75.3789 48.7422 75.9023C49.1367 76.4219 49.6738 76.6816 50.3535 76.6816C50.877 76.6816 51.3164 76.5371 51.6719 76.248C52.0273 75.959 52.252 75.5645 52.3457 75.0645H54.0684C53.9707 76.0059 53.5859 76.7559 52.9141 77.3145C52.2422 77.8691 51.3867 78.1465 50.3477 78.1465ZM60.1738 77.2676C59.6152 77.8457 58.8574 78.1348 57.9004 78.1348C56.9434 78.1348 56.1855 77.8438 55.627 77.2617C55.0684 76.6797 54.7891 75.877 54.7891 74.8535C54.7891 73.8418 55.0703 73.0449 55.6328 72.4629C56.1992 71.877 56.9551 71.584 57.9004 71.584C58.8496 71.584 59.6055 71.877 60.168 72.4629C60.7305 73.0449 61.0117 73.8418 61.0117 74.8535C61.0117 75.8809 60.7324 76.6855 60.1738 77.2676ZM57.9004 76.8281C58.3223 76.8281 58.6562 76.6562 58.9023 76.3125C59.1484 75.9688 59.2715 75.4844 59.2715 74.8594C59.2715 74.2422 59.1484 73.7598 58.9023 73.4121C58.6562 73.0645 58.3223 72.8906 57.9004 72.8906C57.4785 72.8906 57.1426 73.0645 56.8926 73.4121C56.6465 73.7598 56.5234 74.2422 56.5234 74.8594C56.5234 75.4844 56.6465 75.9688 56.8926 76.3125C57.1387 76.6562 57.4746 76.8281 57.9004 76.8281ZM67.6035 74.0566H66.0156C65.9648 73.7168 65.8301 73.4434 65.6113 73.2363C65.3965 73.0293 65.1172 72.9258 64.7734 72.9258C64.3477 72.9258 64.0117 73.0977 63.7656 73.4414C63.5234 73.7812 63.4023 74.252 63.4023 74.8535C63.4023 75.4668 63.5234 75.9434 63.7656 76.2832C64.0117 76.623 64.3496 76.793 64.7793 76.793C65.1191 76.793 65.3965 76.6973 65.6113 76.5059C65.8262 76.3105 65.9609 76.041 66.0156 75.6973H67.6094C67.5664 76.4395 67.2871 77.0312 66.7715 77.4727C66.2559 77.9141 65.5859 78.1348 64.7617 78.1348C63.8086 78.1348 63.0547 77.8438 62.5 77.2617C61.9453 76.6758 61.668 75.873 61.668 74.8535C61.668 73.8496 61.9453 73.0547 62.5 72.4688C63.0586 71.8789 63.8086 71.584 64.75 71.584C65.5859 71.584 66.2598 71.8145 66.7715 72.2754C67.2871 72.7363 67.5645 73.3301 67.6035 74.0566ZM70.2109 74.2383L72.3438 71.7188H74.2832L71.8867 74.4141L74.4004 78H72.4316L70.6328 75.4453L70.1875 75.9258V78H68.4766V69.5449H70.1875V74.2383H70.2109ZM75.3496 70.2715H77.0605V71.7188H78.2207V73.0078H77.0605V76.0137C77.0605 76.4863 77.3066 76.7227 77.7988 76.7227C77.959 76.7227 78.0977 76.7129 78.2148 76.6934V77.9531C78.0156 78 77.7441 78.0234 77.4004 78.0234C76.6621 78.0234 76.1348 77.8906 75.8184 77.625C75.5059 77.3594 75.3496 76.9199 75.3496 76.3066V73.0078H74.4648V71.7188H75.3496V70.2715ZM81.5254 76.8633C81.9043 76.8633 82.2246 76.7539 82.4863 76.5352C82.752 76.3125 82.8848 76.0332 82.8848 75.6973V75.2402L81.5605 75.3223C81.2402 75.3457 80.9922 75.4258 80.8164 75.5625C80.6445 75.6992 80.5586 75.8789 80.5586 76.1016C80.5586 76.3359 80.6465 76.5215 80.8223 76.6582C80.998 76.7949 81.2324 76.8633 81.5254 76.8633ZM80.9629 78.0996C80.3574 78.0996 79.8555 77.9219 79.457 77.5664C79.0586 77.2109 78.8594 76.7539 78.8594 76.1953C78.8594 75.625 79.0703 75.1777 79.4922 74.8535C79.9141 74.5293 80.5176 74.3438 81.3027 74.2969L82.8848 74.2031V73.7871C82.8848 73.498 82.7891 73.2715 82.5977 73.1074C82.4102 72.9434 82.1543 72.8613 81.8301 72.8613C81.5176 72.8613 81.2617 72.9316 81.0625 73.0723C80.8672 73.2129 80.748 73.4023 80.7051 73.6406H79.1406C79.1719 73.0234 79.4355 72.5273 79.9316 72.1523C80.4277 71.7734 81.0859 71.584 81.9062 71.584C82.7109 71.584 83.3555 71.7754 83.8398 72.1582C84.3242 72.541 84.5664 73.0488 84.5664 73.6816V78H82.9141V77.0391H82.8789C82.707 77.3672 82.4453 77.627 82.0938 77.8184C81.7422 78.0059 81.3652 78.0996 80.9629 78.0996ZM85.7031 78V71.7188H87.4141V78H85.7031ZM87.209 70.7695C87.0332 70.9414 86.8164 71.0273 86.5586 71.0273C86.3008 71.0273 86.084 70.9414 85.9082 70.7695C85.7324 70.5977 85.6445 70.3887 85.6445 70.1426C85.6445 69.8926 85.7324 69.6836 85.9082 69.5156C86.084 69.3438 86.3008 69.2578 86.5586 69.2578C86.8164 69.2578 87.0332 69.3438 87.209 69.5156C87.3848 69.6836 87.4727 69.8926 87.4727 70.1426C87.4727 70.3887 87.3848 70.5977 87.209 70.7695ZM88.5977 78V69.5449H90.3086V78H88.5977ZM91.3574 73.5645C91.3574 72.9668 91.5977 72.4883 92.0781 72.1289C92.5586 71.7656 93.2012 71.584 94.0059 71.584C94.791 71.584 95.4219 71.7676 95.8984 72.1348C96.375 72.502 96.6191 72.9902 96.6309 73.5996H95.0547C95.0352 73.3457 94.9297 73.1465 94.7383 73.002C94.5508 72.8574 94.2988 72.7852 93.9824 72.7852C93.6855 72.7852 93.4473 72.8477 93.2676 72.9727C93.0918 73.0938 93.0039 73.2559 93.0039 73.459C93.0039 73.7637 93.2773 73.9805 93.8242 74.1094L95.0254 74.3672C95.6543 74.5078 96.1055 74.7129 96.3789 74.9824C96.6562 75.248 96.7949 75.6152 96.7949 76.084C96.7949 76.7012 96.5371 77.1973 96.0215 77.5723C95.5059 77.9473 94.832 78.1348 94 78.1348C93.1719 78.1348 92.5098 77.9512 92.0137 77.584C91.5176 77.2168 91.2461 76.7227 91.1992 76.1016H92.8691C92.9121 76.3672 93.0332 76.5723 93.2324 76.7168C93.4355 76.8613 93.707 76.9336 94.0469 76.9336C94.3711 76.9336 94.625 76.875 94.8086 76.7578C94.9961 76.6367 95.0898 76.4727 95.0898 76.2656C95.0898 76.1055 95.0312 75.9785 94.9141 75.8848C94.7969 75.7871 94.5977 75.7051 94.3164 75.6387L93.1562 75.3809C91.957 75.1074 91.3574 74.502 91.3574 73.5645Z" fill="#FF0036"/>
<defs>
<filter id="filter0_dd_57_507" x="0" y="0" width="144" height="107" filterUnits="userSpaceOnUse" color-interpolation-filters="sRGB">
<feFlood flood-opacity="0" result="BackgroundImageFix"/>
<feColorMatrix in="SourceAlpha" type="matrix" values="0 0 0 0 0 0 0 0 0 0 0 0 0 0 0 0 0 0 127 0" result="hardAlpha"/>
<feOffset dy="4"/>
<feGaussianBlur stdDeviation="2"/>
<feComposite in2="hardAlpha" operator="out"/>
<feColorMatrix type="matrix" values="0 0 0 0 0.5125 0 0 0 0 0.5125 0 0 0 0 0.5125 0 0 0 0.15 0"/>
<feBlend mode="normal" in2="BackgroundImageFix" result="effect1_dropShadow_57_507"/>
<feColorMatrix in="SourceAlpha" type="matrix" values="0 0 0 0 0 0 0 0 0 0 0 0 0 0 0 0 0 0 127 0" result="hardAlpha"/>
<feOffset/>
<feGaussianBlur stdDeviation="5"/>
<feComposite in2="hardAlpha" operator="out"/>
<feColorMatrix type="matrix" values="0 0 0 0 1 0 0 0 0 0 0 0 0 0 0.211765 0 0 0 0.2 0"/>
<feBlend mode="normal" in2="effect1_dropShadow_57_507" result="effect2_dropShadow_57_507"/>
<feBlend mode="normal" in="SourceGraphic" in2="effect2_dropShadow_57_507" result="shape"/>
</filter>
</defs>
</svg>
